<?xml version="1.0" encoding="utf-8" standalone="no"?>
<!DOCTYPE svg PUBLIC "-//W3C//DTD SVG 1.1//EN"
  "http://www.w3.org/Graphics/SVG/1.1/DTD/svg11.dtd">
<svg xmlns:xlink="http://www.w3.org/1999/xlink" width="576pt" height="252pt" viewBox="0 0 576 252" xmlns="http://www.w3.org/2000/svg" version="1.1">
 <metadata>
  <rdf:RDF xmlns:dc="http://purl.org/dc/elements/1.1/" xmlns:cc="http://creativecommons.org/ns#" xmlns:rdf="http://www.w3.org/1999/02/22-rdf-syntax-ns#">
   <cc:Work>
    <dc:type rdf:resource="http://purl.org/dc/dcmitype/StillImage"/>
    <dc:date>2026-01-30T14:20:47.029982</dc:date>
    <dc:format>image/svg+xml</dc:format>
    <dc:creator>
     <cc:Agent>
      <dc:title>Matplotlib v3.10.8, https://matplotlib.org/</dc:title>
     </cc:Agent>
    </dc:creator>
   </cc:Work>
  </rdf:RDF>
 </metadata>
 <defs>
  <style type="text/css">*{stroke-linejoin: round; stroke-linecap: butt}</style>
 </defs>
 <g id="figure_1">
  <g id="patch_1">
   <path d="M 0 252 
L 576 252 
L 576 0 
L 0 0 
z
" style="fill: #ffffff"/>
  </g>
  <g id="axes_1">
   <g id="patch_2">
    <path d="M 54.245 184.84 
L 292.835 184.84 
L 292.835 26.16 
L 54.245 26.16 
z
" style="fill: #ffffff"/>
   </g>
   <g id="matplotlib.axis_1">
    <g id="xtick_1">
     <g id="line2d_1">
      <path d="M 65.09 184.84 
L 65.09 26.16 
" clip-path="url(#p94871f6dcd)" style="fill: none; stroke: #b0b0b0; stroke-width: 0.8; stroke-linecap: square"/>
     </g>
     <g id="line2d_2">
      <defs>
       <path id="m2890e28c4c" d="M 0 0 
L 0 3.5 
" style="stroke: #000000; stroke-width: 0.8"/>
      </defs>
      <g>
       <use xlink:href="#m2890e28c4c" x="65.09" y="184.84" style="stroke: #000000; stroke-width: 0.8"/>
      </g>
     </g>
     <g id="text_1">
      <!-- 1 -->
      <g transform="translate(61.90875 199.438437) scale(0.1 -0.1)">
       <defs>
        <path id="DejaVuSans-31" d="M 794 531 
L 1825 531 
L 1825 4091 
L 703 3866 
L 703 4441 
L 1819 4666 
L 2450 4666 
L 2450 531 
L 3481 531 
L 3481 0 
L 794 0 
L 794 531 
z
" transform="scale(0.015625)"/>
       </defs>
       <use xlink:href="#DejaVuSans-31"/>
      </g>
     </g>
    </g>
    <g id="xtick_2">
     <g id="line2d_3">
      <path d="M 137.39 184.84 
L 137.39 26.16 
" clip-path="url(#p94871f6dcd)" style="fill: none; stroke: #b0b0b0; stroke-width: 0.8; stroke-linecap: square"/>
     </g>
     <g id="line2d_4">
      <g>
       <use xlink:href="#m2890e28c4c" x="137.39" y="184.84" style="stroke: #000000; stroke-width: 0.8"/>
      </g>
     </g>
     <g id="text_2">
      <!-- 2 -->
      <g transform="translate(134.20875 199.438437) scale(0.1 -0.1)">
       <defs>
        <path id="DejaVuSans-32" d="M 1228 531 
L 3431 531 
L 3431 0 
L 469 0 
L 469 531 
Q 828 903 1448 1529 
Q 2069 2156 2228 2338 
Q 2531 2678 2651 2914 
Q 2772 3150 2772 3378 
Q 2772 3750 2511 3984 
Q 2250 4219 1831 4219 
Q 1534 4219 1204 4116 
Q 875 4013 500 3803 
L 500 4441 
Q 881 4594 1212 4672 
Q 1544 4750 1819 4750 
Q 2544 4750 2975 4387 
Q 3406 4025 3406 3419 
Q 3406 3131 3298 2873 
Q 3191 2616 2906 2266 
Q 2828 2175 2409 1742 
Q 1991 1309 1228 531 
z
" transform="scale(0.015625)"/>
       </defs>
       <use xlink:href="#DejaVuSans-32"/>
      </g>
     </g>
    </g>
    <g id="xtick_3">
     <g id="line2d_5">
      <path d="M 209.69 184.84 
L 209.69 26.16 
" clip-path="url(#p94871f6dcd)" style="fill: none; stroke: #b0b0b0; stroke-width: 0.8; stroke-linecap: square"/>
     </g>
     <g id="line2d_6">
      <g>
       <use xlink:href="#m2890e28c4c" x="209.69" y="184.84" style="stroke: #000000; stroke-width: 0.8"/>
      </g>
     </g>
     <g id="text_3">
      <!-- 4 -->
      <g transform="translate(206.50875 199.438437) scale(0.1 -0.1)">
       <defs>
        <path id="DejaVuSans-34" d="M 2419 4116 
L 825 1625 
L 2419 1625 
L 2419 4116 
z
M 2253 4666 
L 3047 4666 
L 3047 1625 
L 3713 1625 
L 3713 1100 
L 3047 1100 
L 3047 0 
L 2419 0 
L 2419 1100 
L 313 1100 
L 313 1709 
L 2253 4666 
z
" transform="scale(0.015625)"/>
       </defs>
       <use xlink:href="#DejaVuSans-34"/>
      </g>
     </g>
    </g>
    <g id="xtick_4">
     <g id="line2d_7">
      <path d="M 281.99 184.84 
L 281.99 26.16 
" clip-path="url(#p94871f6dcd)" style="fill: none; stroke: #b0b0b0; stroke-width: 0.8; stroke-linecap: square"/>
     </g>
     <g id="line2d_8">
      <g>
       <use xlink:href="#m2890e28c4c" x="281.99" y="184.84" style="stroke: #000000; stroke-width: 0.8"/>
      </g>
     </g>
     <g id="text_4">
      <!-- 8 -->
      <g transform="translate(278.80875 199.438437) scale(0.1 -0.1)">
       <defs>
        <path id="DejaVuSans-38" d="M 2034 2216 
Q 1584 2216 1326 1975 
Q 1069 1734 1069 1313 
Q 1069 891 1326 650 
Q 1584 409 2034 409 
Q 2484 409 2743 651 
Q 3003 894 3003 1313 
Q 3003 1734 2745 1975 
Q 2488 2216 2034 2216 
z
M 1403 2484 
Q 997 2584 770 2862 
Q 544 3141 544 3541 
Q 544 4100 942 4425 
Q 1341 4750 2034 4750 
Q 2731 4750 3128 4425 
Q 3525 4100 3525 3541 
Q 3525 3141 3298 2862 
Q 3072 2584 2669 2484 
Q 3125 2378 3379 2068 
Q 3634 1759 3634 1313 
Q 3634 634 3220 271 
Q 2806 -91 2034 -91 
Q 1263 -91 848 271 
Q 434 634 434 1313 
Q 434 1759 690 2068 
Q 947 2378 1403 2484 
z
M 1172 3481 
Q 1172 3119 1398 2916 
Q 1625 2713 2034 2713 
Q 2441 2713 2670 2916 
Q 2900 3119 2900 3481 
Q 2900 3844 2670 4047 
Q 2441 4250 2034 4250 
Q 1625 4250 1398 4047 
Q 1172 3844 1172 3481 
z
" transform="scale(0.015625)"/>
       </defs>
       <use xlink:href="#DejaVuSans-38"/>
      </g>
     </g>
    </g>
    <g id="text_5">
     <!-- Nodes -->
     <g transform="translate(157.884531 213.116562) scale(0.1 -0.1)">
      <defs>
       <path id="DejaVuSans-4e" d="M 628 4666 
L 1478 4666 
L 3547 763 
L 3547 4666 
L 4159 4666 
L 4159 0 
L 3309 0 
L 1241 3903 
L 1241 0 
L 628 0 
L 628 4666 
z
" transform="scale(0.015625)"/>
       <path id="DejaVuSans-6f" d="M 1959 3097 
Q 1497 3097 1228 2736 
Q 959 2375 959 1747 
Q 959 1119 1226 758 
Q 1494 397 1959 397 
Q 2419 397 2687 759 
Q 2956 1122 2956 1747 
Q 2956 2369 2687 2733 
Q 2419 3097 1959 3097 
z
M 1959 3584 
Q 2709 3584 3137 3096 
Q 3566 2609 3566 1747 
Q 3566 888 3137 398 
Q 2709 -91 1959 -91 
Q 1206 -91 779 398 
Q 353 888 353 1747 
Q 353 2609 779 3096 
Q 1206 3584 1959 3584 
z
" transform="scale(0.015625)"/>
       <path id="DejaVuSans-64" d="M 2906 2969 
L 2906 4863 
L 3481 4863 
L 3481 0 
L 2906 0 
L 2906 525 
Q 2725 213 2448 61 
Q 2172 -91 1784 -91 
Q 1150 -91 751 415 
Q 353 922 353 1747 
Q 353 2572 751 3078 
Q 1150 3584 1784 3584 
Q 2172 3584 2448 3432 
Q 2725 3281 2906 2969 
z
M 947 1747 
Q 947 1113 1208 752 
Q 1469 391 1925 391 
Q 2381 391 2643 752 
Q 2906 1113 2906 1747 
Q 2906 2381 2643 2742 
Q 2381 3103 1925 3103 
Q 1469 3103 1208 2742 
Q 947 2381 947 1747 
z
" transform="scale(0.015625)"/>
       <path id="DejaVuSans-65" d="M 3597 1894 
L 3597 1613 
L 953 1613 
Q 991 1019 1311 708 
Q 1631 397 2203 397 
Q 2534 397 2845 478 
Q 3156 559 3463 722 
L 3463 178 
Q 3153 47 2828 -22 
Q 2503 -91 2169 -91 
Q 1331 -91 842 396 
Q 353 884 353 1716 
Q 353 2575 817 3079 
Q 1281 3584 2069 3584 
Q 2775 3584 3186 3129 
Q 3597 2675 3597 1894 
z
M 3022 2063 
Q 3016 2534 2758 2815 
Q 2500 3097 2075 3097 
Q 1594 3097 1305 2825 
Q 1016 2553 972 2059 
L 3022 2063 
z
" transform="scale(0.015625)"/>
       <path id="DejaVuSans-73" d="M 2834 3397 
L 2834 2853 
Q 2591 2978 2328 3040 
Q 2066 3103 1784 3103 
Q 1356 3103 1142 2972 
Q 928 2841 928 2578 
Q 928 2378 1081 2264 
Q 1234 2150 1697 2047 
L 1894 2003 
Q 2506 1872 2764 1633 
Q 3022 1394 3022 966 
Q 3022 478 2636 193 
Q 2250 -91 1575 -91 
Q 1294 -91 989 -36 
Q 684 19 347 128 
L 347 722 
Q 666 556 975 473 
Q 1284 391 1588 391 
Q 1994 391 2212 530 
Q 2431 669 2431 922 
Q 2431 1156 2273 1281 
Q 2116 1406 1581 1522 
L 1381 1569 
Q 847 1681 609 1914 
Q 372 2147 372 2553 
Q 372 3047 722 3315 
Q 1072 3584 1716 3584 
Q 2034 3584 2315 3537 
Q 2597 3491 2834 3397 
z
" transform="scale(0.015625)"/>
      </defs>
      <use xlink:href="#DejaVuSans-4e"/>
      <use xlink:href="#DejaVuSans-6f" transform="translate(74.804688 0)"/>
      <use xlink:href="#DejaVuSans-64" transform="translate(135.986328 0)"/>
      <use xlink:href="#DejaVuSans-65" transform="translate(199.462891 0)"/>
      <use xlink:href="#DejaVuSans-73" transform="translate(260.986328 0)"/>
     </g>
    </g>
   </g>
   <g id="matplotlib.axis_2">
    <g id="ytick_1">
     <g id="line2d_9">
      <path d="M 54.245 168.097849 
L 292.835 168.097849 
" clip-path="url(#p94871f6dcd)" style="fill: none; stroke: #b0b0b0; stroke-width: 0.8; stroke-linecap: square"/>
     </g>
     <g id="line2d_10">
      <defs>
       <path id="m3e5be6696d" d="M 0 0 
L -3.5 0 
" style="stroke: #000000; stroke-width: 0.8"/>
      </defs>
      <g>
       <use xlink:href="#m3e5be6696d" x="54.245" y="168.097849" style="stroke: #000000; stroke-width: 0.8"/>
      </g>
     </g>
     <g id="text_6">
      <!-- 0.94 -->
      <g transform="translate(24.979375 171.897068) scale(0.1 -0.1)">
       <defs>
        <path id="DejaVuSans-30" d="M 2034 4250 
Q 1547 4250 1301 3770 
Q 1056 3291 1056 2328 
Q 1056 1369 1301 889 
Q 1547 409 2034 409 
Q 2525 409 2770 889 
Q 3016 1369 3016 2328 
Q 3016 3291 2770 3770 
Q 2525 4250 2034 4250 
z
M 2034 4750 
Q 2819 4750 3233 4129 
Q 3647 3509 3647 2328 
Q 3647 1150 3233 529 
Q 2819 -91 2034 -91 
Q 1250 -91 836 529 
Q 422 1150 422 2328 
Q 422 3509 836 4129 
Q 1250 4750 2034 4750 
z
" transform="scale(0.015625)"/>
        <path id="DejaVuSans-2e" d="M 684 794 
L 1344 794 
L 1344 0 
L 684 0 
L 684 794 
z
" transform="scale(0.015625)"/>
        <path id="DejaVuSans-39" d="M 703 97 
L 703 672 
Q 941 559 1184 500 
Q 1428 441 1663 441 
Q 2288 441 2617 861 
Q 2947 1281 2994 2138 
Q 2813 1869 2534 1725 
Q 2256 1581 1919 1581 
Q 1219 1581 811 2004 
Q 403 2428 403 3163 
Q 403 3881 828 4315 
Q 1253 4750 1959 4750 
Q 2769 4750 3195 4129 
Q 3622 3509 3622 2328 
Q 3622 1225 3098 567 
Q 2575 -91 1691 -91 
Q 1453 -91 1209 -44 
Q 966 3 703 97 
z
M 1959 2075 
Q 2384 2075 2632 2365 
Q 2881 2656 2881 3163 
Q 2881 3666 2632 3958 
Q 2384 4250 1959 4250 
Q 1534 4250 1286 3958 
Q 1038 3666 1038 3163 
Q 1038 2656 1286 2365 
Q 1534 2075 1959 2075 
z
" transform="scale(0.015625)"/>
       </defs>
       <use xlink:href="#DejaVuSans-30"/>
       <use xlink:href="#DejaVuSans-2e" transform="translate(63.623047 0)"/>
       <use xlink:href="#DejaVuSans-39" transform="translate(95.410156 0)"/>
       <use xlink:href="#DejaVuSans-34" transform="translate(159.033203 0)"/>
      </g>
     </g>
    </g>
    <g id="ytick_2">
     <g id="line2d_11">
      <path d="M 54.245 123.360329 
L 292.835 123.360329 
" clip-path="url(#p94871f6dcd)" style="fill: none; stroke: #b0b0b0; stroke-width: 0.8; stroke-linecap: square"/>
     </g>
     <g id="line2d_12">
      <g>
       <use xlink:href="#m3e5be6696d" x="54.245" y="123.360329" style="stroke: #000000; stroke-width: 0.8"/>
      </g>
     </g>
     <g id="text_7">
      <!-- 0.96 -->
      <g transform="translate(24.979375 127.159547) scale(0.1 -0.1)">
       <defs>
        <path id="DejaVuSans-36" d="M 2113 2584 
Q 1688 2584 1439 2293 
Q 1191 2003 1191 1497 
Q 1191 994 1439 701 
Q 1688 409 2113 409 
Q 2538 409 2786 701 
Q 3034 994 3034 1497 
Q 3034 2003 2786 2293 
Q 2538 2584 2113 2584 
z
M 3366 4563 
L 3366 3988 
Q 3128 4100 2886 4159 
Q 2644 4219 2406 4219 
Q 1781 4219 1451 3797 
Q 1122 3375 1075 2522 
Q 1259 2794 1537 2939 
Q 1816 3084 2150 3084 
Q 2853 3084 3261 2657 
Q 3669 2231 3669 1497 
Q 3669 778 3244 343 
Q 2819 -91 2113 -91 
Q 1303 -91 875 529 
Q 447 1150 447 2328 
Q 447 3434 972 4092 
Q 1497 4750 2381 4750 
Q 2619 4750 2861 4703 
Q 3103 4656 3366 4563 
z
" transform="scale(0.015625)"/>
       </defs>
       <use xlink:href="#DejaVuSans-30"/>
       <use xlink:href="#DejaVuSans-2e" transform="translate(63.623047 0)"/>
       <use xlink:href="#DejaVuSans-39" transform="translate(95.410156 0)"/>
       <use xlink:href="#DejaVuSans-36" transform="translate(159.033203 0)"/>
      </g>
     </g>
    </g>
    <g id="ytick_3">
     <g id="line2d_13">
      <path d="M 54.245 78.622808 
L 292.835 78.622808 
" clip-path="url(#p94871f6dcd)" style="fill: none; stroke: #b0b0b0; stroke-width: 0.8; stroke-linecap: square"/>
     </g>
     <g id="line2d_14">
      <g>
       <use xlink:href="#m3e5be6696d" x="54.245" y="78.622808" style="stroke: #000000; stroke-width: 0.8"/>
      </g>
     </g>
     <g id="text_8">
      <!-- 0.98 -->
      <g transform="translate(24.979375 82.422027) scale(0.1 -0.1)">
       <use xlink:href="#DejaVuSans-30"/>
       <use xlink:href="#DejaVuSans-2e" transform="translate(63.623047 0)"/>
       <use xlink:href="#DejaVuSans-39" transform="translate(95.410156 0)"/>
       <use xlink:href="#DejaVuSans-38" transform="translate(159.033203 0)"/>
      </g>
     </g>
    </g>
    <g id="ytick_4">
     <g id="line2d_15">
      <path d="M 54.245 33.885287 
L 292.835 33.885287 
" clip-path="url(#p94871f6dcd)" style="fill: none; stroke: #b0b0b0; stroke-width: 0.8; stroke-linecap: square"/>
     </g>
     <g id="line2d_16">
      <g>
       <use xlink:href="#m3e5be6696d" x="54.245" y="33.885287" style="stroke: #000000; stroke-width: 0.8"/>
      </g>
     </g>
     <g id="text_9">
      <!-- 1.00 -->
      <g transform="translate(24.979375 37.684506) scale(0.1 -0.1)">
       <use xlink:href="#DejaVuSans-31"/>
       <use xlink:href="#DejaVuSans-2e" transform="translate(63.623047 0)"/>
       <use xlink:href="#DejaVuSans-30" transform="translate(95.410156 0)"/>
       <use xlink:href="#DejaVuSans-30" transform="translate(159.033203 0)"/>
      </g>
     </g>
    </g>
    <g id="text_10">
     <!-- Efficiency -->
     <g transform="translate(18.899688 129.660937) rotate(-90) scale(0.1 -0.1)">
      <defs>
       <path id="DejaVuSans-45" d="M 628 4666 
L 3578 4666 
L 3578 4134 
L 1259 4134 
L 1259 2753 
L 3481 2753 
L 3481 2222 
L 1259 2222 
L 1259 531 
L 3634 531 
L 3634 0 
L 628 0 
L 628 4666 
z
" transform="scale(0.015625)"/>
       <path id="DejaVuSans-66" d="M 2375 4863 
L 2375 4384 
L 1825 4384 
Q 1516 4384 1395 4259 
Q 1275 4134 1275 3809 
L 1275 3500 
L 2222 3500 
L 2222 3053 
L 1275 3053 
L 1275 0 
L 697 0 
L 697 3053 
L 147 3053 
L 147 3500 
L 697 3500 
L 697 3744 
Q 697 4328 969 4595 
Q 1241 4863 1831 4863 
L 2375 4863 
z
" transform="scale(0.015625)"/>
       <path id="DejaVuSans-69" d="M 603 3500 
L 1178 3500 
L 1178 0 
L 603 0 
L 603 3500 
z
M 603 4863 
L 1178 4863 
L 1178 4134 
L 603 4134 
L 603 4863 
z
" transform="scale(0.015625)"/>
       <path id="DejaVuSans-63" d="M 3122 3366 
L 3122 2828 
Q 2878 2963 2633 3030 
Q 2388 3097 2138 3097 
Q 1578 3097 1268 2742 
Q 959 2388 959 1747 
Q 959 1106 1268 751 
Q 1578 397 2138 397 
Q 2388 397 2633 464 
Q 2878 531 3122 666 
L 3122 134 
Q 2881 22 2623 -34 
Q 2366 -91 2075 -91 
Q 1284 -91 818 406 
Q 353 903 353 1747 
Q 353 2603 823 3093 
Q 1294 3584 2113 3584 
Q 2378 3584 2631 3529 
Q 2884 3475 3122 3366 
z
" transform="scale(0.015625)"/>
       <path id="DejaVuSans-6e" d="M 3513 2113 
L 3513 0 
L 2938 0 
L 2938 2094 
Q 2938 2591 2744 2837 
Q 2550 3084 2163 3084 
Q 1697 3084 1428 2787 
Q 1159 2491 1159 1978 
L 1159 0 
L 581 0 
L 581 3500 
L 1159 3500 
L 1159 2956 
Q 1366 3272 1645 3428 
Q 1925 3584 2291 3584 
Q 2894 3584 3203 3211 
Q 3513 2838 3513 2113 
z
" transform="scale(0.015625)"/>
       <path id="DejaVuSans-79" d="M 2059 -325 
Q 1816 -950 1584 -1140 
Q 1353 -1331 966 -1331 
L 506 -1331 
L 506 -850 
L 844 -850 
Q 1081 -850 1212 -737 
Q 1344 -625 1503 -206 
L 1606 56 
L 191 3500 
L 800 3500 
L 1894 763 
L 2988 3500 
L 3597 3500 
L 2059 -325 
z
" transform="scale(0.015625)"/>
      </defs>
      <use xlink:href="#DejaVuSans-45"/>
      <use xlink:href="#DejaVuSans-66" transform="translate(63.183594 0)"/>
      <use xlink:href="#DejaVuSans-66" transform="translate(98.388672 0)"/>
      <use xlink:href="#DejaVuSans-69" transform="translate(133.59375 0)"/>
      <use xlink:href="#DejaVuSans-63" transform="translate(161.376953 0)"/>
      <use xlink:href="#DejaVuSans-69" transform="translate(216.357422 0)"/>
      <use xlink:href="#DejaVuSans-65" transform="translate(244.140625 0)"/>
      <use xlink:href="#DejaVuSans-6e" transform="translate(305.664062 0)"/>
      <use xlink:href="#DejaVuSans-63" transform="translate(369.042969 0)"/>
      <use xlink:href="#DejaVuSans-79" transform="translate(424.023438 0)"/>
     </g>
    </g>
   </g>
   <g id="line2d_17">
    <path d="M 65.09 33.885287 
L 137.39 39.789326 
L 209.69 33.372727 
L 281.99 51.448972 
" clip-path="url(#p94871f6dcd)" style="fill: none; stroke: #b6b6d8; stroke-width: 1.5; stroke-linecap: square"/>
    <defs>
     <path id="m749b87a0ae" d="M 0 1.5 
C 0.397805 1.5 0.77937 1.341951 1.06066 1.06066 
C 1.341951 0.77937 1.5 0.397805 1.5 0 
C 1.5 -0.397805 1.341951 -0.77937 1.06066 -1.06066 
C 0.77937 -1.341951 0.397805 -1.5 0 -1.5 
C -0.397805 -1.5 -0.77937 -1.341951 -1.06066 -1.06066 
C -1.341951 -0.77937 -1.5 -0.397805 -1.5 0 
C -1.5 0.397805 -1.341951 0.77937 -1.06066 1.06066 
C -0.77937 1.341951 -0.397805 1.5 0 1.5 
z
" style="stroke: #b6b6d8"/>
    </defs>
    <g clip-path="url(#p94871f6dcd)">
     <use xlink:href="#m749b87a0ae" x="65.09" y="33.885287" style="fill: #b6b6d8; stroke: #b6b6d8"/>
     <use xlink:href="#m749b87a0ae" x="137.39" y="39.789326" style="fill: #b6b6d8; stroke: #b6b6d8"/>
     <use xlink:href="#m749b87a0ae" x="209.69" y="33.372727" style="fill: #b6b6d8; stroke: #b6b6d8"/>
     <use xlink:href="#m749b87a0ae" x="281.99" y="51.448972" style="fill: #b6b6d8; stroke: #b6b6d8"/>
    </g>
   </g>
   <g id="line2d_18">
    <path d="M 65.09 33.885287 
L 137.39 41.684521 
L 209.69 72.380353 
L 281.99 92.394934 
" clip-path="url(#p94871f6dcd)" style="fill: none; stroke: #807cba; stroke-width: 1.5; stroke-linecap: square"/>
    <defs>
     <path id="mdb15df508e" d="M 0 1.5 
C 0.397805 1.5 0.77937 1.341951 1.06066 1.06066 
C 1.341951 0.77937 1.5 0.397805 1.5 0 
C 1.5 -0.397805 1.341951 -0.77937 1.06066 -1.06066 
C 0.77937 -1.341951 0.397805 -1.5 0 -1.5 
C -0.397805 -1.5 -0.77937 -1.341951 -1.06066 -1.06066 
C -1.341951 -0.77937 -1.5 -0.397805 -1.5 0 
C -1.5 0.397805 -1.341951 0.77937 -1.06066 1.06066 
C -0.77937 1.341951 -0.397805 1.5 0 1.5 
z
" style="stroke: #807cba"/>
    </defs>
    <g clip-path="url(#p94871f6dcd)">
     <use xlink:href="#mdb15df508e" x="65.09" y="33.885287" style="fill: #807cba; stroke: #807cba"/>
     <use xlink:href="#mdb15df508e" x="137.39" y="41.684521" style="fill: #807cba; stroke: #807cba"/>
     <use xlink:href="#mdb15df508e" x="209.69" y="72.380353" style="fill: #807cba; stroke: #807cba"/>
     <use xlink:href="#mdb15df508e" x="281.99" y="92.394934" style="fill: #807cba; stroke: #807cba"/>
    </g>
   </g>
   <g id="line2d_19">
    <path d="M 65.09 33.885287 
L 137.39 72.414133 
L 209.69 90.351122 
L 281.99 177.627273 
" clip-path="url(#p94871f6dcd)" style="fill: none; stroke: #582f93; stroke-width: 1.5; stroke-linecap: square"/>
    <defs>
     <path id="m6c5f02f308" d="M 0 1.5 
C 0.397805 1.5 0.77937 1.341951 1.06066 1.06066 
C 1.341951 0.77937 1.5 0.397805 1.5 0 
C 1.5 -0.397805 1.341951 -0.77937 1.06066 -1.06066 
C 0.77937 -1.341951 0.397805 -1.5 0 -1.5 
C -0.397805 -1.5 -0.77937 -1.341951 -1.06066 -1.06066 
C -1.341951 -0.77937 -1.5 -0.397805 -1.5 0 
C -1.5 0.397805 -1.341951 0.77937 -1.06066 1.06066 
C -0.77937 1.341951 -0.397805 1.5 0 1.5 
z
" style="stroke: #582f93"/>
    </defs>
    <g clip-path="url(#p94871f6dcd)">
     <use xlink:href="#m6c5f02f308" x="65.09" y="33.885287" style="fill: #582f93; stroke: #582f93"/>
     <use xlink:href="#m6c5f02f308" x="137.39" y="72.414133" style="fill: #582f93; stroke: #582f93"/>
     <use xlink:href="#m6c5f02f308" x="209.69" y="90.351122" style="fill: #582f93; stroke: #582f93"/>
     <use xlink:href="#m6c5f02f308" x="281.99" y="177.627273" style="fill: #582f93; stroke: #582f93"/>
    </g>
   </g>
   <g id="line2d_20">
    <path d="M 65.09 33.885287 
L 137.39 42.739876 
L 209.69 50.204966 
L 281.99 51.985983 
" clip-path="url(#p94871f6dcd)" style="fill: none; stroke: #98d594; stroke-width: 1.5; stroke-linecap: square"/>
    <defs>
     <path id="m680bb3aad9" d="M 0 1.5 
C 0.397805 1.5 0.77937 1.341951 1.06066 1.06066 
C 1.341951 0.77937 1.5 0.397805 1.5 0 
C 1.5 -0.397805 1.341951 -0.77937 1.06066 -1.06066 
C 0.77937 -1.341951 0.397805 -1.5 0 -1.5 
C -0.397805 -1.5 -0.77937 -1.341951 -1.06066 -1.06066 
C -1.341951 -0.77937 -1.5 -0.397805 -1.5 0 
C -1.5 0.397805 -1.341951 0.77937 -1.06066 1.06066 
C -0.77937 1.341951 -0.397805 1.5 0 1.5 
z
" style="stroke: #98d594"/>
    </defs>
    <g clip-path="url(#p94871f6dcd)">
     <use xlink:href="#m680bb3aad9" x="65.09" y="33.885287" style="fill: #98d594; stroke: #98d594"/>
     <use xlink:href="#m680bb3aad9" x="137.39" y="42.739876" style="fill: #98d594; stroke: #98d594"/>
     <use xlink:href="#m680bb3aad9" x="209.69" y="50.204966" style="fill: #98d594; stroke: #98d594"/>
     <use xlink:href="#m680bb3aad9" x="281.99" y="51.985983" style="fill: #98d594; stroke: #98d594"/>
    </g>
   </g>
   <g id="line2d_21">
    <path d="M 65.09 33.885287 
L 137.39 46.335071 
L 209.69 46.494267 
L 281.99 58.471968 
" clip-path="url(#p94871f6dcd)" style="fill: none; stroke: #40aa5d; stroke-width: 1.5; stroke-linecap: square"/>
    <defs>
     <path id="m32e3b0430a" d="M 0 1.5 
C 0.397805 1.5 0.77937 1.341951 1.06066 1.06066 
C 1.341951 0.77937 1.5 0.397805 1.5 0 
C 1.5 -0.397805 1.341951 -0.77937 1.06066 -1.06066 
C 0.77937 -1.341951 0.397805 -1.5 0 -1.5 
C -0.397805 -1.5 -0.77937 -1.341951 -1.06066 -1.06066 
C -1.341951 -0.77937 -1.5 -0.397805 -1.5 0 
C -1.5 0.397805 -1.341951 0.77937 -1.06066 1.06066 
C -0.77937 1.341951 -0.397805 1.5 0 1.5 
z
" style="stroke: #40aa5d"/>
    </defs>
    <g clip-path="url(#p94871f6dcd)">
     <use xlink:href="#m32e3b0430a" x="65.09" y="33.885287" style="fill: #40aa5d; stroke: #40aa5d"/>
     <use xlink:href="#m32e3b0430a" x="137.39" y="46.335071" style="fill: #40aa5d; stroke: #40aa5d"/>
     <use xlink:href="#m32e3b0430a" x="209.69" y="46.494267" style="fill: #40aa5d; stroke: #40aa5d"/>
     <use xlink:href="#m32e3b0430a" x="281.99" y="58.471968" style="fill: #40aa5d; stroke: #40aa5d"/>
    </g>
   </g>
   <g id="line2d_22">
    <path d="M 65.09 33.885287 
L 137.39 45.322298 
L 209.69 52.312907 
L 281.99 76.553084 
" clip-path="url(#p94871f6dcd)" style="fill: none; stroke: #077331; stroke-width: 1.5; stroke-linecap: square"/>
    <defs>
     <path id="m2ae5a9cec9" d="M 0 1.5 
C 0.397805 1.5 0.77937 1.341951 1.06066 1.06066 
C 1.341951 0.77937 1.5 0.397805 1.5 0 
C 1.5 -0.397805 1.341951 -0.77937 1.06066 -1.06066 
C 0.77937 -1.341951 0.397805 -1.5 0 -1.5 
C -0.397805 -1.5 -0.77937 -1.341951 -1.06066 -1.06066 
C -1.341951 -0.77937 -1.5 -0.397805 -1.5 0 
C -1.5 0.397805 -1.341951 0.77937 -1.06066 1.06066 
C -0.77937 1.341951 -0.397805 1.5 0 1.5 
z
" style="stroke: #077331"/>
    </defs>
    <g clip-path="url(#p94871f6dcd)">
     <use xlink:href="#m2ae5a9cec9" x="65.09" y="33.885287" style="fill: #077331; stroke: #077331"/>
     <use xlink:href="#m2ae5a9cec9" x="137.39" y="45.322298" style="fill: #077331; stroke: #077331"/>
     <use xlink:href="#m2ae5a9cec9" x="209.69" y="52.312907" style="fill: #077331; stroke: #077331"/>
     <use xlink:href="#m2ae5a9cec9" x="281.99" y="76.553084" style="fill: #077331; stroke: #077331"/>
    </g>
   </g>
   <g id="patch_3">
    <path d="M 54.245 184.84 
L 54.245 26.16 
" style="fill: none; stroke: #000000; stroke-width: 0.8; stroke-linejoin: miter; stroke-linecap: square"/>
   </g>
   <g id="patch_4">
    <path d="M 292.835 184.84 
L 292.835 26.16 
" style="fill: none; stroke: #000000; stroke-width: 0.8; stroke-linejoin: miter; stroke-linecap: square"/>
   </g>
   <g id="patch_5">
    <path d="M 54.245 184.84 
L 292.835 184.84 
" style="fill: none; stroke: #000000; stroke-width: 0.8; stroke-linejoin: miter; stroke-linecap: square"/>
   </g>
   <g id="patch_6">
    <path d="M 54.245 26.16 
L 292.835 26.16 
" style="fill: none; stroke: #000000; stroke-width: 0.8; stroke-linejoin: miter; stroke-linecap: square"/>
   </g>
   <g id="text_11">
    <!-- Training Efficiency -->
    <g transform="translate(118.969062 20.16) scale(0.12 -0.12)">
     <defs>
      <path id="DejaVuSans-54" d="M -19 4666 
L 3928 4666 
L 3928 4134 
L 2272 4134 
L 2272 0 
L 1638 0 
L 1638 4134 
L -19 4134 
L -19 4666 
z
" transform="scale(0.015625)"/>
      <path id="DejaVuSans-72" d="M 2631 2963 
Q 2534 3019 2420 3045 
Q 2306 3072 2169 3072 
Q 1681 3072 1420 2755 
Q 1159 2438 1159 1844 
L 1159 0 
L 581 0 
L 581 3500 
L 1159 3500 
L 1159 2956 
Q 1341 3275 1631 3429 
Q 1922 3584 2338 3584 
Q 2397 3584 2469 3576 
Q 2541 3569 2628 3553 
L 2631 2963 
z
" transform="scale(0.015625)"/>
      <path id="DejaVuSans-61" d="M 2194 1759 
Q 1497 1759 1228 1600 
Q 959 1441 959 1056 
Q 959 750 1161 570 
Q 1363 391 1709 391 
Q 2188 391 2477 730 
Q 2766 1069 2766 1631 
L 2766 1759 
L 2194 1759 
z
M 3341 1997 
L 3341 0 
L 2766 0 
L 2766 531 
Q 2569 213 2275 61 
Q 1981 -91 1556 -91 
Q 1019 -91 701 211 
Q 384 513 384 1019 
Q 384 1609 779 1909 
Q 1175 2209 1959 2209 
L 2766 2209 
L 2766 2266 
Q 2766 2663 2505 2880 
Q 2244 3097 1772 3097 
Q 1472 3097 1187 3025 
Q 903 2953 641 2809 
L 641 3341 
Q 956 3463 1253 3523 
Q 1550 3584 1831 3584 
Q 2591 3584 2966 3190 
Q 3341 2797 3341 1997 
z
" transform="scale(0.015625)"/>
      <path id="DejaVuSans-67" d="M 2906 1791 
Q 2906 2416 2648 2759 
Q 2391 3103 1925 3103 
Q 1463 3103 1205 2759 
Q 947 2416 947 1791 
Q 947 1169 1205 825 
Q 1463 481 1925 481 
Q 2391 481 2648 825 
Q 2906 1169 2906 1791 
z
M 3481 434 
Q 3481 -459 3084 -895 
Q 2688 -1331 1869 -1331 
Q 1566 -1331 1297 -1286 
Q 1028 -1241 775 -1147 
L 775 -588 
Q 1028 -725 1275 -790 
Q 1522 -856 1778 -856 
Q 2344 -856 2625 -561 
Q 2906 -266 2906 331 
L 2906 616 
Q 2728 306 2450 153 
Q 2172 0 1784 0 
Q 1141 0 747 490 
Q 353 981 353 1791 
Q 353 2603 747 3093 
Q 1141 3584 1784 3584 
Q 2172 3584 2450 3431 
Q 2728 3278 2906 2969 
L 2906 3500 
L 3481 3500 
L 3481 434 
z
" transform="scale(0.015625)"/>
      <path id="DejaVuSans-20" transform="scale(0.015625)"/>
     </defs>
     <use xlink:href="#DejaVuSans-54"/>
     <use xlink:href="#DejaVuSans-72" transform="translate(46.333984 0)"/>
     <use xlink:href="#DejaVuSans-61" transform="translate(87.447266 0)"/>
     <use xlink:href="#DejaVuSans-69" transform="translate(148.726562 0)"/>
     <use xlink:href="#DejaVuSans-6e" transform="translate(176.509766 0)"/>
     <use xlink:href="#DejaVuSans-69" transform="translate(239.888672 0)"/>
     <use xlink:href="#DejaVuSans-6e" transform="translate(267.671875 0)"/>
     <use xlink:href="#DejaVuSans-67" transform="translate(331.050781 0)"/>
     <use xlink:href="#DejaVuSans-20" transform="translate(394.527344 0)"/>
     <use xlink:href="#DejaVuSans-45" transform="translate(426.314453 0)"/>
     <use xlink:href="#DejaVuSans-66" transform="translate(489.498047 0)"/>
     <use xlink:href="#DejaVuSans-66" transform="translate(524.703125 0)"/>
     <use xlink:href="#DejaVuSans-69" transform="translate(559.908203 0)"/>
     <use xlink:href="#DejaVuSans-63" transform="translate(587.691406 0)"/>
     <use xlink:href="#DejaVuSans-69" transform="translate(642.671875 0)"/>
     <use xlink:href="#DejaVuSans-65" transform="translate(670.455078 0)"/>
     <use xlink:href="#DejaVuSans-6e" transform="translate(731.978516 0)"/>
     <use xlink:href="#DejaVuSans-63" transform="translate(795.357422 0)"/>
     <use xlink:href="#DejaVuSans-79" transform="translate(850.337891 0)"/>
    </g>
   </g>
  </g>
  <g id="axes_2">
   <g id="patch_7">
    <path d="M 326.61 184.84 
L 565.2 184.84 
L 565.2 26.16 
L 326.61 26.16 
z
" style="fill: #ffffff"/>
   </g>
   <g id="matplotlib.axis_3">
    <g id="xtick_5">
     <g id="line2d_23">
      <path d="M 337.455 184.84 
L 337.455 26.16 
" clip-path="url(#p1dd6a90c6c)" style="fill: none; stroke: #b0b0b0; stroke-width: 0.8; stroke-linecap: square"/>
     </g>
     <g id="line2d_24">
      <g>
       <use xlink:href="#m2890e28c4c" x="337.455" y="184.84" style="stroke: #000000; stroke-width: 0.8"/>
      </g>
     </g>
     <g id="text_12">
      <!-- 1 -->
      <g transform="translate(334.27375 199.438437) scale(0.1 -0.1)">
       <use xlink:href="#DejaVuSans-31"/>
      </g>
     </g>
    </g>
    <g id="xtick_6">
     <g id="line2d_25">
      <path d="M 409.755 184.84 
L 409.755 26.16 
" clip-path="url(#p1dd6a90c6c)" style="fill: none; stroke: #b0b0b0; stroke-width: 0.8; stroke-linecap: square"/>
     </g>
     <g id="line2d_26">
      <g>
       <use xlink:href="#m2890e28c4c" x="409.755" y="184.84" style="stroke: #000000; stroke-width: 0.8"/>
      </g>
     </g>
     <g id="text_13">
      <!-- 2 -->
      <g transform="translate(406.57375 199.438437) scale(0.1 -0.1)">
       <use xlink:href="#DejaVuSans-32"/>
      </g>
     </g>
    </g>
    <g id="xtick_7">
     <g id="line2d_27">
      <path d="M 482.055 184.84 
L 482.055 26.16 
" clip-path="url(#p1dd6a90c6c)" style="fill: none; stroke: #b0b0b0; stroke-width: 0.8; stroke-linecap: square"/>
     </g>
     <g id="line2d_28">
      <g>
       <use xlink:href="#m2890e28c4c" x="482.055" y="184.84" style="stroke: #000000; stroke-width: 0.8"/>
      </g>
     </g>
     <g id="text_14">
      <!-- 4 -->
      <g transform="translate(478.87375 199.438437) scale(0.1 -0.1)">
       <use xlink:href="#DejaVuSans-34"/>
      </g>
     </g>
    </g>
    <g id="xtick_8">
     <g id="line2d_29">
      <path d="M 554.355 184.84 
L 554.355 26.16 
" clip-path="url(#p1dd6a90c6c)" style="fill: none; stroke: #b0b0b0; stroke-width: 0.8; stroke-linecap: square"/>
     </g>
     <g id="line2d_30">
      <g>
       <use xlink:href="#m2890e28c4c" x="554.355" y="184.84" style="stroke: #000000; stroke-width: 0.8"/>
      </g>
     </g>
     <g id="text_15">
      <!-- 8 -->
      <g transform="translate(551.17375 199.438437) scale(0.1 -0.1)">
       <use xlink:href="#DejaVuSans-38"/>
      </g>
     </g>
    </g>
    <g id="text_16">
     <!-- Nodes -->
     <g transform="translate(430.249531 213.116562) scale(0.1 -0.1)">
      <use xlink:href="#DejaVuSans-4e"/>
      <use xlink:href="#DejaVuSans-6f" transform="translate(74.804688 0)"/>
      <use xlink:href="#DejaVuSans-64" transform="translate(135.986328 0)"/>
      <use xlink:href="#DejaVuSans-65" transform="translate(199.462891 0)"/>
      <use xlink:href="#DejaVuSans-73" transform="translate(260.986328 0)"/>
     </g>
    </g>
   </g>
   <g id="matplotlib.axis_4">
    <g id="ytick_5">
     <g id="line2d_31">
      <path d="M 326.61 183.489747 
L 565.2 183.489747 
" clip-path="url(#p1dd6a90c6c)" style="fill: none; stroke: #b0b0b0; stroke-width: 0.8; stroke-linecap: square"/>
     </g>
     <g id="line2d_32">
      <g>
       <use xlink:href="#m3e5be6696d" x="326.61" y="183.489747" style="stroke: #000000; stroke-width: 0.8"/>
      </g>
     </g>
     <g id="text_17">
      <!-- 0.0 -->
      <g transform="translate(303.706875 187.288966) scale(0.1 -0.1)">
       <use xlink:href="#DejaVuSans-30"/>
       <use xlink:href="#DejaVuSans-2e" transform="translate(63.623047 0)"/>
       <use xlink:href="#DejaVuSans-30" transform="translate(95.410156 0)"/>
      </g>
     </g>
    </g>
    <g id="ytick_6">
     <g id="line2d_33">
      <path d="M 326.61 153.466343 
L 565.2 153.466343 
" clip-path="url(#p1dd6a90c6c)" style="fill: none; stroke: #b0b0b0; stroke-width: 0.8; stroke-linecap: square"/>
     </g>
     <g id="line2d_34">
      <g>
       <use xlink:href="#m3e5be6696d" x="326.61" y="153.466343" style="stroke: #000000; stroke-width: 0.8"/>
      </g>
     </g>
     <g id="text_18">
      <!-- 0.2 -->
      <g transform="translate(303.706875 157.265562) scale(0.1 -0.1)">
       <use xlink:href="#DejaVuSans-30"/>
       <use xlink:href="#DejaVuSans-2e" transform="translate(63.623047 0)"/>
       <use xlink:href="#DejaVuSans-32" transform="translate(95.410156 0)"/>
      </g>
     </g>
    </g>
    <g id="ytick_7">
     <g id="line2d_35">
      <path d="M 326.61 123.442939 
L 565.2 123.442939 
" clip-path="url(#p1dd6a90c6c)" style="fill: none; stroke: #b0b0b0; stroke-width: 0.8; stroke-linecap: square"/>
     </g>
     <g id="line2d_36">
      <g>
       <use xlink:href="#m3e5be6696d" x="326.61" y="123.442939" style="stroke: #000000; stroke-width: 0.8"/>
      </g>
     </g>
     <g id="text_19">
      <!-- 0.4 -->
      <g transform="translate(303.706875 127.242158) scale(0.1 -0.1)">
       <use xlink:href="#DejaVuSans-30"/>
       <use xlink:href="#DejaVuSans-2e" transform="translate(63.623047 0)"/>
       <use xlink:href="#DejaVuSans-34" transform="translate(95.410156 0)"/>
      </g>
     </g>
    </g>
    <g id="ytick_8">
     <g id="line2d_37">
      <path d="M 326.61 93.419535 
L 565.2 93.419535 
" clip-path="url(#p1dd6a90c6c)" style="fill: none; stroke: #b0b0b0; stroke-width: 0.8; stroke-linecap: square"/>
     </g>
     <g id="line2d_38">
      <g>
       <use xlink:href="#m3e5be6696d" x="326.61" y="93.419535" style="stroke: #000000; stroke-width: 0.8"/>
      </g>
     </g>
     <g id="text_20">
      <!-- 0.6 -->
      <g transform="translate(303.706875 97.218754) scale(0.1 -0.1)">
       <use xlink:href="#DejaVuSans-30"/>
       <use xlink:href="#DejaVuSans-2e" transform="translate(63.623047 0)"/>
       <use xlink:href="#DejaVuSans-36" transform="translate(95.410156 0)"/>
      </g>
     </g>
    </g>
    <g id="ytick_9">
     <g id="line2d_39">
      <path d="M 326.61 63.396131 
L 565.2 63.396131 
" clip-path="url(#p1dd6a90c6c)" style="fill: none; stroke: #b0b0b0; stroke-width: 0.8; stroke-linecap: square"/>
     </g>
     <g id="line2d_40">
      <g>
       <use xlink:href="#m3e5be6696d" x="326.61" y="63.396131" style="stroke: #000000; stroke-width: 0.8"/>
      </g>
     </g>
     <g id="text_21">
      <!-- 0.8 -->
      <g transform="translate(303.706875 67.19535) scale(0.1 -0.1)">
       <use xlink:href="#DejaVuSans-30"/>
       <use xlink:href="#DejaVuSans-2e" transform="translate(63.623047 0)"/>
       <use xlink:href="#DejaVuSans-38" transform="translate(95.410156 0)"/>
      </g>
     </g>
    </g>
    <g id="ytick_10">
     <g id="line2d_41">
      <path d="M 326.61 33.372727 
L 565.2 33.372727 
" clip-path="url(#p1dd6a90c6c)" style="fill: none; stroke: #b0b0b0; stroke-width: 0.8; stroke-linecap: square"/>
     </g>
     <g id="line2d_42">
      <g>
       <use xlink:href="#m3e5be6696d" x="326.61" y="33.372727" style="stroke: #000000; stroke-width: 0.8"/>
      </g>
     </g>
     <g id="text_22">
      <!-- 1.0 -->
      <g transform="translate(303.706875 37.171946) scale(0.1 -0.1)">
       <use xlink:href="#DejaVuSans-31"/>
       <use xlink:href="#DejaVuSans-2e" transform="translate(63.623047 0)"/>
       <use xlink:href="#DejaVuSans-30" transform="translate(95.410156 0)"/>
      </g>
     </g>
    </g>
   </g>
   <g id="line2d_43">
    <path d="M 337.455 33.372727 
L 409.755 137.636143 
L 482.055 152.061354 
L 554.355 169.310708 
" clip-path="url(#p1dd6a90c6c)" style="fill: none; stroke: #b6b6d8; stroke-width: 1.5; stroke-linecap: square"/>
    <g clip-path="url(#p1dd6a90c6c)">
     <use xlink:href="#m749b87a0ae" x="337.455" y="33.372727" style="fill: #b6b6d8; stroke: #b6b6d8"/>
     <use xlink:href="#m749b87a0ae" x="409.755" y="137.636143" style="fill: #b6b6d8; stroke: #b6b6d8"/>
     <use xlink:href="#m749b87a0ae" x="482.055" y="152.061354" style="fill: #b6b6d8; stroke: #b6b6d8"/>
     <use xlink:href="#m749b87a0ae" x="554.355" y="169.310708" style="fill: #b6b6d8; stroke: #b6b6d8"/>
    </g>
   </g>
   <g id="line2d_44">
    <path d="M 337.455 33.372727 
L 409.755 162.166973 
L 482.055 171.165508 
L 554.355 171.942332 
" clip-path="url(#p1dd6a90c6c)" style="fill: none; stroke: #807cba; stroke-width: 1.5; stroke-linecap: square"/>
    <g clip-path="url(#p1dd6a90c6c)">
     <use xlink:href="#mdb15df508e" x="337.455" y="33.372727" style="fill: #807cba; stroke: #807cba"/>
     <use xlink:href="#mdb15df508e" x="409.755" y="162.166973" style="fill: #807cba; stroke: #807cba"/>
     <use xlink:href="#mdb15df508e" x="482.055" y="171.165508" style="fill: #807cba; stroke: #807cba"/>
     <use xlink:href="#mdb15df508e" x="554.355" y="171.942332" style="fill: #807cba; stroke: #807cba"/>
    </g>
   </g>
   <g id="line2d_45">
    <path d="M 337.455 33.372727 
L 409.755 154.920742 
L 482.055 172.266955 
L 554.355 177.627273 
" clip-path="url(#p1dd6a90c6c)" style="fill: none; stroke: #582f93; stroke-width: 1.5; stroke-linecap: square"/>
    <g clip-path="url(#p1dd6a90c6c)">
     <use xlink:href="#m6c5f02f308" x="337.455" y="33.372727" style="fill: #582f93; stroke: #582f93"/>
     <use xlink:href="#m6c5f02f308" x="409.755" y="154.920742" style="fill: #582f93; stroke: #582f93"/>
     <use xlink:href="#m6c5f02f308" x="482.055" y="172.266955" style="fill: #582f93; stroke: #582f93"/>
     <use xlink:href="#m6c5f02f308" x="554.355" y="177.627273" style="fill: #582f93; stroke: #582f93"/>
    </g>
   </g>
   <g id="line2d_46">
    <path d="M 337.455 33.372727 
L 409.755 132.346535 
L 482.055 155.252774 
L 554.355 154.310447 
" clip-path="url(#p1dd6a90c6c)" style="fill: none; stroke: #98d594; stroke-width: 1.5; stroke-linecap: square"/>
    <g clip-path="url(#p1dd6a90c6c)">
     <use xlink:href="#m680bb3aad9" x="337.455" y="33.372727" style="fill: #98d594; stroke: #98d594"/>
     <use xlink:href="#m680bb3aad9" x="409.755" y="132.346535" style="fill: #98d594; stroke: #98d594"/>
     <use xlink:href="#m680bb3aad9" x="482.055" y="155.252774" style="fill: #98d594; stroke: #98d594"/>
     <use xlink:href="#m680bb3aad9" x="554.355" y="154.310447" style="fill: #98d594; stroke: #98d594"/>
    </g>
   </g>
   <g id="line2d_47">
    <path d="M 337.455 33.372727 
L 409.755 97.588101 
L 482.055 145.65303 
L 554.355 164.58503 
" clip-path="url(#p1dd6a90c6c)" style="fill: none; stroke: #40aa5d; stroke-width: 1.5; stroke-linecap: square"/>
    <g clip-path="url(#p1dd6a90c6c)">
     <use xlink:href="#m32e3b0430a" x="337.455" y="33.372727" style="fill: #40aa5d; stroke: #40aa5d"/>
     <use xlink:href="#m32e3b0430a" x="409.755" y="97.588101" style="fill: #40aa5d; stroke: #40aa5d"/>
     <use xlink:href="#m32e3b0430a" x="482.055" y="145.65303" style="fill: #40aa5d; stroke: #40aa5d"/>
     <use xlink:href="#m32e3b0430a" x="554.355" y="164.58503" style="fill: #40aa5d; stroke: #40aa5d"/>
    </g>
   </g>
   <g id="line2d_48">
    <path d="M 337.455 33.372727 
L 409.755 153.685478 
L 482.055 148.07665 
L 554.355 163.228652 
" clip-path="url(#p1dd6a90c6c)" style="fill: none; stroke: #077331; stroke-width: 1.5; stroke-linecap: square"/>
    <g clip-path="url(#p1dd6a90c6c)">
     <use xlink:href="#m2ae5a9cec9" x="337.455" y="33.372727" style="fill: #077331; stroke: #077331"/>
     <use xlink:href="#m2ae5a9cec9" x="409.755" y="153.685478" style="fill: #077331; stroke: #077331"/>
     <use xlink:href="#m2ae5a9cec9" x="482.055" y="148.07665" style="fill: #077331; stroke: #077331"/>
     <use xlink:href="#m2ae5a9cec9" x="554.355" y="163.228652" style="fill: #077331; stroke: #077331"/>
    </g>
   </g>
   <g id="patch_8">
    <path d="M 326.61 184.84 
L 326.61 26.16 
" style="fill: none; stroke: #000000; stroke-width: 0.8; stroke-linejoin: miter; stroke-linecap: square"/>
   </g>
   <g id="patch_9">
    <path d="M 565.2 184.84 
L 565.2 26.16 
" style="fill: none; stroke: #000000; stroke-width: 0.8; stroke-linejoin: miter; stroke-linecap: square"/>
   </g>
   <g id="patch_10">
    <path d="M 326.61 184.84 
L 565.2 184.84 
" style="fill: none; stroke: #000000; stroke-width: 0.8; stroke-linejoin: miter; stroke-linecap: square"/>
   </g>
   <g id="patch_11">
    <path d="M 326.61 26.16 
L 565.2 26.16 
" style="fill: none; stroke: #000000; stroke-width: 0.8; stroke-linejoin: miter; stroke-linecap: square"/>
   </g>
   <g id="text_23">
    <!-- Prediction Efficiency -->
    <g transform="translate(385.200937 20.16) scale(0.12 -0.12)">
     <defs>
      <path id="DejaVuSans-50" d="M 1259 4147 
L 1259 2394 
L 2053 2394 
Q 2494 2394 2734 2622 
Q 2975 2850 2975 3272 
Q 2975 3691 2734 3919 
Q 2494 4147 2053 4147 
L 1259 4147 
z
M 628 4666 
L 2053 4666 
Q 2838 4666 3239 4311 
Q 3641 3956 3641 3272 
Q 3641 2581 3239 2228 
Q 2838 1875 2053 1875 
L 1259 1875 
L 1259 0 
L 628 0 
L 628 4666 
z
" transform="scale(0.015625)"/>
      <path id="DejaVuSans-74" d="M 1172 4494 
L 1172 3500 
L 2356 3500 
L 2356 3053 
L 1172 3053 
L 1172 1153 
Q 1172 725 1289 603 
Q 1406 481 1766 481 
L 2356 481 
L 2356 0 
L 1766 0 
Q 1100 0 847 248 
Q 594 497 594 1153 
L 594 3053 
L 172 3053 
L 172 3500 
L 594 3500 
L 594 4494 
L 1172 4494 
z
" transform="scale(0.015625)"/>
     </defs>
     <use xlink:href="#DejaVuSans-50"/>
     <use xlink:href="#DejaVuSans-72" transform="translate(58.552734 0)"/>
     <use xlink:href="#DejaVuSans-65" transform="translate(97.416016 0)"/>
     <use xlink:href="#DejaVuSans-64" transform="translate(158.939453 0)"/>
     <use xlink:href="#DejaVuSans-69" transform="translate(222.416016 0)"/>
     <use xlink:href="#DejaVuSans-63" transform="translate(250.199219 0)"/>
     <use xlink:href="#DejaVuSans-74" transform="translate(305.179688 0)"/>
     <use xlink:href="#DejaVuSans-69" transform="translate(344.388672 0)"/>
     <use xlink:href="#DejaVuSans-6f" transform="translate(372.171875 0)"/>
     <use xlink:href="#DejaVuSans-6e" transform="translate(433.353516 0)"/>
     <use xlink:href="#DejaVuSans-20" transform="translate(496.732422 0)"/>
     <use xlink:href="#DejaVuSans-45" transform="translate(528.519531 0)"/>
     <use xlink:href="#DejaVuSans-66" transform="translate(591.703125 0)"/>
     <use xlink:href="#DejaVuSans-66" transform="translate(626.908203 0)"/>
     <use xlink:href="#DejaVuSans-69" transform="translate(662.113281 0)"/>
     <use xlink:href="#DejaVuSans-63" transform="translate(689.896484 0)"/>
     <use xlink:href="#DejaVuSans-69" transform="translate(744.876953 0)"/>
     <use xlink:href="#DejaVuSans-65" transform="translate(772.660156 0)"/>
     <use xlink:href="#DejaVuSans-6e" transform="translate(834.183594 0)"/>
     <use xlink:href="#DejaVuSans-63" transform="translate(897.5625 0)"/>
     <use xlink:href="#DejaVuSans-79" transform="translate(952.542969 0)"/>
    </g>
   </g>
  </g>
  <g id="legend_1">
   <g id="line2d_49">
    <path d="M 53.229688 222.742188 
L 63.229688 222.742188 
L 73.229688 222.742188 
" style="fill: none; stroke: #b6b6d8; stroke-width: 1.5; stroke-linecap: square"/>
    <g>
     <use xlink:href="#m749b87a0ae" x="63.229688" y="222.742188" style="fill: #b6b6d8; stroke: #b6b6d8"/>
    </g>
   </g>
   <g id="text_24">
    <!-- SUSY 20k – 8 threads -->
    <g transform="translate(81.229688 226.242188) scale(0.1 -0.1)">
     <defs>
      <path id="DejaVuSans-53" d="M 3425 4513 
L 3425 3897 
Q 3066 4069 2747 4153 
Q 2428 4238 2131 4238 
Q 1616 4238 1336 4038 
Q 1056 3838 1056 3469 
Q 1056 3159 1242 3001 
Q 1428 2844 1947 2747 
L 2328 2669 
Q 3034 2534 3370 2195 
Q 3706 1856 3706 1288 
Q 3706 609 3251 259 
Q 2797 -91 1919 -91 
Q 1588 -91 1214 -16 
Q 841 59 441 206 
L 441 856 
Q 825 641 1194 531 
Q 1563 422 1919 422 
Q 2459 422 2753 634 
Q 3047 847 3047 1241 
Q 3047 1584 2836 1778 
Q 2625 1972 2144 2069 
L 1759 2144 
Q 1053 2284 737 2584 
Q 422 2884 422 3419 
Q 422 4038 858 4394 
Q 1294 4750 2059 4750 
Q 2388 4750 2728 4690 
Q 3069 4631 3425 4513 
z
" transform="scale(0.015625)"/>
      <path id="DejaVuSans-55" d="M 556 4666 
L 1191 4666 
L 1191 1831 
Q 1191 1081 1462 751 
Q 1734 422 2344 422 
Q 2950 422 3222 751 
Q 3494 1081 3494 1831 
L 3494 4666 
L 4128 4666 
L 4128 1753 
Q 4128 841 3676 375 
Q 3225 -91 2344 -91 
Q 1459 -91 1007 375 
Q 556 841 556 1753 
L 556 4666 
z
" transform="scale(0.015625)"/>
      <path id="DejaVuSans-59" d="M -13 4666 
L 666 4666 
L 1959 2747 
L 3244 4666 
L 3922 4666 
L 2272 2222 
L 2272 0 
L 1638 0 
L 1638 2222 
L -13 4666 
z
" transform="scale(0.015625)"/>
      <path id="DejaVuSans-6b" d="M 581 4863 
L 1159 4863 
L 1159 1991 
L 2875 3500 
L 3609 3500 
L 1753 1863 
L 3688 0 
L 2938 0 
L 1159 1709 
L 1159 0 
L 581 0 
L 581 4863 
z
" transform="scale(0.015625)"/>
      <path id="DejaVuSans-2013" d="M 313 1978 
L 2888 1978 
L 2888 1528 
L 313 1528 
L 313 1978 
z
" transform="scale(0.015625)"/>
      <path id="DejaVuSans-68" d="M 3513 2113 
L 3513 0 
L 2938 0 
L 2938 2094 
Q 2938 2591 2744 2837 
Q 2550 3084 2163 3084 
Q 1697 3084 1428 2787 
Q 1159 2491 1159 1978 
L 1159 0 
L 581 0 
L 581 4863 
L 1159 4863 
L 1159 2956 
Q 1366 3272 1645 3428 
Q 1925 3584 2291 3584 
Q 2894 3584 3203 3211 
Q 3513 2838 3513 2113 
z
" transform="scale(0.015625)"/>
     </defs>
     <use xlink:href="#DejaVuSans-53"/>
     <use xlink:href="#DejaVuSans-55" transform="translate(63.476562 0)"/>
     <use xlink:href="#DejaVuSans-53" transform="translate(136.669922 0)"/>
     <use xlink:href="#DejaVuSans-59" transform="translate(200.146484 0)"/>
     <use xlink:href="#DejaVuSans-20" transform="translate(261.230469 0)"/>
     <use xlink:href="#DejaVuSans-32" transform="translate(293.017578 0)"/>
     <use xlink:href="#DejaVuSans-30" transform="translate(356.640625 0)"/>
     <use xlink:href="#DejaVuSans-6b" transform="translate(420.263672 0)"/>
     <use xlink:href="#DejaVuSans-20" transform="translate(478.173828 0)"/>
     <use xlink:href="#DejaVuSans-2013" transform="translate(509.960938 0)"/>
     <use xlink:href="#DejaVuSans-20" transform="translate(559.960938 0)"/>
     <use xlink:href="#DejaVuSans-38" transform="translate(591.748047 0)"/>
     <use xlink:href="#DejaVuSans-20" transform="translate(655.371094 0)"/>
     <use xlink:href="#DejaVuSans-74" transform="translate(687.158203 0)"/>
     <use xlink:href="#DejaVuSans-68" transform="translate(726.367188 0)"/>
     <use xlink:href="#DejaVuSans-72" transform="translate(789.746094 0)"/>
     <use xlink:href="#DejaVuSans-65" transform="translate(828.609375 0)"/>
     <use xlink:href="#DejaVuSans-61" transform="translate(890.132812 0)"/>
     <use xlink:href="#DejaVuSans-64" transform="translate(951.412109 0)"/>
     <use xlink:href="#DejaVuSans-73" transform="translate(1014.888672 0)"/>
    </g>
   </g>
   <g id="line2d_50">
    <path d="M 53.229688 237.420312 
L 63.229688 237.420312 
L 73.229688 237.420312 
" style="fill: none; stroke: #807cba; stroke-width: 1.5; stroke-linecap: square"/>
    <g>
     <use xlink:href="#mdb15df508e" x="63.229688" y="237.420312" style="fill: #807cba; stroke: #807cba"/>
    </g>
   </g>
   <g id="text_25">
    <!-- SUSY 20k – 16 threads -->
    <g transform="translate(81.229688 240.920312) scale(0.1 -0.1)">
     <use xlink:href="#DejaVuSans-53"/>
     <use xlink:href="#DejaVuSans-55" transform="translate(63.476562 0)"/>
     <use xlink:href="#DejaVuSans-53" transform="translate(136.669922 0)"/>
     <use xlink:href="#DejaVuSans-59" transform="translate(200.146484 0)"/>
     <use xlink:href="#DejaVuSans-20" transform="translate(261.230469 0)"/>
     <use xlink:href="#DejaVuSans-32" transform="translate(293.017578 0)"/>
     <use xlink:href="#DejaVuSans-30" transform="translate(356.640625 0)"/>
     <use xlink:href="#DejaVuSans-6b" transform="translate(420.263672 0)"/>
     <use xlink:href="#DejaVuSans-20" transform="translate(478.173828 0)"/>
     <use xlink:href="#DejaVuSans-2013" transform="translate(509.960938 0)"/>
     <use xlink:href="#DejaVuSans-20" transform="translate(559.960938 0)"/>
     <use xlink:href="#DejaVuSans-31" transform="translate(591.748047 0)"/>
     <use xlink:href="#DejaVuSans-36" transform="translate(655.371094 0)"/>
     <use xlink:href="#DejaVuSans-20" transform="translate(718.994141 0)"/>
     <use xlink:href="#DejaVuSans-74" transform="translate(750.78125 0)"/>
     <use xlink:href="#DejaVuSans-68" transform="translate(789.990234 0)"/>
     <use xlink:href="#DejaVuSans-72" transform="translate(853.369141 0)"/>
     <use xlink:href="#DejaVuSans-65" transform="translate(892.232422 0)"/>
     <use xlink:href="#DejaVuSans-61" transform="translate(953.755859 0)"/>
     <use xlink:href="#DejaVuSans-64" transform="translate(1015.035156 0)"/>
     <use xlink:href="#DejaVuSans-73" transform="translate(1078.511719 0)"/>
    </g>
   </g>
   <g id="line2d_51">
    <path d="M 214.289062 222.742188 
L 224.289062 222.742188 
L 234.289062 222.742188 
" style="fill: none; stroke: #582f93; stroke-width: 1.5; stroke-linecap: square"/>
    <g>
     <use xlink:href="#m6c5f02f308" x="224.289062" y="222.742188" style="fill: #582f93; stroke: #582f93"/>
    </g>
   </g>
   <g id="text_26">
    <!-- SUSY 20k – 32 threads -->
    <g transform="translate(242.289062 226.242188) scale(0.1 -0.1)">
     <defs>
      <path id="DejaVuSans-33" d="M 2597 2516 
Q 3050 2419 3304 2112 
Q 3559 1806 3559 1356 
Q 3559 666 3084 287 
Q 2609 -91 1734 -91 
Q 1441 -91 1130 -33 
Q 819 25 488 141 
L 488 750 
Q 750 597 1062 519 
Q 1375 441 1716 441 
Q 2309 441 2620 675 
Q 2931 909 2931 1356 
Q 2931 1769 2642 2001 
Q 2353 2234 1838 2234 
L 1294 2234 
L 1294 2753 
L 1863 2753 
Q 2328 2753 2575 2939 
Q 2822 3125 2822 3475 
Q 2822 3834 2567 4026 
Q 2313 4219 1838 4219 
Q 1578 4219 1281 4162 
Q 984 4106 628 3988 
L 628 4550 
Q 988 4650 1302 4700 
Q 1616 4750 1894 4750 
Q 2613 4750 3031 4423 
Q 3450 4097 3450 3541 
Q 3450 3153 3228 2886 
Q 3006 2619 2597 2516 
z
" transform="scale(0.015625)"/>
     </defs>
     <use xlink:href="#DejaVuSans-53"/>
     <use xlink:href="#DejaVuSans-55" transform="translate(63.476562 0)"/>
     <use xlink:href="#DejaVuSans-53" transform="translate(136.669922 0)"/>
     <use xlink:href="#DejaVuSans-59" transform="translate(200.146484 0)"/>
     <use xlink:href="#DejaVuSans-20" transform="translate(261.230469 0)"/>
     <use xlink:href="#DejaVuSans-32" transform="translate(293.017578 0)"/>
     <use xlink:href="#DejaVuSans-30" transform="translate(356.640625 0)"/>
     <use xlink:href="#DejaVuSans-6b" transform="translate(420.263672 0)"/>
     <use xlink:href="#DejaVuSans-20" transform="translate(478.173828 0)"/>
     <use xlink:href="#DejaVuSans-2013" transform="translate(509.960938 0)"/>
     <use xlink:href="#DejaVuSans-20" transform="translate(559.960938 0)"/>
     <use xlink:href="#DejaVuSans-33" transform="translate(591.748047 0)"/>
     <use xlink:href="#DejaVuSans-32" transform="translate(655.371094 0)"/>
     <use xlink:href="#DejaVuSans-20" transform="translate(718.994141 0)"/>
     <use xlink:href="#DejaVuSans-74" transform="translate(750.78125 0)"/>
     <use xlink:href="#DejaVuSans-68" transform="translate(789.990234 0)"/>
     <use xlink:href="#DejaVuSans-72" transform="translate(853.369141 0)"/>
     <use xlink:href="#DejaVuSans-65" transform="translate(892.232422 0)"/>
     <use xlink:href="#DejaVuSans-61" transform="translate(953.755859 0)"/>
     <use xlink:href="#DejaVuSans-64" transform="translate(1015.035156 0)"/>
     <use xlink:href="#DejaVuSans-73" transform="translate(1078.511719 0)"/>
    </g>
   </g>
   <g id="line2d_52">
    <path d="M 214.289062 237.420312 
L 224.289062 237.420312 
L 234.289062 237.420312 
" style="fill: none; stroke: #98d594; stroke-width: 1.5; stroke-linecap: square"/>
    <g>
     <use xlink:href="#m680bb3aad9" x="224.289062" y="237.420312" style="fill: #98d594; stroke: #98d594"/>
    </g>
   </g>
   <g id="text_27">
    <!-- SUSY 100k – 8 threads -->
    <g transform="translate(242.289062 240.920312) scale(0.1 -0.1)">
     <use xlink:href="#DejaVuSans-53"/>
     <use xlink:href="#DejaVuSans-55" transform="translate(63.476562 0)"/>
     <use xlink:href="#DejaVuSans-53" transform="translate(136.669922 0)"/>
     <use xlink:href="#DejaVuSans-59" transform="translate(200.146484 0)"/>
     <use xlink:href="#DejaVuSans-20" transform="translate(261.230469 0)"/>
     <use xlink:href="#DejaVuSans-31" transform="translate(293.017578 0)"/>
     <use xlink:href="#DejaVuSans-30" transform="translate(356.640625 0)"/>
     <use xlink:href="#DejaVuSans-30" transform="translate(420.263672 0)"/>
     <use xlink:href="#DejaVuSans-6b" transform="translate(483.886719 0)"/>
     <use xlink:href="#DejaVuSans-20" transform="translate(541.796875 0)"/>
     <use xlink:href="#DejaVuSans-2013" transform="translate(573.583984 0)"/>
     <use xlink:href="#DejaVuSans-20" transform="translate(623.583984 0)"/>
     <use xlink:href="#DejaVuSans-38" transform="translate(655.371094 0)"/>
     <use xlink:href="#DejaVuSans-20" transform="translate(718.994141 0)"/>
     <use xlink:href="#DejaVuSans-74" transform="translate(750.78125 0)"/>
     <use xlink:href="#DejaVuSans-68" transform="translate(789.990234 0)"/>
     <use xlink:href="#DejaVuSans-72" transform="translate(853.369141 0)"/>
     <use xlink:href="#DejaVuSans-65" transform="translate(892.232422 0)"/>
     <use xlink:href="#DejaVuSans-61" transform="translate(953.755859 0)"/>
     <use xlink:href="#DejaVuSans-64" transform="translate(1015.035156 0)"/>
     <use xlink:href="#DejaVuSans-73" transform="translate(1078.511719 0)"/>
    </g>
   </g>
   <g id="line2d_53">
    <path d="M 375.348437 222.742188 
L 385.348437 222.742188 
L 395.348437 222.742188 
" style="fill: none; stroke: #40aa5d; stroke-width: 1.5; stroke-linecap: square"/>
    <g>
     <use xlink:href="#m32e3b0430a" x="385.348437" y="222.742188" style="fill: #40aa5d; stroke: #40aa5d"/>
    </g>
   </g>
   <g id="text_28">
    <!-- SUSY 100k – 16 threads -->
    <g transform="translate(403.348437 226.242188) scale(0.1 -0.1)">
     <use xlink:href="#DejaVuSans-53"/>
     <use xlink:href="#DejaVuSans-55" transform="translate(63.476562 0)"/>
     <use xlink:href="#DejaVuSans-53" transform="translate(136.669922 0)"/>
     <use xlink:href="#DejaVuSans-59" transform="translate(200.146484 0)"/>
     <use xlink:href="#DejaVuSans-20" transform="translate(261.230469 0)"/>
     <use xlink:href="#DejaVuSans-31" transform="translate(293.017578 0)"/>
     <use xlink:href="#DejaVuSans-30" transform="translate(356.640625 0)"/>
     <use xlink:href="#DejaVuSans-30" transform="translate(420.263672 0)"/>
     <use xlink:href="#DejaVuSans-6b" transform="translate(483.886719 0)"/>
     <use xlink:href="#DejaVuSans-20" transform="translate(541.796875 0)"/>
     <use xlink:href="#DejaVuSans-2013" transform="translate(573.583984 0)"/>
     <use xlink:href="#DejaVuSans-20" transform="translate(623.583984 0)"/>
     <use xlink:href="#DejaVuSans-31" transform="translate(655.371094 0)"/>
     <use xlink:href="#DejaVuSans-36" transform="translate(718.994141 0)"/>
     <use xlink:href="#DejaVuSans-20" transform="translate(782.617188 0)"/>
     <use xlink:href="#DejaVuSans-74" transform="translate(814.404297 0)"/>
     <use xlink:href="#DejaVuSans-68" transform="translate(853.613281 0)"/>
     <use xlink:href="#DejaVuSans-72" transform="translate(916.992188 0)"/>
     <use xlink:href="#DejaVuSans-65" transform="translate(955.855469 0)"/>
     <use xlink:href="#DejaVuSans-61" transform="translate(1017.378906 0)"/>
     <use xlink:href="#DejaVuSans-64" transform="translate(1078.658203 0)"/>
     <use xlink:href="#DejaVuSans-73" transform="translate(1142.134766 0)"/>
    </g>
   </g>
   <g id="line2d_54">
    <path d="M 375.348437 237.420312 
L 385.348437 237.420312 
L 395.348437 237.420312 
" style="fill: none; stroke: #077331; stroke-width: 1.5; stroke-linecap: square"/>
    <g>
     <use xlink:href="#m2ae5a9cec9" x="385.348437" y="237.420312" style="fill: #077331; stroke: #077331"/>
    </g>
   </g>
   <g id="text_29">
    <!-- SUSY 100k – 32 threads -->
    <g transform="translate(403.348437 240.920312) scale(0.1 -0.1)">
     <use xlink:href="#DejaVuSans-53"/>
     <use xlink:href="#DejaVuSans-55" transform="translate(63.476562 0)"/>
     <use xlink:href="#DejaVuSans-53" transform="translate(136.669922 0)"/>
     <use xlink:href="#DejaVuSans-59" transform="translate(200.146484 0)"/>
     <use xlink:href="#DejaVuSans-20" transform="translate(261.230469 0)"/>
     <use xlink:href="#DejaVuSans-31" transform="translate(293.017578 0)"/>
     <use xlink:href="#DejaVuSans-30" transform="translate(356.640625 0)"/>
     <use xlink:href="#DejaVuSans-30" transform="translate(420.263672 0)"/>
     <use xlink:href="#DejaVuSans-6b" transform="translate(483.886719 0)"/>
     <use xlink:href="#DejaVuSans-20" transform="translate(541.796875 0)"/>
     <use xlink:href="#DejaVuSans-2013" transform="translate(573.583984 0)"/>
     <use xlink:href="#DejaVuSans-20" transform="translate(623.583984 0)"/>
     <use xlink:href="#DejaVuSans-33" transform="translate(655.371094 0)"/>
     <use xlink:href="#DejaVuSans-32" transform="translate(718.994141 0)"/>
     <use xlink:href="#DejaVuSans-20" transform="translate(782.617188 0)"/>
     <use xlink:href="#DejaVuSans-74" transform="translate(814.404297 0)"/>
     <use xlink:href="#DejaVuSans-68" transform="translate(853.613281 0)"/>
     <use xlink:href="#DejaVuSans-72" transform="translate(916.992188 0)"/>
     <use xlink:href="#DejaVuSans-65" transform="translate(955.855469 0)"/>
     <use xlink:href="#DejaVuSans-61" transform="translate(1017.378906 0)"/>
     <use xlink:href="#DejaVuSans-64" transform="translate(1078.658203 0)"/>
     <use xlink:href="#DejaVuSans-73" transform="translate(1142.134766 0)"/>
    </g>
   </g>
  </g>
 </g>
 <defs>
  <clipPath id="p94871f6dcd">
   <rect x="54.245" y="26.16" width="238.59" height="158.68"/>
  </clipPath>
  <clipPath id="p1dd6a90c6c">
   <rect x="326.61" y="26.16" width="238.59" height="158.68"/>
  </clipPath>
 </defs>
</svg>
