<?xml version="1.0" encoding="utf-8" standalone="no"?>
<!DOCTYPE svg PUBLIC "-//W3C//DTD SVG 1.1//EN"
  "http://www.w3.org/Graphics/SVG/1.1/DTD/svg11.dtd">
<svg xmlns:xlink="http://www.w3.org/1999/xlink" width="720pt" height="288pt" viewBox="0 0 720 288" xmlns="http://www.w3.org/2000/svg" version="1.1">
 <metadata>
  <rdf:RDF xmlns:dc="http://purl.org/dc/elements/1.1/" xmlns:cc="http://creativecommons.org/ns#" xmlns:rdf="http://www.w3.org/1999/02/22-rdf-syntax-ns#">
   <cc:Work>
    <dc:type rdf:resource="http://purl.org/dc/dcmitype/StillImage"/>
    <dc:date>2026-01-29T19:04:42.407403</dc:date>
    <dc:format>image/svg+xml</dc:format>
    <dc:creator>
     <cc:Agent>
      <dc:title>Matplotlib v3.10.8, https://matplotlib.org/</dc:title>
     </cc:Agent>
    </dc:creator>
   </cc:Work>
  </rdf:RDF>
 </metadata>
 <defs>
  <style type="text/css">*{stroke-linejoin: round; stroke-linecap: butt}</style>
 </defs>
 <g id="figure_1">
  <g id="patch_1">
   <path d="M 0 288 
L 720 288 
L 720 0 
L 0 0 
z
" style="fill: #ffffff"/>
  </g>
  <g id="axes_1">
   <g id="patch_2">
    <path d="M 51.005 246.04 
L 372.9525 246.04 
L 372.9525 26.16 
L 51.005 26.16 
z
" style="fill: #ffffff"/>
   </g>
   <g id="matplotlib.axis_1">
    <g id="xtick_1">
     <g id="line2d_1">
      <path d="M 65.638977 246.04 
L 65.638977 26.16 
" clip-path="url(#p38d9a44db6)" style="fill: none; stroke: #b0b0b0; stroke-width: 0.8; stroke-linecap: square"/>
     </g>
     <g id="line2d_2">
      <defs>
       <path id="m70bbd86e65" d="M 0 0 
L 0 3.5 
" style="stroke: #000000; stroke-width: 0.8"/>
      </defs>
      <g>
       <use xlink:href="#m70bbd86e65" x="65.638977" y="246.04" style="stroke: #000000; stroke-width: 0.8"/>
      </g>
     </g>
     <g id="text_1">
      <!-- 1 -->
      <g transform="translate(62.457727 260.638438) scale(0.1 -0.1)">
       <defs>
        <path id="DejaVuSans-31" d="M 794 531 
L 1825 531 
L 1825 4091 
L 703 3866 
L 703 4441 
L 1819 4666 
L 2450 4666 
L 2450 531 
L 3481 531 
L 3481 0 
L 794 0 
L 794 531 
z
" transform="scale(0.015625)"/>
       </defs>
       <use xlink:href="#DejaVuSans-31"/>
      </g>
     </g>
    </g>
    <g id="xtick_2">
     <g id="line2d_3">
      <path d="M 163.198826 246.04 
L 163.198826 26.16 
" clip-path="url(#p38d9a44db6)" style="fill: none; stroke: #b0b0b0; stroke-width: 0.8; stroke-linecap: square"/>
     </g>
     <g id="line2d_4">
      <g>
       <use xlink:href="#m70bbd86e65" x="163.198826" y="246.04" style="stroke: #000000; stroke-width: 0.8"/>
      </g>
     </g>
     <g id="text_2">
      <!-- 2 -->
      <g transform="translate(160.017576 260.638438) scale(0.1 -0.1)">
       <defs>
        <path id="DejaVuSans-32" d="M 1228 531 
L 3431 531 
L 3431 0 
L 469 0 
L 469 531 
Q 828 903 1448 1529 
Q 2069 2156 2228 2338 
Q 2531 2678 2651 2914 
Q 2772 3150 2772 3378 
Q 2772 3750 2511 3984 
Q 2250 4219 1831 4219 
Q 1534 4219 1204 4116 
Q 875 4013 500 3803 
L 500 4441 
Q 881 4594 1212 4672 
Q 1544 4750 1819 4750 
Q 2544 4750 2975 4387 
Q 3406 4025 3406 3419 
Q 3406 3131 3298 2873 
Q 3191 2616 2906 2266 
Q 2828 2175 2409 1742 
Q 1991 1309 1228 531 
z
" transform="scale(0.015625)"/>
       </defs>
       <use xlink:href="#DejaVuSans-32"/>
      </g>
     </g>
    </g>
    <g id="xtick_3">
     <g id="line2d_5">
      <path d="M 260.758674 246.04 
L 260.758674 26.16 
" clip-path="url(#p38d9a44db6)" style="fill: none; stroke: #b0b0b0; stroke-width: 0.8; stroke-linecap: square"/>
     </g>
     <g id="line2d_6">
      <g>
       <use xlink:href="#m70bbd86e65" x="260.758674" y="246.04" style="stroke: #000000; stroke-width: 0.8"/>
      </g>
     </g>
     <g id="text_3">
      <!-- 4 -->
      <g transform="translate(257.577424 260.638438) scale(0.1 -0.1)">
       <defs>
        <path id="DejaVuSans-34" d="M 2419 4116 
L 825 1625 
L 2419 1625 
L 2419 4116 
z
M 2253 4666 
L 3047 4666 
L 3047 1625 
L 3713 1625 
L 3713 1100 
L 3047 1100 
L 3047 0 
L 2419 0 
L 2419 1100 
L 313 1100 
L 313 1709 
L 2253 4666 
z
" transform="scale(0.015625)"/>
       </defs>
       <use xlink:href="#DejaVuSans-34"/>
      </g>
     </g>
    </g>
    <g id="xtick_4">
     <g id="line2d_7">
      <path d="M 358.318523 246.04 
L 358.318523 26.16 
" clip-path="url(#p38d9a44db6)" style="fill: none; stroke: #b0b0b0; stroke-width: 0.8; stroke-linecap: square"/>
     </g>
     <g id="line2d_8">
      <g>
       <use xlink:href="#m70bbd86e65" x="358.318523" y="246.04" style="stroke: #000000; stroke-width: 0.8"/>
      </g>
     </g>
     <g id="text_4">
      <!-- 8 -->
      <g transform="translate(355.137273 260.638438) scale(0.1 -0.1)">
       <defs>
        <path id="DejaVuSans-38" d="M 2034 2216 
Q 1584 2216 1326 1975 
Q 1069 1734 1069 1313 
Q 1069 891 1326 650 
Q 1584 409 2034 409 
Q 2484 409 2743 651 
Q 3003 894 3003 1313 
Q 3003 1734 2745 1975 
Q 2488 2216 2034 2216 
z
M 1403 2484 
Q 997 2584 770 2862 
Q 544 3141 544 3541 
Q 544 4100 942 4425 
Q 1341 4750 2034 4750 
Q 2731 4750 3128 4425 
Q 3525 4100 3525 3541 
Q 3525 3141 3298 2862 
Q 3072 2584 2669 2484 
Q 3125 2378 3379 2068 
Q 3634 1759 3634 1313 
Q 3634 634 3220 271 
Q 2806 -91 2034 -91 
Q 1263 -91 848 271 
Q 434 634 434 1313 
Q 434 1759 690 2068 
Q 947 2378 1403 2484 
z
M 1172 3481 
Q 1172 3119 1398 2916 
Q 1625 2713 2034 2713 
Q 2441 2713 2670 2916 
Q 2900 3119 2900 3481 
Q 2900 3844 2670 4047 
Q 2441 4250 2034 4250 
Q 1625 4250 1398 4047 
Q 1172 3844 1172 3481 
z
" transform="scale(0.015625)"/>
       </defs>
       <use xlink:href="#DejaVuSans-38"/>
      </g>
     </g>
    </g>
    <g id="text_5">
     <!-- Nodes -->
     <g transform="translate(196.323281 274.316562) scale(0.1 -0.1)">
      <defs>
       <path id="DejaVuSans-4e" d="M 628 4666 
L 1478 4666 
L 3547 763 
L 3547 4666 
L 4159 4666 
L 4159 0 
L 3309 0 
L 1241 3903 
L 1241 0 
L 628 0 
L 628 4666 
z
" transform="scale(0.015625)"/>
       <path id="DejaVuSans-6f" d="M 1959 3097 
Q 1497 3097 1228 2736 
Q 959 2375 959 1747 
Q 959 1119 1226 758 
Q 1494 397 1959 397 
Q 2419 397 2687 759 
Q 2956 1122 2956 1747 
Q 2956 2369 2687 2733 
Q 2419 3097 1959 3097 
z
M 1959 3584 
Q 2709 3584 3137 3096 
Q 3566 2609 3566 1747 
Q 3566 888 3137 398 
Q 2709 -91 1959 -91 
Q 1206 -91 779 398 
Q 353 888 353 1747 
Q 353 2609 779 3096 
Q 1206 3584 1959 3584 
z
" transform="scale(0.015625)"/>
       <path id="DejaVuSans-64" d="M 2906 2969 
L 2906 4863 
L 3481 4863 
L 3481 0 
L 2906 0 
L 2906 525 
Q 2725 213 2448 61 
Q 2172 -91 1784 -91 
Q 1150 -91 751 415 
Q 353 922 353 1747 
Q 353 2572 751 3078 
Q 1150 3584 1784 3584 
Q 2172 3584 2448 3432 
Q 2725 3281 2906 2969 
z
M 947 1747 
Q 947 1113 1208 752 
Q 1469 391 1925 391 
Q 2381 391 2643 752 
Q 2906 1113 2906 1747 
Q 2906 2381 2643 2742 
Q 2381 3103 1925 3103 
Q 1469 3103 1208 2742 
Q 947 2381 947 1747 
z
" transform="scale(0.015625)"/>
       <path id="DejaVuSans-65" d="M 3597 1894 
L 3597 1613 
L 953 1613 
Q 991 1019 1311 708 
Q 1631 397 2203 397 
Q 2534 397 2845 478 
Q 3156 559 3463 722 
L 3463 178 
Q 3153 47 2828 -22 
Q 2503 -91 2169 -91 
Q 1331 -91 842 396 
Q 353 884 353 1716 
Q 353 2575 817 3079 
Q 1281 3584 2069 3584 
Q 2775 3584 3186 3129 
Q 3597 2675 3597 1894 
z
M 3022 2063 
Q 3016 2534 2758 2815 
Q 2500 3097 2075 3097 
Q 1594 3097 1305 2825 
Q 1016 2553 972 2059 
L 3022 2063 
z
" transform="scale(0.015625)"/>
       <path id="DejaVuSans-73" d="M 2834 3397 
L 2834 2853 
Q 2591 2978 2328 3040 
Q 2066 3103 1784 3103 
Q 1356 3103 1142 2972 
Q 928 2841 928 2578 
Q 928 2378 1081 2264 
Q 1234 2150 1697 2047 
L 1894 2003 
Q 2506 1872 2764 1633 
Q 3022 1394 3022 966 
Q 3022 478 2636 193 
Q 2250 -91 1575 -91 
Q 1294 -91 989 -36 
Q 684 19 347 128 
L 347 722 
Q 666 556 975 473 
Q 1284 391 1588 391 
Q 1994 391 2212 530 
Q 2431 669 2431 922 
Q 2431 1156 2273 1281 
Q 2116 1406 1581 1522 
L 1381 1569 
Q 847 1681 609 1914 
Q 372 2147 372 2553 
Q 372 3047 722 3315 
Q 1072 3584 1716 3584 
Q 2034 3584 2315 3537 
Q 2597 3491 2834 3397 
z
" transform="scale(0.015625)"/>
      </defs>
      <use xlink:href="#DejaVuSans-4e"/>
      <use xlink:href="#DejaVuSans-6f" transform="translate(74.804688 0)"/>
      <use xlink:href="#DejaVuSans-64" transform="translate(135.986328 0)"/>
      <use xlink:href="#DejaVuSans-65" transform="translate(199.462891 0)"/>
      <use xlink:href="#DejaVuSans-73" transform="translate(260.986328 0)"/>
     </g>
    </g>
   </g>
   <g id="matplotlib.axis_2">
    <g id="ytick_1">
     <g id="line2d_9">
      <path d="M 51.005 244.580268 
L 372.9525 244.580268 
" clip-path="url(#p38d9a44db6)" style="fill: none; stroke: #b0b0b0; stroke-width: 0.8; stroke-linecap: square"/>
     </g>
     <g id="line2d_10">
      <defs>
       <path id="m97d6d23e40" d="M 0 0 
L -3.5 0 
" style="stroke: #000000; stroke-width: 0.8"/>
      </defs>
      <g>
       <use xlink:href="#m97d6d23e40" x="51.005" y="244.580268" style="stroke: #000000; stroke-width: 0.8"/>
      </g>
     </g>
     <g id="text_6">
      <!-- 0 -->
      <g transform="translate(37.6425 248.379487) scale(0.1 -0.1)">
       <defs>
        <path id="DejaVuSans-30" d="M 2034 4250 
Q 1547 4250 1301 3770 
Q 1056 3291 1056 2328 
Q 1056 1369 1301 889 
Q 1547 409 2034 409 
Q 2525 409 2770 889 
Q 3016 1369 3016 2328 
Q 3016 3291 2770 3770 
Q 2525 4250 2034 4250 
z
M 2034 4750 
Q 2819 4750 3233 4129 
Q 3647 3509 3647 2328 
Q 3647 1150 3233 529 
Q 2819 -91 2034 -91 
Q 1250 -91 836 529 
Q 422 1150 422 2328 
Q 422 3509 836 4129 
Q 1250 4750 2034 4750 
z
" transform="scale(0.015625)"/>
       </defs>
       <use xlink:href="#DejaVuSans-30"/>
      </g>
     </g>
    </g>
    <g id="ytick_2">
     <g id="line2d_11">
      <path d="M 51.005 219.937855 
L 372.9525 219.937855 
" clip-path="url(#p38d9a44db6)" style="fill: none; stroke: #b0b0b0; stroke-width: 0.8; stroke-linecap: square"/>
     </g>
     <g id="line2d_12">
      <g>
       <use xlink:href="#m97d6d23e40" x="51.005" y="219.937855" style="stroke: #000000; stroke-width: 0.8"/>
      </g>
     </g>
     <g id="text_7">
      <!-- 20 -->
      <g transform="translate(31.28 223.737074) scale(0.1 -0.1)">
       <use xlink:href="#DejaVuSans-32"/>
       <use xlink:href="#DejaVuSans-30" transform="translate(63.623047 0)"/>
      </g>
     </g>
    </g>
    <g id="ytick_3">
     <g id="line2d_13">
      <path d="M 51.005 195.295443 
L 372.9525 195.295443 
" clip-path="url(#p38d9a44db6)" style="fill: none; stroke: #b0b0b0; stroke-width: 0.8; stroke-linecap: square"/>
     </g>
     <g id="line2d_14">
      <g>
       <use xlink:href="#m97d6d23e40" x="51.005" y="195.295443" style="stroke: #000000; stroke-width: 0.8"/>
      </g>
     </g>
     <g id="text_8">
      <!-- 40 -->
      <g transform="translate(31.28 199.094662) scale(0.1 -0.1)">
       <use xlink:href="#DejaVuSans-34"/>
       <use xlink:href="#DejaVuSans-30" transform="translate(63.623047 0)"/>
      </g>
     </g>
    </g>
    <g id="ytick_4">
     <g id="line2d_15">
      <path d="M 51.005 170.65303 
L 372.9525 170.65303 
" clip-path="url(#p38d9a44db6)" style="fill: none; stroke: #b0b0b0; stroke-width: 0.8; stroke-linecap: square"/>
     </g>
     <g id="line2d_16">
      <g>
       <use xlink:href="#m97d6d23e40" x="51.005" y="170.65303" style="stroke: #000000; stroke-width: 0.8"/>
      </g>
     </g>
     <g id="text_9">
      <!-- 60 -->
      <g transform="translate(31.28 174.452249) scale(0.1 -0.1)">
       <defs>
        <path id="DejaVuSans-36" d="M 2113 2584 
Q 1688 2584 1439 2293 
Q 1191 2003 1191 1497 
Q 1191 994 1439 701 
Q 1688 409 2113 409 
Q 2538 409 2786 701 
Q 3034 994 3034 1497 
Q 3034 2003 2786 2293 
Q 2538 2584 2113 2584 
z
M 3366 4563 
L 3366 3988 
Q 3128 4100 2886 4159 
Q 2644 4219 2406 4219 
Q 1781 4219 1451 3797 
Q 1122 3375 1075 2522 
Q 1259 2794 1537 2939 
Q 1816 3084 2150 3084 
Q 2853 3084 3261 2657 
Q 3669 2231 3669 1497 
Q 3669 778 3244 343 
Q 2819 -91 2113 -91 
Q 1303 -91 875 529 
Q 447 1150 447 2328 
Q 447 3434 972 4092 
Q 1497 4750 2381 4750 
Q 2619 4750 2861 4703 
Q 3103 4656 3366 4563 
z
" transform="scale(0.015625)"/>
       </defs>
       <use xlink:href="#DejaVuSans-36"/>
       <use xlink:href="#DejaVuSans-30" transform="translate(63.623047 0)"/>
      </g>
     </g>
    </g>
    <g id="ytick_5">
     <g id="line2d_17">
      <path d="M 51.005 146.010618 
L 372.9525 146.010618 
" clip-path="url(#p38d9a44db6)" style="fill: none; stroke: #b0b0b0; stroke-width: 0.8; stroke-linecap: square"/>
     </g>
     <g id="line2d_18">
      <g>
       <use xlink:href="#m97d6d23e40" x="51.005" y="146.010618" style="stroke: #000000; stroke-width: 0.8"/>
      </g>
     </g>
     <g id="text_10">
      <!-- 80 -->
      <g transform="translate(31.28 149.809836) scale(0.1 -0.1)">
       <use xlink:href="#DejaVuSans-38"/>
       <use xlink:href="#DejaVuSans-30" transform="translate(63.623047 0)"/>
      </g>
     </g>
    </g>
    <g id="ytick_6">
     <g id="line2d_19">
      <path d="M 51.005 121.368205 
L 372.9525 121.368205 
" clip-path="url(#p38d9a44db6)" style="fill: none; stroke: #b0b0b0; stroke-width: 0.8; stroke-linecap: square"/>
     </g>
     <g id="line2d_20">
      <g>
       <use xlink:href="#m97d6d23e40" x="51.005" y="121.368205" style="stroke: #000000; stroke-width: 0.8"/>
      </g>
     </g>
     <g id="text_11">
      <!-- 100 -->
      <g transform="translate(24.9175 125.167424) scale(0.1 -0.1)">
       <use xlink:href="#DejaVuSans-31"/>
       <use xlink:href="#DejaVuSans-30" transform="translate(63.623047 0)"/>
       <use xlink:href="#DejaVuSans-30" transform="translate(127.246094 0)"/>
      </g>
     </g>
    </g>
    <g id="ytick_7">
     <g id="line2d_21">
      <path d="M 51.005 96.725793 
L 372.9525 96.725793 
" clip-path="url(#p38d9a44db6)" style="fill: none; stroke: #b0b0b0; stroke-width: 0.8; stroke-linecap: square"/>
     </g>
     <g id="line2d_22">
      <g>
       <use xlink:href="#m97d6d23e40" x="51.005" y="96.725793" style="stroke: #000000; stroke-width: 0.8"/>
      </g>
     </g>
     <g id="text_12">
      <!-- 120 -->
      <g transform="translate(24.9175 100.525011) scale(0.1 -0.1)">
       <use xlink:href="#DejaVuSans-31"/>
       <use xlink:href="#DejaVuSans-32" transform="translate(63.623047 0)"/>
       <use xlink:href="#DejaVuSans-30" transform="translate(127.246094 0)"/>
      </g>
     </g>
    </g>
    <g id="ytick_8">
     <g id="line2d_23">
      <path d="M 51.005 72.08338 
L 372.9525 72.08338 
" clip-path="url(#p38d9a44db6)" style="fill: none; stroke: #b0b0b0; stroke-width: 0.8; stroke-linecap: square"/>
     </g>
     <g id="line2d_24">
      <g>
       <use xlink:href="#m97d6d23e40" x="51.005" y="72.08338" style="stroke: #000000; stroke-width: 0.8"/>
      </g>
     </g>
     <g id="text_13">
      <!-- 140 -->
      <g transform="translate(24.9175 75.882599) scale(0.1 -0.1)">
       <use xlink:href="#DejaVuSans-31"/>
       <use xlink:href="#DejaVuSans-34" transform="translate(63.623047 0)"/>
       <use xlink:href="#DejaVuSans-30" transform="translate(127.246094 0)"/>
      </g>
     </g>
    </g>
    <g id="ytick_9">
     <g id="line2d_25">
      <path d="M 51.005 47.440968 
L 372.9525 47.440968 
" clip-path="url(#p38d9a44db6)" style="fill: none; stroke: #b0b0b0; stroke-width: 0.8; stroke-linecap: square"/>
     </g>
     <g id="line2d_26">
      <g>
       <use xlink:href="#m97d6d23e40" x="51.005" y="47.440968" style="stroke: #000000; stroke-width: 0.8"/>
      </g>
     </g>
     <g id="text_14">
      <!-- 160 -->
      <g transform="translate(24.9175 51.240186) scale(0.1 -0.1)">
       <use xlink:href="#DejaVuSans-31"/>
       <use xlink:href="#DejaVuSans-36" transform="translate(63.623047 0)"/>
       <use xlink:href="#DejaVuSans-30" transform="translate(127.246094 0)"/>
      </g>
     </g>
    </g>
    <g id="text_15">
     <!-- Time (ms) -->
     <g transform="translate(18.837812 161.299219) rotate(-90) scale(0.1 -0.1)">
      <defs>
       <path id="DejaVuSans-54" d="M -19 4666 
L 3928 4666 
L 3928 4134 
L 2272 4134 
L 2272 0 
L 1638 0 
L 1638 4134 
L -19 4134 
L -19 4666 
z
" transform="scale(0.015625)"/>
       <path id="DejaVuSans-69" d="M 603 3500 
L 1178 3500 
L 1178 0 
L 603 0 
L 603 3500 
z
M 603 4863 
L 1178 4863 
L 1178 4134 
L 603 4134 
L 603 4863 
z
" transform="scale(0.015625)"/>
       <path id="DejaVuSans-6d" d="M 3328 2828 
Q 3544 3216 3844 3400 
Q 4144 3584 4550 3584 
Q 5097 3584 5394 3201 
Q 5691 2819 5691 2113 
L 5691 0 
L 5113 0 
L 5113 2094 
Q 5113 2597 4934 2840 
Q 4756 3084 4391 3084 
Q 3944 3084 3684 2787 
Q 3425 2491 3425 1978 
L 3425 0 
L 2847 0 
L 2847 2094 
Q 2847 2600 2669 2842 
Q 2491 3084 2119 3084 
Q 1678 3084 1418 2786 
Q 1159 2488 1159 1978 
L 1159 0 
L 581 0 
L 581 3500 
L 1159 3500 
L 1159 2956 
Q 1356 3278 1631 3431 
Q 1906 3584 2284 3584 
Q 2666 3584 2933 3390 
Q 3200 3197 3328 2828 
z
" transform="scale(0.015625)"/>
       <path id="DejaVuSans-20" transform="scale(0.015625)"/>
       <path id="DejaVuSans-28" d="M 1984 4856 
Q 1566 4138 1362 3434 
Q 1159 2731 1159 2009 
Q 1159 1288 1364 580 
Q 1569 -128 1984 -844 
L 1484 -844 
Q 1016 -109 783 600 
Q 550 1309 550 2009 
Q 550 2706 781 3412 
Q 1013 4119 1484 4856 
L 1984 4856 
z
" transform="scale(0.015625)"/>
       <path id="DejaVuSans-29" d="M 513 4856 
L 1013 4856 
Q 1481 4119 1714 3412 
Q 1947 2706 1947 2009 
Q 1947 1309 1714 600 
Q 1481 -109 1013 -844 
L 513 -844 
Q 928 -128 1133 580 
Q 1338 1288 1338 2009 
Q 1338 2731 1133 3434 
Q 928 4138 513 4856 
z
" transform="scale(0.015625)"/>
      </defs>
      <use xlink:href="#DejaVuSans-54"/>
      <use xlink:href="#DejaVuSans-69" transform="translate(57.958984 0)"/>
      <use xlink:href="#DejaVuSans-6d" transform="translate(85.742188 0)"/>
      <use xlink:href="#DejaVuSans-65" transform="translate(183.154297 0)"/>
      <use xlink:href="#DejaVuSans-20" transform="translate(244.677734 0)"/>
      <use xlink:href="#DejaVuSans-28" transform="translate(276.464844 0)"/>
      <use xlink:href="#DejaVuSans-6d" transform="translate(315.478516 0)"/>
      <use xlink:href="#DejaVuSans-73" transform="translate(412.890625 0)"/>
      <use xlink:href="#DejaVuSans-29" transform="translate(464.990234 0)"/>
     </g>
    </g>
   </g>
   <g id="line2d_27">
    <path d="M 65.638977 223.760263 
L 163.198826 210.499663 
L 260.758674 219.718696 
L 358.318523 217.026946 
" clip-path="url(#p38d9a44db6)" style="fill: none; stroke: #b6b6d8; stroke-width: 1.5; stroke-linecap: square"/>
    <defs>
     <path id="mbe8a545ede" d="M 0 3 
C 0.795609 3 1.55874 2.683901 2.12132 2.12132 
C 2.683901 1.55874 3 0.795609 3 0 
C 3 -0.795609 2.683901 -1.55874 2.12132 -2.12132 
C 1.55874 -2.683901 0.795609 -3 0 -3 
C -0.795609 -3 -1.55874 -2.683901 -2.12132 -2.12132 
C -2.683901 -1.55874 -3 -0.795609 -3 0 
C -3 0.795609 -2.683901 1.55874 -2.12132 2.12132 
C -1.55874 2.683901 -0.795609 3 0 3 
z
" style="stroke: #b6b6d8"/>
    </defs>
    <g clip-path="url(#p38d9a44db6)">
     <use xlink:href="#mbe8a545ede" x="65.638977" y="223.760263" style="fill: #b6b6d8; stroke: #b6b6d8"/>
     <use xlink:href="#mbe8a545ede" x="163.198826" y="210.499663" style="fill: #b6b6d8; stroke: #b6b6d8"/>
     <use xlink:href="#mbe8a545ede" x="260.758674" y="219.718696" style="fill: #b6b6d8; stroke: #b6b6d8"/>
     <use xlink:href="#mbe8a545ede" x="358.318523" y="217.026946" style="fill: #b6b6d8; stroke: #b6b6d8"/>
    </g>
   </g>
   <g id="line2d_28">
    <path d="M 65.638977 233.504046 
L 163.198826 205.590747 
L 260.758674 210.851422 
L 358.318523 226.581331 
" clip-path="url(#p38d9a44db6)" style="fill: none; stroke: #8683bd; stroke-width: 1.5; stroke-linecap: square"/>
    <defs>
     <path id="mf7771538e7" d="M 0 3 
C 0.795609 3 1.55874 2.683901 2.12132 2.12132 
C 2.683901 1.55874 3 0.795609 3 0 
C 3 -0.795609 2.683901 -1.55874 2.12132 -2.12132 
C 1.55874 -2.683901 0.795609 -3 0 -3 
C -0.795609 -3 -1.55874 -2.683901 -2.12132 -2.12132 
C -2.683901 -1.55874 -3 -0.795609 -3 0 
C -3 0.795609 -2.683901 1.55874 -2.12132 2.12132 
C -1.55874 2.683901 -0.795609 3 0 3 
z
" style="stroke: #8683bd"/>
    </defs>
    <g clip-path="url(#p38d9a44db6)">
     <use xlink:href="#mf7771538e7" x="65.638977" y="233.504046" style="fill: #8683bd; stroke: #8683bd"/>
     <use xlink:href="#mf7771538e7" x="163.198826" y="205.590747" style="fill: #8683bd; stroke: #8683bd"/>
     <use xlink:href="#mf7771538e7" x="260.758674" y="210.851422" style="fill: #8683bd; stroke: #8683bd"/>
     <use xlink:href="#mf7771538e7" x="358.318523" y="226.581331" style="fill: #8683bd; stroke: #8683bd"/>
    </g>
   </g>
   <g id="line2d_29">
    <path d="M 65.638977 236.045455 
L 163.198826 222.157003 
L 260.758674 216.039672 
L 358.318523 217.26201 
" clip-path="url(#p38d9a44db6)" style="fill: none; stroke: #61409b; stroke-width: 1.5; stroke-linecap: square"/>
    <defs>
     <path id="m382f094be7" d="M 0 3 
C 0.795609 3 1.55874 2.683901 2.12132 2.12132 
C 2.683901 1.55874 3 0.795609 3 0 
C 3 -0.795609 2.683901 -1.55874 2.12132 -2.12132 
C 1.55874 -2.683901 0.795609 -3 0 -3 
C -0.795609 -3 -1.55874 -2.683901 -2.12132 -2.12132 
C -2.683901 -1.55874 -3 -0.795609 -3 0 
C -3 0.795609 -2.683901 1.55874 -2.12132 2.12132 
C -1.55874 2.683901 -0.795609 3 0 3 
z
" style="stroke: #61409b"/>
    </defs>
    <g clip-path="url(#p38d9a44db6)">
     <use xlink:href="#m382f094be7" x="65.638977" y="236.045455" style="fill: #61409b; stroke: #61409b"/>
     <use xlink:href="#m382f094be7" x="163.198826" y="222.157003" style="fill: #61409b; stroke: #61409b"/>
     <use xlink:href="#m382f094be7" x="260.758674" y="216.039672" style="fill: #61409b; stroke: #61409b"/>
     <use xlink:href="#m382f094be7" x="358.318523" y="217.26201" style="fill: #61409b; stroke: #61409b"/>
    </g>
   </g>
   <g id="patch_3">
    <path d="M 51.005 246.04 
L 51.005 26.16 
" style="fill: none; stroke: #000000; stroke-width: 0.8; stroke-linejoin: miter; stroke-linecap: square"/>
   </g>
   <g id="patch_4">
    <path d="M 372.9525 246.04 
L 372.9525 26.16 
" style="fill: none; stroke: #000000; stroke-width: 0.8; stroke-linejoin: miter; stroke-linecap: square"/>
   </g>
   <g id="patch_5">
    <path d="M 51.005 246.04 
L 372.9525 246.04 
" style="fill: none; stroke: #000000; stroke-width: 0.8; stroke-linejoin: miter; stroke-linecap: square"/>
   </g>
   <g id="patch_6">
    <path d="M 51.005 26.16 
L 372.9525 26.16 
" style="fill: none; stroke: #000000; stroke-width: 0.8; stroke-linejoin: miter; stroke-linecap: square"/>
   </g>
   <g id="text_16">
    <!-- SUSY 20k Prediction Time -->
    <g transform="translate(134.990312 20.16) scale(0.12 -0.12)">
     <defs>
      <path id="DejaVuSans-53" d="M 3425 4513 
L 3425 3897 
Q 3066 4069 2747 4153 
Q 2428 4238 2131 4238 
Q 1616 4238 1336 4038 
Q 1056 3838 1056 3469 
Q 1056 3159 1242 3001 
Q 1428 2844 1947 2747 
L 2328 2669 
Q 3034 2534 3370 2195 
Q 3706 1856 3706 1288 
Q 3706 609 3251 259 
Q 2797 -91 1919 -91 
Q 1588 -91 1214 -16 
Q 841 59 441 206 
L 441 856 
Q 825 641 1194 531 
Q 1563 422 1919 422 
Q 2459 422 2753 634 
Q 3047 847 3047 1241 
Q 3047 1584 2836 1778 
Q 2625 1972 2144 2069 
L 1759 2144 
Q 1053 2284 737 2584 
Q 422 2884 422 3419 
Q 422 4038 858 4394 
Q 1294 4750 2059 4750 
Q 2388 4750 2728 4690 
Q 3069 4631 3425 4513 
z
" transform="scale(0.015625)"/>
      <path id="DejaVuSans-55" d="M 556 4666 
L 1191 4666 
L 1191 1831 
Q 1191 1081 1462 751 
Q 1734 422 2344 422 
Q 2950 422 3222 751 
Q 3494 1081 3494 1831 
L 3494 4666 
L 4128 4666 
L 4128 1753 
Q 4128 841 3676 375 
Q 3225 -91 2344 -91 
Q 1459 -91 1007 375 
Q 556 841 556 1753 
L 556 4666 
z
" transform="scale(0.015625)"/>
      <path id="DejaVuSans-59" d="M -13 4666 
L 666 4666 
L 1959 2747 
L 3244 4666 
L 3922 4666 
L 2272 2222 
L 2272 0 
L 1638 0 
L 1638 2222 
L -13 4666 
z
" transform="scale(0.015625)"/>
      <path id="DejaVuSans-6b" d="M 581 4863 
L 1159 4863 
L 1159 1991 
L 2875 3500 
L 3609 3500 
L 1753 1863 
L 3688 0 
L 2938 0 
L 1159 1709 
L 1159 0 
L 581 0 
L 581 4863 
z
" transform="scale(0.015625)"/>
      <path id="DejaVuSans-50" d="M 1259 4147 
L 1259 2394 
L 2053 2394 
Q 2494 2394 2734 2622 
Q 2975 2850 2975 3272 
Q 2975 3691 2734 3919 
Q 2494 4147 2053 4147 
L 1259 4147 
z
M 628 4666 
L 2053 4666 
Q 2838 4666 3239 4311 
Q 3641 3956 3641 3272 
Q 3641 2581 3239 2228 
Q 2838 1875 2053 1875 
L 1259 1875 
L 1259 0 
L 628 0 
L 628 4666 
z
" transform="scale(0.015625)"/>
      <path id="DejaVuSans-72" d="M 2631 2963 
Q 2534 3019 2420 3045 
Q 2306 3072 2169 3072 
Q 1681 3072 1420 2755 
Q 1159 2438 1159 1844 
L 1159 0 
L 581 0 
L 581 3500 
L 1159 3500 
L 1159 2956 
Q 1341 3275 1631 3429 
Q 1922 3584 2338 3584 
Q 2397 3584 2469 3576 
Q 2541 3569 2628 3553 
L 2631 2963 
z
" transform="scale(0.015625)"/>
      <path id="DejaVuSans-63" d="M 3122 3366 
L 3122 2828 
Q 2878 2963 2633 3030 
Q 2388 3097 2138 3097 
Q 1578 3097 1268 2742 
Q 959 2388 959 1747 
Q 959 1106 1268 751 
Q 1578 397 2138 397 
Q 2388 397 2633 464 
Q 2878 531 3122 666 
L 3122 134 
Q 2881 22 2623 -34 
Q 2366 -91 2075 -91 
Q 1284 -91 818 406 
Q 353 903 353 1747 
Q 353 2603 823 3093 
Q 1294 3584 2113 3584 
Q 2378 3584 2631 3529 
Q 2884 3475 3122 3366 
z
" transform="scale(0.015625)"/>
      <path id="DejaVuSans-74" d="M 1172 4494 
L 1172 3500 
L 2356 3500 
L 2356 3053 
L 1172 3053 
L 1172 1153 
Q 1172 725 1289 603 
Q 1406 481 1766 481 
L 2356 481 
L 2356 0 
L 1766 0 
Q 1100 0 847 248 
Q 594 497 594 1153 
L 594 3053 
L 172 3053 
L 172 3500 
L 594 3500 
L 594 4494 
L 1172 4494 
z
" transform="scale(0.015625)"/>
      <path id="DejaVuSans-6e" d="M 3513 2113 
L 3513 0 
L 2938 0 
L 2938 2094 
Q 2938 2591 2744 2837 
Q 2550 3084 2163 3084 
Q 1697 3084 1428 2787 
Q 1159 2491 1159 1978 
L 1159 0 
L 581 0 
L 581 3500 
L 1159 3500 
L 1159 2956 
Q 1366 3272 1645 3428 
Q 1925 3584 2291 3584 
Q 2894 3584 3203 3211 
Q 3513 2838 3513 2113 
z
" transform="scale(0.015625)"/>
     </defs>
     <use xlink:href="#DejaVuSans-53"/>
     <use xlink:href="#DejaVuSans-55" transform="translate(63.476562 0)"/>
     <use xlink:href="#DejaVuSans-53" transform="translate(136.669922 0)"/>
     <use xlink:href="#DejaVuSans-59" transform="translate(200.146484 0)"/>
     <use xlink:href="#DejaVuSans-20" transform="translate(261.230469 0)"/>
     <use xlink:href="#DejaVuSans-32" transform="translate(293.017578 0)"/>
     <use xlink:href="#DejaVuSans-30" transform="translate(356.640625 0)"/>
     <use xlink:href="#DejaVuSans-6b" transform="translate(420.263672 0)"/>
     <use xlink:href="#DejaVuSans-20" transform="translate(478.173828 0)"/>
     <use xlink:href="#DejaVuSans-50" transform="translate(509.960938 0)"/>
     <use xlink:href="#DejaVuSans-72" transform="translate(568.513672 0)"/>
     <use xlink:href="#DejaVuSans-65" transform="translate(607.376953 0)"/>
     <use xlink:href="#DejaVuSans-64" transform="translate(668.900391 0)"/>
     <use xlink:href="#DejaVuSans-69" transform="translate(732.376953 0)"/>
     <use xlink:href="#DejaVuSans-63" transform="translate(760.160156 0)"/>
     <use xlink:href="#DejaVuSans-74" transform="translate(815.140625 0)"/>
     <use xlink:href="#DejaVuSans-69" transform="translate(854.349609 0)"/>
     <use xlink:href="#DejaVuSans-6f" transform="translate(882.132812 0)"/>
     <use xlink:href="#DejaVuSans-6e" transform="translate(943.314453 0)"/>
     <use xlink:href="#DejaVuSans-20" transform="translate(1006.693359 0)"/>
     <use xlink:href="#DejaVuSans-54" transform="translate(1038.480469 0)"/>
     <use xlink:href="#DejaVuSans-69" transform="translate(1096.439453 0)"/>
     <use xlink:href="#DejaVuSans-6d" transform="translate(1124.222656 0)"/>
     <use xlink:href="#DejaVuSans-65" transform="translate(1221.634766 0)"/>
    </g>
   </g>
   <g id="legend_1">
    <g id="patch_7">
     <path d="M 280.066562 78.194375 
L 365.9525 78.194375 
Q 367.9525 78.194375 367.9525 76.194375 
L 367.9525 33.16 
Q 367.9525 31.16 365.9525 31.16 
L 280.066562 31.16 
Q 278.066562 31.16 278.066562 33.16 
L 278.066562 76.194375 
Q 278.066562 78.194375 280.066562 78.194375 
z
" style="fill: #ffffff; opacity: 0.8; stroke: #cccccc; stroke-linejoin: miter"/>
    </g>
    <g id="line2d_30">
     <path d="M 282.066562 39.258437 
L 292.066562 39.258437 
L 302.066562 39.258437 
" style="fill: none; stroke: #b6b6d8; stroke-width: 1.5; stroke-linecap: square"/>
     <g>
      <use xlink:href="#mbe8a545ede" x="292.066562" y="39.258437" style="fill: #b6b6d8; stroke: #b6b6d8"/>
     </g>
    </g>
    <g id="text_17">
     <!-- 8 threads -->
     <g transform="translate(310.066562 42.758437) scale(0.1 -0.1)">
      <defs>
       <path id="DejaVuSans-68" d="M 3513 2113 
L 3513 0 
L 2938 0 
L 2938 2094 
Q 2938 2591 2744 2837 
Q 2550 3084 2163 3084 
Q 1697 3084 1428 2787 
Q 1159 2491 1159 1978 
L 1159 0 
L 581 0 
L 581 4863 
L 1159 4863 
L 1159 2956 
Q 1366 3272 1645 3428 
Q 1925 3584 2291 3584 
Q 2894 3584 3203 3211 
Q 3513 2838 3513 2113 
z
" transform="scale(0.015625)"/>
       <path id="DejaVuSans-61" d="M 2194 1759 
Q 1497 1759 1228 1600 
Q 959 1441 959 1056 
Q 959 750 1161 570 
Q 1363 391 1709 391 
Q 2188 391 2477 730 
Q 2766 1069 2766 1631 
L 2766 1759 
L 2194 1759 
z
M 3341 1997 
L 3341 0 
L 2766 0 
L 2766 531 
Q 2569 213 2275 61 
Q 1981 -91 1556 -91 
Q 1019 -91 701 211 
Q 384 513 384 1019 
Q 384 1609 779 1909 
Q 1175 2209 1959 2209 
L 2766 2209 
L 2766 2266 
Q 2766 2663 2505 2880 
Q 2244 3097 1772 3097 
Q 1472 3097 1187 3025 
Q 903 2953 641 2809 
L 641 3341 
Q 956 3463 1253 3523 
Q 1550 3584 1831 3584 
Q 2591 3584 2966 3190 
Q 3341 2797 3341 1997 
z
" transform="scale(0.015625)"/>
      </defs>
      <use xlink:href="#DejaVuSans-38"/>
      <use xlink:href="#DejaVuSans-20" transform="translate(63.623047 0)"/>
      <use xlink:href="#DejaVuSans-74" transform="translate(95.410156 0)"/>
      <use xlink:href="#DejaVuSans-68" transform="translate(134.619141 0)"/>
      <use xlink:href="#DejaVuSans-72" transform="translate(197.998047 0)"/>
      <use xlink:href="#DejaVuSans-65" transform="translate(236.861328 0)"/>
      <use xlink:href="#DejaVuSans-61" transform="translate(298.384766 0)"/>
      <use xlink:href="#DejaVuSans-64" transform="translate(359.664062 0)"/>
      <use xlink:href="#DejaVuSans-73" transform="translate(423.140625 0)"/>
     </g>
    </g>
    <g id="line2d_31">
     <path d="M 282.066562 53.936562 
L 292.066562 53.936562 
L 302.066562 53.936562 
" style="fill: none; stroke: #8683bd; stroke-width: 1.5; stroke-linecap: square"/>
     <g>
      <use xlink:href="#mf7771538e7" x="292.066562" y="53.936562" style="fill: #8683bd; stroke: #8683bd"/>
     </g>
    </g>
    <g id="text_18">
     <!-- 16 threads -->
     <g transform="translate(310.066562 57.436562) scale(0.1 -0.1)">
      <use xlink:href="#DejaVuSans-31"/>
      <use xlink:href="#DejaVuSans-36" transform="translate(63.623047 0)"/>
      <use xlink:href="#DejaVuSans-20" transform="translate(127.246094 0)"/>
      <use xlink:href="#DejaVuSans-74" transform="translate(159.033203 0)"/>
      <use xlink:href="#DejaVuSans-68" transform="translate(198.242188 0)"/>
      <use xlink:href="#DejaVuSans-72" transform="translate(261.621094 0)"/>
      <use xlink:href="#DejaVuSans-65" transform="translate(300.484375 0)"/>
      <use xlink:href="#DejaVuSans-61" transform="translate(362.007812 0)"/>
      <use xlink:href="#DejaVuSans-64" transform="translate(423.287109 0)"/>
      <use xlink:href="#DejaVuSans-73" transform="translate(486.763672 0)"/>
     </g>
    </g>
    <g id="line2d_32">
     <path d="M 282.066562 68.614688 
L 292.066562 68.614688 
L 302.066562 68.614688 
" style="fill: none; stroke: #61409b; stroke-width: 1.5; stroke-linecap: square"/>
     <g>
      <use xlink:href="#m382f094be7" x="292.066562" y="68.614688" style="fill: #61409b; stroke: #61409b"/>
     </g>
    </g>
    <g id="text_19">
     <!-- 32 threads -->
     <g transform="translate(310.066562 72.114688) scale(0.1 -0.1)">
      <defs>
       <path id="DejaVuSans-33" d="M 2597 2516 
Q 3050 2419 3304 2112 
Q 3559 1806 3559 1356 
Q 3559 666 3084 287 
Q 2609 -91 1734 -91 
Q 1441 -91 1130 -33 
Q 819 25 488 141 
L 488 750 
Q 750 597 1062 519 
Q 1375 441 1716 441 
Q 2309 441 2620 675 
Q 2931 909 2931 1356 
Q 2931 1769 2642 2001 
Q 2353 2234 1838 2234 
L 1294 2234 
L 1294 2753 
L 1863 2753 
Q 2328 2753 2575 2939 
Q 2822 3125 2822 3475 
Q 2822 3834 2567 4026 
Q 2313 4219 1838 4219 
Q 1578 4219 1281 4162 
Q 984 4106 628 3988 
L 628 4550 
Q 988 4650 1302 4700 
Q 1616 4750 1894 4750 
Q 2613 4750 3031 4423 
Q 3450 4097 3450 3541 
Q 3450 3153 3228 2886 
Q 3006 2619 2597 2516 
z
" transform="scale(0.015625)"/>
      </defs>
      <use xlink:href="#DejaVuSans-33"/>
      <use xlink:href="#DejaVuSans-32" transform="translate(63.623047 0)"/>
      <use xlink:href="#DejaVuSans-20" transform="translate(127.246094 0)"/>
      <use xlink:href="#DejaVuSans-74" transform="translate(159.033203 0)"/>
      <use xlink:href="#DejaVuSans-68" transform="translate(198.242188 0)"/>
      <use xlink:href="#DejaVuSans-72" transform="translate(261.621094 0)"/>
      <use xlink:href="#DejaVuSans-65" transform="translate(300.484375 0)"/>
      <use xlink:href="#DejaVuSans-61" transform="translate(362.007812 0)"/>
      <use xlink:href="#DejaVuSans-64" transform="translate(423.287109 0)"/>
      <use xlink:href="#DejaVuSans-73" transform="translate(486.763672 0)"/>
     </g>
    </g>
   </g>
  </g>
  <g id="axes_2">
   <g id="patch_8">
    <path d="M 387.2525 246.04 
L 709.2 246.04 
L 709.2 26.16 
L 387.2525 26.16 
z
" style="fill: #ffffff"/>
   </g>
   <g id="matplotlib.axis_3">
    <g id="xtick_5">
     <g id="line2d_33">
      <path d="M 401.886477 246.04 
L 401.886477 26.16 
" clip-path="url(#p2c22ce84f5)" style="fill: none; stroke: #b0b0b0; stroke-width: 0.8; stroke-linecap: square"/>
     </g>
     <g id="line2d_34">
      <g>
       <use xlink:href="#m70bbd86e65" x="401.886477" y="246.04" style="stroke: #000000; stroke-width: 0.8"/>
      </g>
     </g>
     <g id="text_20">
      <!-- 1 -->
      <g transform="translate(398.705227 260.638438) scale(0.1 -0.1)">
       <use xlink:href="#DejaVuSans-31"/>
      </g>
     </g>
    </g>
    <g id="xtick_6">
     <g id="line2d_35">
      <path d="M 499.446326 246.04 
L 499.446326 26.16 
" clip-path="url(#p2c22ce84f5)" style="fill: none; stroke: #b0b0b0; stroke-width: 0.8; stroke-linecap: square"/>
     </g>
     <g id="line2d_36">
      <g>
       <use xlink:href="#m70bbd86e65" x="499.446326" y="246.04" style="stroke: #000000; stroke-width: 0.8"/>
      </g>
     </g>
     <g id="text_21">
      <!-- 2 -->
      <g transform="translate(496.265076 260.638438) scale(0.1 -0.1)">
       <use xlink:href="#DejaVuSans-32"/>
      </g>
     </g>
    </g>
    <g id="xtick_7">
     <g id="line2d_37">
      <path d="M 597.006174 246.04 
L 597.006174 26.16 
" clip-path="url(#p2c22ce84f5)" style="fill: none; stroke: #b0b0b0; stroke-width: 0.8; stroke-linecap: square"/>
     </g>
     <g id="line2d_38">
      <g>
       <use xlink:href="#m70bbd86e65" x="597.006174" y="246.04" style="stroke: #000000; stroke-width: 0.8"/>
      </g>
     </g>
     <g id="text_22">
      <!-- 4 -->
      <g transform="translate(593.824924 260.638438) scale(0.1 -0.1)">
       <use xlink:href="#DejaVuSans-34"/>
      </g>
     </g>
    </g>
    <g id="xtick_8">
     <g id="line2d_39">
      <path d="M 694.566023 246.04 
L 694.566023 26.16 
" clip-path="url(#p2c22ce84f5)" style="fill: none; stroke: #b0b0b0; stroke-width: 0.8; stroke-linecap: square"/>
     </g>
     <g id="line2d_40">
      <g>
       <use xlink:href="#m70bbd86e65" x="694.566023" y="246.04" style="stroke: #000000; stroke-width: 0.8"/>
      </g>
     </g>
     <g id="text_23">
      <!-- 8 -->
      <g transform="translate(691.384773 260.638438) scale(0.1 -0.1)">
       <use xlink:href="#DejaVuSans-38"/>
      </g>
     </g>
    </g>
    <g id="text_24">
     <!-- Nodes -->
     <g transform="translate(532.570781 274.316562) scale(0.1 -0.1)">
      <use xlink:href="#DejaVuSans-4e"/>
      <use xlink:href="#DejaVuSans-6f" transform="translate(74.804688 0)"/>
      <use xlink:href="#DejaVuSans-64" transform="translate(135.986328 0)"/>
      <use xlink:href="#DejaVuSans-65" transform="translate(199.462891 0)"/>
      <use xlink:href="#DejaVuSans-73" transform="translate(260.986328 0)"/>
     </g>
    </g>
   </g>
   <g id="matplotlib.axis_4">
    <g id="ytick_10">
     <g id="line2d_41">
      <path d="M 387.2525 244.580268 
L 709.2 244.580268 
" clip-path="url(#p2c22ce84f5)" style="fill: none; stroke: #b0b0b0; stroke-width: 0.8; stroke-linecap: square"/>
     </g>
     <g id="line2d_42">
      <g>
       <use xlink:href="#m97d6d23e40" x="387.2525" y="244.580268" style="stroke: #000000; stroke-width: 0.8"/>
      </g>
     </g>
    </g>
    <g id="ytick_11">
     <g id="line2d_43">
      <path d="M 387.2525 219.937855 
L 709.2 219.937855 
" clip-path="url(#p2c22ce84f5)" style="fill: none; stroke: #b0b0b0; stroke-width: 0.8; stroke-linecap: square"/>
     </g>
     <g id="line2d_44">
      <g>
       <use xlink:href="#m97d6d23e40" x="387.2525" y="219.937855" style="stroke: #000000; stroke-width: 0.8"/>
      </g>
     </g>
    </g>
    <g id="ytick_12">
     <g id="line2d_45">
      <path d="M 387.2525 195.295443 
L 709.2 195.295443 
" clip-path="url(#p2c22ce84f5)" style="fill: none; stroke: #b0b0b0; stroke-width: 0.8; stroke-linecap: square"/>
     </g>
     <g id="line2d_46">
      <g>
       <use xlink:href="#m97d6d23e40" x="387.2525" y="195.295443" style="stroke: #000000; stroke-width: 0.8"/>
      </g>
     </g>
    </g>
    <g id="ytick_13">
     <g id="line2d_47">
      <path d="M 387.2525 170.65303 
L 709.2 170.65303 
" clip-path="url(#p2c22ce84f5)" style="fill: none; stroke: #b0b0b0; stroke-width: 0.8; stroke-linecap: square"/>
     </g>
     <g id="line2d_48">
      <g>
       <use xlink:href="#m97d6d23e40" x="387.2525" y="170.65303" style="stroke: #000000; stroke-width: 0.8"/>
      </g>
     </g>
    </g>
    <g id="ytick_14">
     <g id="line2d_49">
      <path d="M 387.2525 146.010618 
L 709.2 146.010618 
" clip-path="url(#p2c22ce84f5)" style="fill: none; stroke: #b0b0b0; stroke-width: 0.8; stroke-linecap: square"/>
     </g>
     <g id="line2d_50">
      <g>
       <use xlink:href="#m97d6d23e40" x="387.2525" y="146.010618" style="stroke: #000000; stroke-width: 0.8"/>
      </g>
     </g>
    </g>
    <g id="ytick_15">
     <g id="line2d_51">
      <path d="M 387.2525 121.368205 
L 709.2 121.368205 
" clip-path="url(#p2c22ce84f5)" style="fill: none; stroke: #b0b0b0; stroke-width: 0.8; stroke-linecap: square"/>
     </g>
     <g id="line2d_52">
      <g>
       <use xlink:href="#m97d6d23e40" x="387.2525" y="121.368205" style="stroke: #000000; stroke-width: 0.8"/>
      </g>
     </g>
    </g>
    <g id="ytick_16">
     <g id="line2d_53">
      <path d="M 387.2525 96.725793 
L 709.2 96.725793 
" clip-path="url(#p2c22ce84f5)" style="fill: none; stroke: #b0b0b0; stroke-width: 0.8; stroke-linecap: square"/>
     </g>
     <g id="line2d_54">
      <g>
       <use xlink:href="#m97d6d23e40" x="387.2525" y="96.725793" style="stroke: #000000; stroke-width: 0.8"/>
      </g>
     </g>
    </g>
    <g id="ytick_17">
     <g id="line2d_55">
      <path d="M 387.2525 72.08338 
L 709.2 72.08338 
" clip-path="url(#p2c22ce84f5)" style="fill: none; stroke: #b0b0b0; stroke-width: 0.8; stroke-linecap: square"/>
     </g>
     <g id="line2d_56">
      <g>
       <use xlink:href="#m97d6d23e40" x="387.2525" y="72.08338" style="stroke: #000000; stroke-width: 0.8"/>
      </g>
     </g>
    </g>
    <g id="ytick_18">
     <g id="line2d_57">
      <path d="M 387.2525 47.440968 
L 709.2 47.440968 
" clip-path="url(#p2c22ce84f5)" style="fill: none; stroke: #b0b0b0; stroke-width: 0.8; stroke-linecap: square"/>
     </g>
     <g id="line2d_58">
      <g>
       <use xlink:href="#m97d6d23e40" x="387.2525" y="47.440968" style="stroke: #000000; stroke-width: 0.8"/>
      </g>
     </g>
    </g>
   </g>
   <g id="line2d_59">
    <path d="M 401.886477 102.56358 
L 499.446326 36.154545 
L 597.006174 55.828432 
L 694.566023 153.25216 
" clip-path="url(#p2c22ce84f5)" style="fill: none; stroke: #b6b6d8; stroke-width: 1.5; stroke-linecap: square"/>
    <g clip-path="url(#p2c22ce84f5)">
     <use xlink:href="#mbe8a545ede" x="401.886477" y="102.56358" style="fill: #b6b6d8; stroke: #b6b6d8"/>
     <use xlink:href="#mbe8a545ede" x="499.446326" y="36.154545" style="fill: #b6b6d8; stroke: #b6b6d8"/>
     <use xlink:href="#mbe8a545ede" x="597.006174" y="55.828432" style="fill: #b6b6d8; stroke: #b6b6d8"/>
     <use xlink:href="#mbe8a545ede" x="694.566023" y="153.25216" style="fill: #b6b6d8; stroke: #b6b6d8"/>
    </g>
   </g>
   <g id="line2d_60">
    <path d="M 401.886477 146.763074 
L 499.446326 159.110278 
L 597.006174 147.557939 
L 694.566023 147.48793 
" clip-path="url(#p2c22ce84f5)" style="fill: none; stroke: #8683bd; stroke-width: 1.5; stroke-linecap: square"/>
    <g clip-path="url(#p2c22ce84f5)">
     <use xlink:href="#mf7771538e7" x="401.886477" y="146.763074" style="fill: #8683bd; stroke: #8683bd"/>
     <use xlink:href="#mf7771538e7" x="499.446326" y="159.110278" style="fill: #8683bd; stroke: #8683bd"/>
     <use xlink:href="#mf7771538e7" x="597.006174" y="147.557939" style="fill: #8683bd; stroke: #8683bd"/>
     <use xlink:href="#mf7771538e7" x="694.566023" y="147.48793" style="fill: #8683bd; stroke: #8683bd"/>
    </g>
   </g>
   <g id="line2d_61">
    <path d="M 401.886477 183.517725 
L 499.446326 90.80151 
L 597.006174 179.868849 
L 694.566023 188.027755 
" clip-path="url(#p2c22ce84f5)" style="fill: none; stroke: #61409b; stroke-width: 1.5; stroke-linecap: square"/>
    <g clip-path="url(#p2c22ce84f5)">
     <use xlink:href="#m382f094be7" x="401.886477" y="183.517725" style="fill: #61409b; stroke: #61409b"/>
     <use xlink:href="#m382f094be7" x="499.446326" y="90.80151" style="fill: #61409b; stroke: #61409b"/>
     <use xlink:href="#m382f094be7" x="597.006174" y="179.868849" style="fill: #61409b; stroke: #61409b"/>
     <use xlink:href="#m382f094be7" x="694.566023" y="188.027755" style="fill: #61409b; stroke: #61409b"/>
    </g>
   </g>
   <g id="patch_9">
    <path d="M 387.2525 246.04 
L 387.2525 26.16 
" style="fill: none; stroke: #000000; stroke-width: 0.8; stroke-linejoin: miter; stroke-linecap: square"/>
   </g>
   <g id="patch_10">
    <path d="M 709.2 246.04 
L 709.2 26.16 
" style="fill: none; stroke: #000000; stroke-width: 0.8; stroke-linejoin: miter; stroke-linecap: square"/>
   </g>
   <g id="patch_11">
    <path d="M 387.2525 246.04 
L 709.2 246.04 
" style="fill: none; stroke: #000000; stroke-width: 0.8; stroke-linejoin: miter; stroke-linecap: square"/>
   </g>
   <g id="patch_12">
    <path d="M 387.2525 26.16 
L 709.2 26.16 
" style="fill: none; stroke: #000000; stroke-width: 0.8; stroke-linejoin: miter; stroke-linecap: square"/>
   </g>
   <g id="text_25">
    <!-- SUSY 100k Prediction Time -->
    <g transform="translate(467.420313 20.16) scale(0.12 -0.12)">
     <use xlink:href="#DejaVuSans-53"/>
     <use xlink:href="#DejaVuSans-55" transform="translate(63.476562 0)"/>
     <use xlink:href="#DejaVuSans-53" transform="translate(136.669922 0)"/>
     <use xlink:href="#DejaVuSans-59" transform="translate(200.146484 0)"/>
     <use xlink:href="#DejaVuSans-20" transform="translate(261.230469 0)"/>
     <use xlink:href="#DejaVuSans-31" transform="translate(293.017578 0)"/>
     <use xlink:href="#DejaVuSans-30" transform="translate(356.640625 0)"/>
     <use xlink:href="#DejaVuSans-30" transform="translate(420.263672 0)"/>
     <use xlink:href="#DejaVuSans-6b" transform="translate(483.886719 0)"/>
     <use xlink:href="#DejaVuSans-20" transform="translate(541.796875 0)"/>
     <use xlink:href="#DejaVuSans-50" transform="translate(573.583984 0)"/>
     <use xlink:href="#DejaVuSans-72" transform="translate(632.136719 0)"/>
     <use xlink:href="#DejaVuSans-65" transform="translate(671 0)"/>
     <use xlink:href="#DejaVuSans-64" transform="translate(732.523438 0)"/>
     <use xlink:href="#DejaVuSans-69" transform="translate(796 0)"/>
     <use xlink:href="#DejaVuSans-63" transform="translate(823.783203 0)"/>
     <use xlink:href="#DejaVuSans-74" transform="translate(878.763672 0)"/>
     <use xlink:href="#DejaVuSans-69" transform="translate(917.972656 0)"/>
     <use xlink:href="#DejaVuSans-6f" transform="translate(945.755859 0)"/>
     <use xlink:href="#DejaVuSans-6e" transform="translate(1006.9375 0)"/>
     <use xlink:href="#DejaVuSans-20" transform="translate(1070.316406 0)"/>
     <use xlink:href="#DejaVuSans-54" transform="translate(1102.103516 0)"/>
     <use xlink:href="#DejaVuSans-69" transform="translate(1160.0625 0)"/>
     <use xlink:href="#DejaVuSans-6d" transform="translate(1187.845703 0)"/>
     <use xlink:href="#DejaVuSans-65" transform="translate(1285.257812 0)"/>
    </g>
   </g>
   <g id="legend_2">
    <g id="patch_13">
     <path d="M 394.2525 241.04 
L 480.138438 241.04 
Q 482.138438 241.04 482.138438 239.04 
L 482.138438 196.005625 
Q 482.138438 194.005625 480.138438 194.005625 
L 394.2525 194.005625 
Q 392.2525 194.005625 392.2525 196.005625 
L 392.2525 239.04 
Q 392.2525 241.04 394.2525 241.04 
z
" style="fill: #ffffff; opacity: 0.8; stroke: #cccccc; stroke-linejoin: miter"/>
    </g>
    <g id="line2d_62">
     <path d="M 396.2525 202.104062 
L 406.2525 202.104062 
L 416.2525 202.104062 
" style="fill: none; stroke: #b6b6d8; stroke-width: 1.5; stroke-linecap: square"/>
     <g>
      <use xlink:href="#mbe8a545ede" x="406.2525" y="202.104062" style="fill: #b6b6d8; stroke: #b6b6d8"/>
     </g>
    </g>
    <g id="text_26">
     <!-- 8 threads -->
     <g transform="translate(424.2525 205.604062) scale(0.1 -0.1)">
      <use xlink:href="#DejaVuSans-38"/>
      <use xlink:href="#DejaVuSans-20" transform="translate(63.623047 0)"/>
      <use xlink:href="#DejaVuSans-74" transform="translate(95.410156 0)"/>
      <use xlink:href="#DejaVuSans-68" transform="translate(134.619141 0)"/>
      <use xlink:href="#DejaVuSans-72" transform="translate(197.998047 0)"/>
      <use xlink:href="#DejaVuSans-65" transform="translate(236.861328 0)"/>
      <use xlink:href="#DejaVuSans-61" transform="translate(298.384766 0)"/>
      <use xlink:href="#DejaVuSans-64" transform="translate(359.664062 0)"/>
      <use xlink:href="#DejaVuSans-73" transform="translate(423.140625 0)"/>
     </g>
    </g>
    <g id="line2d_63">
     <path d="M 396.2525 216.782187 
L 406.2525 216.782187 
L 416.2525 216.782187 
" style="fill: none; stroke: #8683bd; stroke-width: 1.5; stroke-linecap: square"/>
     <g>
      <use xlink:href="#mf7771538e7" x="406.2525" y="216.782187" style="fill: #8683bd; stroke: #8683bd"/>
     </g>
    </g>
    <g id="text_27">
     <!-- 16 threads -->
     <g transform="translate(424.2525 220.282187) scale(0.1 -0.1)">
      <use xlink:href="#DejaVuSans-31"/>
      <use xlink:href="#DejaVuSans-36" transform="translate(63.623047 0)"/>
      <use xlink:href="#DejaVuSans-20" transform="translate(127.246094 0)"/>
      <use xlink:href="#DejaVuSans-74" transform="translate(159.033203 0)"/>
      <use xlink:href="#DejaVuSans-68" transform="translate(198.242188 0)"/>
      <use xlink:href="#DejaVuSans-72" transform="translate(261.621094 0)"/>
      <use xlink:href="#DejaVuSans-65" transform="translate(300.484375 0)"/>
      <use xlink:href="#DejaVuSans-61" transform="translate(362.007812 0)"/>
      <use xlink:href="#DejaVuSans-64" transform="translate(423.287109 0)"/>
      <use xlink:href="#DejaVuSans-73" transform="translate(486.763672 0)"/>
     </g>
    </g>
    <g id="line2d_64">
     <path d="M 396.2525 231.460312 
L 406.2525 231.460312 
L 416.2525 231.460312 
" style="fill: none; stroke: #61409b; stroke-width: 1.5; stroke-linecap: square"/>
     <g>
      <use xlink:href="#m382f094be7" x="406.2525" y="231.460312" style="fill: #61409b; stroke: #61409b"/>
     </g>
    </g>
    <g id="text_28">
     <!-- 32 threads -->
     <g transform="translate(424.2525 234.960312) scale(0.1 -0.1)">
      <use xlink:href="#DejaVuSans-33"/>
      <use xlink:href="#DejaVuSans-32" transform="translate(63.623047 0)"/>
      <use xlink:href="#DejaVuSans-20" transform="translate(127.246094 0)"/>
      <use xlink:href="#DejaVuSans-74" transform="translate(159.033203 0)"/>
      <use xlink:href="#DejaVuSans-68" transform="translate(198.242188 0)"/>
      <use xlink:href="#DejaVuSans-72" transform="translate(261.621094 0)"/>
      <use xlink:href="#DejaVuSans-65" transform="translate(300.484375 0)"/>
      <use xlink:href="#DejaVuSans-61" transform="translate(362.007812 0)"/>
      <use xlink:href="#DejaVuSans-64" transform="translate(423.287109 0)"/>
      <use xlink:href="#DejaVuSans-73" transform="translate(486.763672 0)"/>
     </g>
    </g>
   </g>
  </g>
 </g>
 <defs>
  <clipPath id="p38d9a44db6">
   <rect x="51.005" y="26.16" width="321.9475" height="219.88"/>
  </clipPath>
  <clipPath id="p2c22ce84f5">
   <rect x="387.2525" y="26.16" width="321.9475" height="219.88"/>
  </clipPath>
 </defs>
</svg>
