<?xml version="1.0" encoding="utf-8" standalone="no"?>
<!DOCTYPE svg PUBLIC "-//W3C//DTD SVG 1.1//EN"
  "http://www.w3.org/Graphics/SVG/1.1/DTD/svg11.dtd">
<svg xmlns:xlink="http://www.w3.org/1999/xlink" width="720pt" height="288pt" viewBox="0 0 720 288" xmlns="http://www.w3.org/2000/svg" version="1.1">
 <metadata>
  <rdf:RDF xmlns:dc="http://purl.org/dc/elements/1.1/" xmlns:cc="http://creativecommons.org/ns#" xmlns:rdf="http://www.w3.org/1999/02/22-rdf-syntax-ns#">
   <cc:Work>
    <dc:type rdf:resource="http://purl.org/dc/dcmitype/StillImage"/>
    <dc:date>2026-01-30T03:14:11.200370</dc:date>
    <dc:format>image/svg+xml</dc:format>
    <dc:creator>
     <cc:Agent>
      <dc:title>Matplotlib v3.10.8, https://matplotlib.org/</dc:title>
     </cc:Agent>
    </dc:creator>
   </cc:Work>
  </rdf:RDF>
 </metadata>
 <defs>
  <style type="text/css">*{stroke-linejoin: round; stroke-linecap: butt}</style>
 </defs>
 <g id="figure_1">
  <g id="patch_1">
   <path d="M 0 288 
L 720 288 
L 720 0 
L 0 0 
z
" style="fill: #ffffff"/>
  </g>
  <g id="axes_1">
   <g id="patch_2">
    <path d="M 48.741112 246.04 
L 371.820556 246.04 
L 371.820556 26.16 
L 48.741112 26.16 
z
" style="fill: #ffffff"/>
   </g>
   <g id="matplotlib.axis_1">
    <g id="xtick_1">
     <g id="line2d_1">
      <path d="M 63.426541 246.04 
L 63.426541 26.16 
" clip-path="url(#pf8f0250d19)" style="fill: none; stroke: #b0b0b0; stroke-width: 0.8; stroke-linecap: square"/>
     </g>
     <g id="line2d_2">
      <defs>
       <path id="m3b10a00006" d="M 0 0 
L 0 3.5 
" style="stroke: #000000; stroke-width: 0.8"/>
      </defs>
      <g>
       <use xlink:href="#m3b10a00006" x="63.426541" y="246.04" style="stroke: #000000; stroke-width: 0.8"/>
      </g>
     </g>
     <g id="text_1">
      <!-- 1 -->
      <g transform="translate(60.245291 260.638438) scale(0.1 -0.1)">
       <defs>
        <path id="DejaVuSans-31" d="M 794 531 
L 1825 531 
L 1825 4091 
L 703 3866 
L 703 4441 
L 1819 4666 
L 2450 4666 
L 2450 531 
L 3481 531 
L 3481 0 
L 794 0 
L 794 531 
z
" transform="scale(0.015625)"/>
       </defs>
       <use xlink:href="#DejaVuSans-31"/>
      </g>
     </g>
    </g>
    <g id="xtick_2">
     <g id="line2d_3">
      <path d="M 161.329403 246.04 
L 161.329403 26.16 
" clip-path="url(#pf8f0250d19)" style="fill: none; stroke: #b0b0b0; stroke-width: 0.8; stroke-linecap: square"/>
     </g>
     <g id="line2d_4">
      <g>
       <use xlink:href="#m3b10a00006" x="161.329403" y="246.04" style="stroke: #000000; stroke-width: 0.8"/>
      </g>
     </g>
     <g id="text_2">
      <!-- 2 -->
      <g transform="translate(158.148153 260.638438) scale(0.1 -0.1)">
       <defs>
        <path id="DejaVuSans-32" d="M 1228 531 
L 3431 531 
L 3431 0 
L 469 0 
L 469 531 
Q 828 903 1448 1529 
Q 2069 2156 2228 2338 
Q 2531 2678 2651 2914 
Q 2772 3150 2772 3378 
Q 2772 3750 2511 3984 
Q 2250 4219 1831 4219 
Q 1534 4219 1204 4116 
Q 875 4013 500 3803 
L 500 4441 
Q 881 4594 1212 4672 
Q 1544 4750 1819 4750 
Q 2544 4750 2975 4387 
Q 3406 4025 3406 3419 
Q 3406 3131 3298 2873 
Q 3191 2616 2906 2266 
Q 2828 2175 2409 1742 
Q 1991 1309 1228 531 
z
" transform="scale(0.015625)"/>
       </defs>
       <use xlink:href="#DejaVuSans-32"/>
      </g>
     </g>
    </g>
    <g id="xtick_3">
     <g id="line2d_5">
      <path d="M 259.232265 246.04 
L 259.232265 26.16 
" clip-path="url(#pf8f0250d19)" style="fill: none; stroke: #b0b0b0; stroke-width: 0.8; stroke-linecap: square"/>
     </g>
     <g id="line2d_6">
      <g>
       <use xlink:href="#m3b10a00006" x="259.232265" y="246.04" style="stroke: #000000; stroke-width: 0.8"/>
      </g>
     </g>
     <g id="text_3">
      <!-- 4 -->
      <g transform="translate(256.051015 260.638438) scale(0.1 -0.1)">
       <defs>
        <path id="DejaVuSans-34" d="M 2419 4116 
L 825 1625 
L 2419 1625 
L 2419 4116 
z
M 2253 4666 
L 3047 4666 
L 3047 1625 
L 3713 1625 
L 3713 1100 
L 3047 1100 
L 3047 0 
L 2419 0 
L 2419 1100 
L 313 1100 
L 313 1709 
L 2253 4666 
z
" transform="scale(0.015625)"/>
       </defs>
       <use xlink:href="#DejaVuSans-34"/>
      </g>
     </g>
    </g>
    <g id="xtick_4">
     <g id="line2d_7">
      <path d="M 357.135126 246.04 
L 357.135126 26.16 
" clip-path="url(#pf8f0250d19)" style="fill: none; stroke: #b0b0b0; stroke-width: 0.8; stroke-linecap: square"/>
     </g>
     <g id="line2d_8">
      <g>
       <use xlink:href="#m3b10a00006" x="357.135126" y="246.04" style="stroke: #000000; stroke-width: 0.8"/>
      </g>
     </g>
     <g id="text_4">
      <!-- 8 -->
      <g transform="translate(353.953876 260.638438) scale(0.1 -0.1)">
       <defs>
        <path id="DejaVuSans-38" d="M 2034 2216 
Q 1584 2216 1326 1975 
Q 1069 1734 1069 1313 
Q 1069 891 1326 650 
Q 1584 409 2034 409 
Q 2484 409 2743 651 
Q 3003 894 3003 1313 
Q 3003 1734 2745 1975 
Q 2488 2216 2034 2216 
z
M 1403 2484 
Q 997 2584 770 2862 
Q 544 3141 544 3541 
Q 544 4100 942 4425 
Q 1341 4750 2034 4750 
Q 2731 4750 3128 4425 
Q 3525 4100 3525 3541 
Q 3525 3141 3298 2862 
Q 3072 2584 2669 2484 
Q 3125 2378 3379 2068 
Q 3634 1759 3634 1313 
Q 3634 634 3220 271 
Q 2806 -91 2034 -91 
Q 1263 -91 848 271 
Q 434 634 434 1313 
Q 434 1759 690 2068 
Q 947 2378 1403 2484 
z
M 1172 3481 
Q 1172 3119 1398 2916 
Q 1625 2713 2034 2713 
Q 2441 2713 2670 2916 
Q 2900 3119 2900 3481 
Q 2900 3844 2670 4047 
Q 2441 4250 2034 4250 
Q 1625 4250 1398 4047 
Q 1172 3844 1172 3481 
z
" transform="scale(0.015625)"/>
       </defs>
       <use xlink:href="#DejaVuSans-38"/>
      </g>
     </g>
    </g>
    <g id="text_5">
     <!-- Nodes -->
     <g transform="translate(194.625365 274.316562) scale(0.1 -0.1)">
      <defs>
       <path id="DejaVuSans-4e" d="M 628 4666 
L 1478 4666 
L 3547 763 
L 3547 4666 
L 4159 4666 
L 4159 0 
L 3309 0 
L 1241 3903 
L 1241 0 
L 628 0 
L 628 4666 
z
" transform="scale(0.015625)"/>
       <path id="DejaVuSans-6f" d="M 1959 3097 
Q 1497 3097 1228 2736 
Q 959 2375 959 1747 
Q 959 1119 1226 758 
Q 1494 397 1959 397 
Q 2419 397 2687 759 
Q 2956 1122 2956 1747 
Q 2956 2369 2687 2733 
Q 2419 3097 1959 3097 
z
M 1959 3584 
Q 2709 3584 3137 3096 
Q 3566 2609 3566 1747 
Q 3566 888 3137 398 
Q 2709 -91 1959 -91 
Q 1206 -91 779 398 
Q 353 888 353 1747 
Q 353 2609 779 3096 
Q 1206 3584 1959 3584 
z
" transform="scale(0.015625)"/>
       <path id="DejaVuSans-64" d="M 2906 2969 
L 2906 4863 
L 3481 4863 
L 3481 0 
L 2906 0 
L 2906 525 
Q 2725 213 2448 61 
Q 2172 -91 1784 -91 
Q 1150 -91 751 415 
Q 353 922 353 1747 
Q 353 2572 751 3078 
Q 1150 3584 1784 3584 
Q 2172 3584 2448 3432 
Q 2725 3281 2906 2969 
z
M 947 1747 
Q 947 1113 1208 752 
Q 1469 391 1925 391 
Q 2381 391 2643 752 
Q 2906 1113 2906 1747 
Q 2906 2381 2643 2742 
Q 2381 3103 1925 3103 
Q 1469 3103 1208 2742 
Q 947 2381 947 1747 
z
" transform="scale(0.015625)"/>
       <path id="DejaVuSans-65" d="M 3597 1894 
L 3597 1613 
L 953 1613 
Q 991 1019 1311 708 
Q 1631 397 2203 397 
Q 2534 397 2845 478 
Q 3156 559 3463 722 
L 3463 178 
Q 3153 47 2828 -22 
Q 2503 -91 2169 -91 
Q 1331 -91 842 396 
Q 353 884 353 1716 
Q 353 2575 817 3079 
Q 1281 3584 2069 3584 
Q 2775 3584 3186 3129 
Q 3597 2675 3597 1894 
z
M 3022 2063 
Q 3016 2534 2758 2815 
Q 2500 3097 2075 3097 
Q 1594 3097 1305 2825 
Q 1016 2553 972 2059 
L 3022 2063 
z
" transform="scale(0.015625)"/>
       <path id="DejaVuSans-73" d="M 2834 3397 
L 2834 2853 
Q 2591 2978 2328 3040 
Q 2066 3103 1784 3103 
Q 1356 3103 1142 2972 
Q 928 2841 928 2578 
Q 928 2378 1081 2264 
Q 1234 2150 1697 2047 
L 1894 2003 
Q 2506 1872 2764 1633 
Q 3022 1394 3022 966 
Q 3022 478 2636 193 
Q 2250 -91 1575 -91 
Q 1294 -91 989 -36 
Q 684 19 347 128 
L 347 722 
Q 666 556 975 473 
Q 1284 391 1588 391 
Q 1994 391 2212 530 
Q 2431 669 2431 922 
Q 2431 1156 2273 1281 
Q 2116 1406 1581 1522 
L 1381 1569 
Q 847 1681 609 1914 
Q 372 2147 372 2553 
Q 372 3047 722 3315 
Q 1072 3584 1716 3584 
Q 2034 3584 2315 3537 
Q 2597 3491 2834 3397 
z
" transform="scale(0.015625)"/>
      </defs>
      <use xlink:href="#DejaVuSans-4e"/>
      <use xlink:href="#DejaVuSans-6f" transform="translate(74.804688 0)"/>
      <use xlink:href="#DejaVuSans-64" transform="translate(135.986328 0)"/>
      <use xlink:href="#DejaVuSans-65" transform="translate(199.462891 0)"/>
      <use xlink:href="#DejaVuSans-73" transform="translate(260.986328 0)"/>
     </g>
    </g>
   </g>
   <g id="matplotlib.axis_2">
    <g id="ytick_1">
     <g id="line2d_9">
      <path d="M 48.741112 243.698837 
L 371.820556 243.698837 
" clip-path="url(#pf8f0250d19)" style="fill: none; stroke: #b0b0b0; stroke-width: 0.8; stroke-linecap: square"/>
     </g>
     <g id="line2d_10">
      <defs>
       <path id="mcea6622c55" d="M 0 0 
L -3.5 0 
" style="stroke: #000000; stroke-width: 0.8"/>
      </defs>
      <g>
       <use xlink:href="#mcea6622c55" x="48.741112" y="243.698837" style="stroke: #000000; stroke-width: 0.8"/>
      </g>
     </g>
     <g id="text_6">
      <!-- $\mathdefault{2^{-2}}$ -->
      <g transform="translate(24.641112 247.498055) scale(0.1 -0.1)">
       <defs>
        <path id="DejaVuSans-2212" d="M 678 2272 
L 4684 2272 
L 4684 1741 
L 678 1741 
L 678 2272 
z
" transform="scale(0.015625)"/>
       </defs>
       <use xlink:href="#DejaVuSans-32" transform="translate(0 0.765625)"/>
       <use xlink:href="#DejaVuSans-2212" transform="translate(64.580078 39.046875) scale(0.7)"/>
       <use xlink:href="#DejaVuSans-32" transform="translate(123.232422 39.046875) scale(0.7)"/>
      </g>
     </g>
    </g>
    <g id="ytick_2">
     <g id="line2d_11">
      <path d="M 48.741112 202.189978 
L 371.820556 202.189978 
" clip-path="url(#pf8f0250d19)" style="fill: none; stroke: #b0b0b0; stroke-width: 0.8; stroke-linecap: square"/>
     </g>
     <g id="line2d_12">
      <g>
       <use xlink:href="#mcea6622c55" x="48.741112" y="202.189978" style="stroke: #000000; stroke-width: 0.8"/>
      </g>
     </g>
     <g id="text_7">
      <!-- $\mathdefault{2^{-1}}$ -->
      <g transform="translate(24.641112 205.989197) scale(0.1 -0.1)">
       <use xlink:href="#DejaVuSans-32" transform="translate(0 0.684375)"/>
       <use xlink:href="#DejaVuSans-2212" transform="translate(64.580078 38.965625) scale(0.7)"/>
       <use xlink:href="#DejaVuSans-31" transform="translate(123.232422 38.965625) scale(0.7)"/>
      </g>
     </g>
    </g>
    <g id="ytick_3">
     <g id="line2d_13">
      <path d="M 48.741112 160.68112 
L 371.820556 160.68112 
" clip-path="url(#pf8f0250d19)" style="fill: none; stroke: #b0b0b0; stroke-width: 0.8; stroke-linecap: square"/>
     </g>
     <g id="line2d_14">
      <g>
       <use xlink:href="#mcea6622c55" x="48.741112" y="160.68112" style="stroke: #000000; stroke-width: 0.8"/>
      </g>
     </g>
     <g id="text_8">
      <!-- $\mathdefault{2^{0}}$ -->
      <g transform="translate(30.541112 164.480339) scale(0.1 -0.1)">
       <defs>
        <path id="DejaVuSans-30" d="M 2034 4250 
Q 1547 4250 1301 3770 
Q 1056 3291 1056 2328 
Q 1056 1369 1301 889 
Q 1547 409 2034 409 
Q 2525 409 2770 889 
Q 3016 1369 3016 2328 
Q 3016 3291 2770 3770 
Q 2525 4250 2034 4250 
z
M 2034 4750 
Q 2819 4750 3233 4129 
Q 3647 3509 3647 2328 
Q 3647 1150 3233 529 
Q 2819 -91 2034 -91 
Q 1250 -91 836 529 
Q 422 1150 422 2328 
Q 422 3509 836 4129 
Q 1250 4750 2034 4750 
z
" transform="scale(0.015625)"/>
       </defs>
       <use xlink:href="#DejaVuSans-32" transform="translate(0 0.765625)"/>
       <use xlink:href="#DejaVuSans-30" transform="translate(64.580078 39.046875) scale(0.7)"/>
      </g>
     </g>
    </g>
    <g id="ytick_4">
     <g id="line2d_15">
      <path d="M 48.741112 119.172262 
L 371.820556 119.172262 
" clip-path="url(#pf8f0250d19)" style="fill: none; stroke: #b0b0b0; stroke-width: 0.8; stroke-linecap: square"/>
     </g>
     <g id="line2d_16">
      <g>
       <use xlink:href="#mcea6622c55" x="48.741112" y="119.172262" style="stroke: #000000; stroke-width: 0.8"/>
      </g>
     </g>
     <g id="text_9">
      <!-- $\mathdefault{2^{1}}$ -->
      <g transform="translate(30.541112 122.971481) scale(0.1 -0.1)">
       <use xlink:href="#DejaVuSans-32" transform="translate(0 0.684375)"/>
       <use xlink:href="#DejaVuSans-31" transform="translate(64.580078 38.965625) scale(0.7)"/>
      </g>
     </g>
    </g>
    <g id="ytick_5">
     <g id="line2d_17">
      <path d="M 48.741112 77.663404 
L 371.820556 77.663404 
" clip-path="url(#pf8f0250d19)" style="fill: none; stroke: #b0b0b0; stroke-width: 0.8; stroke-linecap: square"/>
     </g>
     <g id="line2d_18">
      <g>
       <use xlink:href="#mcea6622c55" x="48.741112" y="77.663404" style="stroke: #000000; stroke-width: 0.8"/>
      </g>
     </g>
     <g id="text_10">
      <!-- $\mathdefault{2^{2}}$ -->
      <g transform="translate(30.541112 81.462622) scale(0.1 -0.1)">
       <use xlink:href="#DejaVuSans-32" transform="translate(0 0.765625)"/>
       <use xlink:href="#DejaVuSans-32" transform="translate(64.580078 39.046875) scale(0.7)"/>
      </g>
     </g>
    </g>
    <g id="ytick_6">
     <g id="line2d_19">
      <path d="M 48.741112 36.154545 
L 371.820556 36.154545 
" clip-path="url(#pf8f0250d19)" style="fill: none; stroke: #b0b0b0; stroke-width: 0.8; stroke-linecap: square"/>
     </g>
     <g id="line2d_20">
      <g>
       <use xlink:href="#mcea6622c55" x="48.741112" y="36.154545" style="stroke: #000000; stroke-width: 0.8"/>
      </g>
     </g>
     <g id="text_11">
      <!-- $\mathdefault{2^{3}}$ -->
      <g transform="translate(30.541112 39.953764) scale(0.1 -0.1)">
       <defs>
        <path id="DejaVuSans-33" d="M 2597 2516 
Q 3050 2419 3304 2112 
Q 3559 1806 3559 1356 
Q 3559 666 3084 287 
Q 2609 -91 1734 -91 
Q 1441 -91 1130 -33 
Q 819 25 488 141 
L 488 750 
Q 750 597 1062 519 
Q 1375 441 1716 441 
Q 2309 441 2620 675 
Q 2931 909 2931 1356 
Q 2931 1769 2642 2001 
Q 2353 2234 1838 2234 
L 1294 2234 
L 1294 2753 
L 1863 2753 
Q 2328 2753 2575 2939 
Q 2822 3125 2822 3475 
Q 2822 3834 2567 4026 
Q 2313 4219 1838 4219 
Q 1578 4219 1281 4162 
Q 984 4106 628 3988 
L 628 4550 
Q 988 4650 1302 4700 
Q 1616 4750 1894 4750 
Q 2613 4750 3031 4423 
Q 3450 4097 3450 3541 
Q 3450 3153 3228 2886 
Q 3006 2619 2597 2516 
z
" transform="scale(0.015625)"/>
       </defs>
       <use xlink:href="#DejaVuSans-32" transform="translate(0 0.765625)"/>
       <use xlink:href="#DejaVuSans-33" transform="translate(64.580078 39.046875) scale(0.7)"/>
      </g>
     </g>
    </g>
    <g id="text_12">
     <!-- Speedup -->
     <g transform="translate(18.561424 158.11875) rotate(-90) scale(0.1 -0.1)">
      <defs>
       <path id="DejaVuSans-53" d="M 3425 4513 
L 3425 3897 
Q 3066 4069 2747 4153 
Q 2428 4238 2131 4238 
Q 1616 4238 1336 4038 
Q 1056 3838 1056 3469 
Q 1056 3159 1242 3001 
Q 1428 2844 1947 2747 
L 2328 2669 
Q 3034 2534 3370 2195 
Q 3706 1856 3706 1288 
Q 3706 609 3251 259 
Q 2797 -91 1919 -91 
Q 1588 -91 1214 -16 
Q 841 59 441 206 
L 441 856 
Q 825 641 1194 531 
Q 1563 422 1919 422 
Q 2459 422 2753 634 
Q 3047 847 3047 1241 
Q 3047 1584 2836 1778 
Q 2625 1972 2144 2069 
L 1759 2144 
Q 1053 2284 737 2584 
Q 422 2884 422 3419 
Q 422 4038 858 4394 
Q 1294 4750 2059 4750 
Q 2388 4750 2728 4690 
Q 3069 4631 3425 4513 
z
" transform="scale(0.015625)"/>
       <path id="DejaVuSans-70" d="M 1159 525 
L 1159 -1331 
L 581 -1331 
L 581 3500 
L 1159 3500 
L 1159 2969 
Q 1341 3281 1617 3432 
Q 1894 3584 2278 3584 
Q 2916 3584 3314 3078 
Q 3713 2572 3713 1747 
Q 3713 922 3314 415 
Q 2916 -91 2278 -91 
Q 1894 -91 1617 61 
Q 1341 213 1159 525 
z
M 3116 1747 
Q 3116 2381 2855 2742 
Q 2594 3103 2138 3103 
Q 1681 3103 1420 2742 
Q 1159 2381 1159 1747 
Q 1159 1113 1420 752 
Q 1681 391 2138 391 
Q 2594 391 2855 752 
Q 3116 1113 3116 1747 
z
" transform="scale(0.015625)"/>
       <path id="DejaVuSans-75" d="M 544 1381 
L 544 3500 
L 1119 3500 
L 1119 1403 
Q 1119 906 1312 657 
Q 1506 409 1894 409 
Q 2359 409 2629 706 
Q 2900 1003 2900 1516 
L 2900 3500 
L 3475 3500 
L 3475 0 
L 2900 0 
L 2900 538 
Q 2691 219 2414 64 
Q 2138 -91 1772 -91 
Q 1169 -91 856 284 
Q 544 659 544 1381 
z
M 1991 3584 
L 1991 3584 
z
" transform="scale(0.015625)"/>
      </defs>
      <use xlink:href="#DejaVuSans-53"/>
      <use xlink:href="#DejaVuSans-70" transform="translate(63.476562 0)"/>
      <use xlink:href="#DejaVuSans-65" transform="translate(126.953125 0)"/>
      <use xlink:href="#DejaVuSans-65" transform="translate(188.476562 0)"/>
      <use xlink:href="#DejaVuSans-64" transform="translate(250 0)"/>
      <use xlink:href="#DejaVuSans-75" transform="translate(313.476562 0)"/>
      <use xlink:href="#DejaVuSans-70" transform="translate(376.855469 0)"/>
     </g>
    </g>
   </g>
   <g id="line2d_21">
    <path d="M 63.426541 160.68112 
L 161.329403 119.172262 
L 259.232265 77.663404 
L 357.135126 36.154545 
" clip-path="url(#pf8f0250d19)" style="fill: none; stroke-dasharray: 5.55,2.4; stroke-dashoffset: 0; stroke: #008000; stroke-width: 1.5"/>
   </g>
   <g id="line2d_22">
    <path d="M 63.426541 160.68112 
L 161.329403 190.19311 
L 259.232265 171.305194 
L 357.135126 177.46132 
" clip-path="url(#pf8f0250d19)" style="fill: none; stroke: #b6b6d8; stroke-width: 1.5; stroke-linecap: square"/>
    <defs>
     <path id="mac5f216b2f" d="M 0 3 
C 0.795609 3 1.55874 2.683901 2.12132 2.12132 
C 2.683901 1.55874 3 0.795609 3 0 
C 3 -0.795609 2.683901 -1.55874 2.12132 -2.12132 
C 1.55874 -2.683901 0.795609 -3 0 -3 
C -0.795609 -3 -1.55874 -2.683901 -2.12132 -2.12132 
C -2.683901 -1.55874 -3 -0.795609 -3 0 
C -3 0.795609 -2.683901 1.55874 -2.12132 2.12132 
C -1.55874 2.683901 -0.795609 3 0 3 
z
" style="stroke: #b6b6d8"/>
    </defs>
    <g clip-path="url(#pf8f0250d19)">
     <use xlink:href="#mac5f216b2f" x="63.426541" y="160.68112" style="fill: #b6b6d8; stroke: #b6b6d8"/>
     <use xlink:href="#mac5f216b2f" x="161.329403" y="190.19311" style="fill: #b6b6d8; stroke: #b6b6d8"/>
     <use xlink:href="#mac5f216b2f" x="259.232265" y="171.305194" style="fill: #b6b6d8; stroke: #b6b6d8"/>
     <use xlink:href="#mac5f216b2f" x="357.135126" y="177.46132" style="fill: #b6b6d8; stroke: #b6b6d8"/>
    </g>
   </g>
   <g id="line2d_23">
    <path d="M 63.426541 160.68112 
L 161.329403 236.045455 
L 259.232265 227.365809 
L 357.135126 189.755823 
" clip-path="url(#pf8f0250d19)" style="fill: none; stroke: #8683bd; stroke-width: 1.5; stroke-linecap: square"/>
    <defs>
     <path id="md13e2a328a" d="M 0 3 
C 0.795609 3 1.55874 2.683901 2.12132 2.12132 
C 2.683901 1.55874 3 0.795609 3 0 
C 3 -0.795609 2.683901 -1.55874 2.12132 -2.12132 
C 1.55874 -2.683901 0.795609 -3 0 -3 
C -0.795609 -3 -1.55874 -2.683901 -2.12132 -2.12132 
C -2.683901 -1.55874 -3 -0.795609 -3 0 
C -3 0.795609 -2.683901 1.55874 -2.12132 2.12132 
C -1.55874 2.683901 -0.795609 3 0 3 
z
" style="stroke: #8683bd"/>
    </defs>
    <g clip-path="url(#pf8f0250d19)">
     <use xlink:href="#md13e2a328a" x="63.426541" y="160.68112" style="fill: #8683bd; stroke: #8683bd"/>
     <use xlink:href="#md13e2a328a" x="161.329403" y="236.045455" style="fill: #8683bd; stroke: #8683bd"/>
     <use xlink:href="#md13e2a328a" x="259.232265" y="227.365809" style="fill: #8683bd; stroke: #8683bd"/>
     <use xlink:href="#md13e2a328a" x="357.135126" y="189.755823" style="fill: #8683bd; stroke: #8683bd"/>
    </g>
   </g>
   <g id="line2d_24">
    <path d="M 63.426541 160.68112 
L 161.329403 218.526405 
L 259.232265 232.972281 
L 357.135126 230.350999 
" clip-path="url(#pf8f0250d19)" style="fill: none; stroke: #61409b; stroke-width: 1.5; stroke-linecap: square"/>
    <defs>
     <path id="m6e18b7a7f1" d="M 0 3 
C 0.795609 3 1.55874 2.683901 2.12132 2.12132 
C 2.683901 1.55874 3 0.795609 3 0 
C 3 -0.795609 2.683901 -1.55874 2.12132 -2.12132 
C 1.55874 -2.683901 0.795609 -3 0 -3 
C -0.795609 -3 -1.55874 -2.683901 -2.12132 -2.12132 
C -2.683901 -1.55874 -3 -0.795609 -3 0 
C -3 0.795609 -2.683901 1.55874 -2.12132 2.12132 
C -1.55874 2.683901 -0.795609 3 0 3 
z
" style="stroke: #61409b"/>
    </defs>
    <g clip-path="url(#pf8f0250d19)">
     <use xlink:href="#m6e18b7a7f1" x="63.426541" y="160.68112" style="fill: #61409b; stroke: #61409b"/>
     <use xlink:href="#m6e18b7a7f1" x="161.329403" y="218.526405" style="fill: #61409b; stroke: #61409b"/>
     <use xlink:href="#m6e18b7a7f1" x="259.232265" y="232.972281" style="fill: #61409b; stroke: #61409b"/>
     <use xlink:href="#m6e18b7a7f1" x="357.135126" y="230.350999" style="fill: #61409b; stroke: #61409b"/>
    </g>
   </g>
   <g id="patch_3">
    <path d="M 48.741112 246.04 
L 48.741112 26.16 
" style="fill: none; stroke: #000000; stroke-width: 0.8; stroke-linejoin: miter; stroke-linecap: square"/>
   </g>
   <g id="patch_4">
    <path d="M 371.820556 246.04 
L 371.820556 26.16 
" style="fill: none; stroke: #000000; stroke-width: 0.8; stroke-linejoin: miter; stroke-linecap: square"/>
   </g>
   <g id="patch_5">
    <path d="M 48.741112 246.04 
L 371.820556 246.04 
" style="fill: none; stroke: #000000; stroke-width: 0.8; stroke-linejoin: miter; stroke-linecap: square"/>
   </g>
   <g id="patch_6">
    <path d="M 48.741112 26.16 
L 371.820556 26.16 
" style="fill: none; stroke: #000000; stroke-width: 0.8; stroke-linejoin: miter; stroke-linecap: square"/>
   </g>
   <g id="text_13">
    <!-- SUSY 20k Prediction Speedup -->
    <g transform="translate(121.550209 20.16) scale(0.12 -0.12)">
     <defs>
      <path id="DejaVuSans-55" d="M 556 4666 
L 1191 4666 
L 1191 1831 
Q 1191 1081 1462 751 
Q 1734 422 2344 422 
Q 2950 422 3222 751 
Q 3494 1081 3494 1831 
L 3494 4666 
L 4128 4666 
L 4128 1753 
Q 4128 841 3676 375 
Q 3225 -91 2344 -91 
Q 1459 -91 1007 375 
Q 556 841 556 1753 
L 556 4666 
z
" transform="scale(0.015625)"/>
      <path id="DejaVuSans-59" d="M -13 4666 
L 666 4666 
L 1959 2747 
L 3244 4666 
L 3922 4666 
L 2272 2222 
L 2272 0 
L 1638 0 
L 1638 2222 
L -13 4666 
z
" transform="scale(0.015625)"/>
      <path id="DejaVuSans-20" transform="scale(0.015625)"/>
      <path id="DejaVuSans-6b" d="M 581 4863 
L 1159 4863 
L 1159 1991 
L 2875 3500 
L 3609 3500 
L 1753 1863 
L 3688 0 
L 2938 0 
L 1159 1709 
L 1159 0 
L 581 0 
L 581 4863 
z
" transform="scale(0.015625)"/>
      <path id="DejaVuSans-50" d="M 1259 4147 
L 1259 2394 
L 2053 2394 
Q 2494 2394 2734 2622 
Q 2975 2850 2975 3272 
Q 2975 3691 2734 3919 
Q 2494 4147 2053 4147 
L 1259 4147 
z
M 628 4666 
L 2053 4666 
Q 2838 4666 3239 4311 
Q 3641 3956 3641 3272 
Q 3641 2581 3239 2228 
Q 2838 1875 2053 1875 
L 1259 1875 
L 1259 0 
L 628 0 
L 628 4666 
z
" transform="scale(0.015625)"/>
      <path id="DejaVuSans-72" d="M 2631 2963 
Q 2534 3019 2420 3045 
Q 2306 3072 2169 3072 
Q 1681 3072 1420 2755 
Q 1159 2438 1159 1844 
L 1159 0 
L 581 0 
L 581 3500 
L 1159 3500 
L 1159 2956 
Q 1341 3275 1631 3429 
Q 1922 3584 2338 3584 
Q 2397 3584 2469 3576 
Q 2541 3569 2628 3553 
L 2631 2963 
z
" transform="scale(0.015625)"/>
      <path id="DejaVuSans-69" d="M 603 3500 
L 1178 3500 
L 1178 0 
L 603 0 
L 603 3500 
z
M 603 4863 
L 1178 4863 
L 1178 4134 
L 603 4134 
L 603 4863 
z
" transform="scale(0.015625)"/>
      <path id="DejaVuSans-63" d="M 3122 3366 
L 3122 2828 
Q 2878 2963 2633 3030 
Q 2388 3097 2138 3097 
Q 1578 3097 1268 2742 
Q 959 2388 959 1747 
Q 959 1106 1268 751 
Q 1578 397 2138 397 
Q 2388 397 2633 464 
Q 2878 531 3122 666 
L 3122 134 
Q 2881 22 2623 -34 
Q 2366 -91 2075 -91 
Q 1284 -91 818 406 
Q 353 903 353 1747 
Q 353 2603 823 3093 
Q 1294 3584 2113 3584 
Q 2378 3584 2631 3529 
Q 2884 3475 3122 3366 
z
" transform="scale(0.015625)"/>
      <path id="DejaVuSans-74" d="M 1172 4494 
L 1172 3500 
L 2356 3500 
L 2356 3053 
L 1172 3053 
L 1172 1153 
Q 1172 725 1289 603 
Q 1406 481 1766 481 
L 2356 481 
L 2356 0 
L 1766 0 
Q 1100 0 847 248 
Q 594 497 594 1153 
L 594 3053 
L 172 3053 
L 172 3500 
L 594 3500 
L 594 4494 
L 1172 4494 
z
" transform="scale(0.015625)"/>
      <path id="DejaVuSans-6e" d="M 3513 2113 
L 3513 0 
L 2938 0 
L 2938 2094 
Q 2938 2591 2744 2837 
Q 2550 3084 2163 3084 
Q 1697 3084 1428 2787 
Q 1159 2491 1159 1978 
L 1159 0 
L 581 0 
L 581 3500 
L 1159 3500 
L 1159 2956 
Q 1366 3272 1645 3428 
Q 1925 3584 2291 3584 
Q 2894 3584 3203 3211 
Q 3513 2838 3513 2113 
z
" transform="scale(0.015625)"/>
     </defs>
     <use xlink:href="#DejaVuSans-53"/>
     <use xlink:href="#DejaVuSans-55" transform="translate(63.476562 0)"/>
     <use xlink:href="#DejaVuSans-53" transform="translate(136.669922 0)"/>
     <use xlink:href="#DejaVuSans-59" transform="translate(200.146484 0)"/>
     <use xlink:href="#DejaVuSans-20" transform="translate(261.230469 0)"/>
     <use xlink:href="#DejaVuSans-32" transform="translate(293.017578 0)"/>
     <use xlink:href="#DejaVuSans-30" transform="translate(356.640625 0)"/>
     <use xlink:href="#DejaVuSans-6b" transform="translate(420.263672 0)"/>
     <use xlink:href="#DejaVuSans-20" transform="translate(478.173828 0)"/>
     <use xlink:href="#DejaVuSans-50" transform="translate(509.960938 0)"/>
     <use xlink:href="#DejaVuSans-72" transform="translate(568.513672 0)"/>
     <use xlink:href="#DejaVuSans-65" transform="translate(607.376953 0)"/>
     <use xlink:href="#DejaVuSans-64" transform="translate(668.900391 0)"/>
     <use xlink:href="#DejaVuSans-69" transform="translate(732.376953 0)"/>
     <use xlink:href="#DejaVuSans-63" transform="translate(760.160156 0)"/>
     <use xlink:href="#DejaVuSans-74" transform="translate(815.140625 0)"/>
     <use xlink:href="#DejaVuSans-69" transform="translate(854.349609 0)"/>
     <use xlink:href="#DejaVuSans-6f" transform="translate(882.132812 0)"/>
     <use xlink:href="#DejaVuSans-6e" transform="translate(943.314453 0)"/>
     <use xlink:href="#DejaVuSans-20" transform="translate(1006.693359 0)"/>
     <use xlink:href="#DejaVuSans-53" transform="translate(1038.480469 0)"/>
     <use xlink:href="#DejaVuSans-70" transform="translate(1101.957031 0)"/>
     <use xlink:href="#DejaVuSans-65" transform="translate(1165.433594 0)"/>
     <use xlink:href="#DejaVuSans-65" transform="translate(1226.957031 0)"/>
     <use xlink:href="#DejaVuSans-64" transform="translate(1288.480469 0)"/>
     <use xlink:href="#DejaVuSans-75" transform="translate(1351.957031 0)"/>
     <use xlink:href="#DejaVuSans-70" transform="translate(1415.335938 0)"/>
    </g>
   </g>
   <g id="legend_1">
    <g id="patch_7">
     <path d="M 55.741112 92.8725 
L 141.627049 92.8725 
Q 143.627049 92.8725 143.627049 90.8725 
L 143.627049 33.16 
Q 143.627049 31.16 141.627049 31.16 
L 55.741112 31.16 
Q 53.741112 31.16 53.741112 33.16 
L 53.741112 90.8725 
Q 53.741112 92.8725 55.741112 92.8725 
z
" style="fill: #ffffff; opacity: 0.8; stroke: #cccccc; stroke-linejoin: miter"/>
    </g>
    <g id="line2d_25">
     <path d="M 57.741112 39.258437 
L 67.741112 39.258437 
L 77.741112 39.258437 
" style="fill: none; stroke-dasharray: 5.55,2.4; stroke-dashoffset: 0; stroke: #008000; stroke-width: 1.5"/>
    </g>
    <g id="text_14">
     <!-- Ideal -->
     <g transform="translate(85.741112 42.758437) scale(0.1 -0.1)">
      <defs>
       <path id="DejaVuSans-49" d="M 628 4666 
L 1259 4666 
L 1259 0 
L 628 0 
L 628 4666 
z
" transform="scale(0.015625)"/>
       <path id="DejaVuSans-61" d="M 2194 1759 
Q 1497 1759 1228 1600 
Q 959 1441 959 1056 
Q 959 750 1161 570 
Q 1363 391 1709 391 
Q 2188 391 2477 730 
Q 2766 1069 2766 1631 
L 2766 1759 
L 2194 1759 
z
M 3341 1997 
L 3341 0 
L 2766 0 
L 2766 531 
Q 2569 213 2275 61 
Q 1981 -91 1556 -91 
Q 1019 -91 701 211 
Q 384 513 384 1019 
Q 384 1609 779 1909 
Q 1175 2209 1959 2209 
L 2766 2209 
L 2766 2266 
Q 2766 2663 2505 2880 
Q 2244 3097 1772 3097 
Q 1472 3097 1187 3025 
Q 903 2953 641 2809 
L 641 3341 
Q 956 3463 1253 3523 
Q 1550 3584 1831 3584 
Q 2591 3584 2966 3190 
Q 3341 2797 3341 1997 
z
" transform="scale(0.015625)"/>
       <path id="DejaVuSans-6c" d="M 603 4863 
L 1178 4863 
L 1178 0 
L 603 0 
L 603 4863 
z
" transform="scale(0.015625)"/>
      </defs>
      <use xlink:href="#DejaVuSans-49"/>
      <use xlink:href="#DejaVuSans-64" transform="translate(29.492188 0)"/>
      <use xlink:href="#DejaVuSans-65" transform="translate(92.96875 0)"/>
      <use xlink:href="#DejaVuSans-61" transform="translate(154.492188 0)"/>
      <use xlink:href="#DejaVuSans-6c" transform="translate(215.771484 0)"/>
     </g>
    </g>
    <g id="line2d_26">
     <path d="M 57.741112 53.936562 
L 67.741112 53.936562 
L 77.741112 53.936562 
" style="fill: none; stroke: #b6b6d8; stroke-width: 1.5; stroke-linecap: square"/>
     <g>
      <use xlink:href="#mac5f216b2f" x="67.741112" y="53.936562" style="fill: #b6b6d8; stroke: #b6b6d8"/>
     </g>
    </g>
    <g id="text_15">
     <!-- 8 threads -->
     <g transform="translate(85.741112 57.436562) scale(0.1 -0.1)">
      <defs>
       <path id="DejaVuSans-68" d="M 3513 2113 
L 3513 0 
L 2938 0 
L 2938 2094 
Q 2938 2591 2744 2837 
Q 2550 3084 2163 3084 
Q 1697 3084 1428 2787 
Q 1159 2491 1159 1978 
L 1159 0 
L 581 0 
L 581 4863 
L 1159 4863 
L 1159 2956 
Q 1366 3272 1645 3428 
Q 1925 3584 2291 3584 
Q 2894 3584 3203 3211 
Q 3513 2838 3513 2113 
z
" transform="scale(0.015625)"/>
      </defs>
      <use xlink:href="#DejaVuSans-38"/>
      <use xlink:href="#DejaVuSans-20" transform="translate(63.623047 0)"/>
      <use xlink:href="#DejaVuSans-74" transform="translate(95.410156 0)"/>
      <use xlink:href="#DejaVuSans-68" transform="translate(134.619141 0)"/>
      <use xlink:href="#DejaVuSans-72" transform="translate(197.998047 0)"/>
      <use xlink:href="#DejaVuSans-65" transform="translate(236.861328 0)"/>
      <use xlink:href="#DejaVuSans-61" transform="translate(298.384766 0)"/>
      <use xlink:href="#DejaVuSans-64" transform="translate(359.664062 0)"/>
      <use xlink:href="#DejaVuSans-73" transform="translate(423.140625 0)"/>
     </g>
    </g>
    <g id="line2d_27">
     <path d="M 57.741112 68.614687 
L 67.741112 68.614687 
L 77.741112 68.614687 
" style="fill: none; stroke: #8683bd; stroke-width: 1.5; stroke-linecap: square"/>
     <g>
      <use xlink:href="#md13e2a328a" x="67.741112" y="68.614687" style="fill: #8683bd; stroke: #8683bd"/>
     </g>
    </g>
    <g id="text_16">
     <!-- 16 threads -->
     <g transform="translate(85.741112 72.114687) scale(0.1 -0.1)">
      <defs>
       <path id="DejaVuSans-36" d="M 2113 2584 
Q 1688 2584 1439 2293 
Q 1191 2003 1191 1497 
Q 1191 994 1439 701 
Q 1688 409 2113 409 
Q 2538 409 2786 701 
Q 3034 994 3034 1497 
Q 3034 2003 2786 2293 
Q 2538 2584 2113 2584 
z
M 3366 4563 
L 3366 3988 
Q 3128 4100 2886 4159 
Q 2644 4219 2406 4219 
Q 1781 4219 1451 3797 
Q 1122 3375 1075 2522 
Q 1259 2794 1537 2939 
Q 1816 3084 2150 3084 
Q 2853 3084 3261 2657 
Q 3669 2231 3669 1497 
Q 3669 778 3244 343 
Q 2819 -91 2113 -91 
Q 1303 -91 875 529 
Q 447 1150 447 2328 
Q 447 3434 972 4092 
Q 1497 4750 2381 4750 
Q 2619 4750 2861 4703 
Q 3103 4656 3366 4563 
z
" transform="scale(0.015625)"/>
      </defs>
      <use xlink:href="#DejaVuSans-31"/>
      <use xlink:href="#DejaVuSans-36" transform="translate(63.623047 0)"/>
      <use xlink:href="#DejaVuSans-20" transform="translate(127.246094 0)"/>
      <use xlink:href="#DejaVuSans-74" transform="translate(159.033203 0)"/>
      <use xlink:href="#DejaVuSans-68" transform="translate(198.242188 0)"/>
      <use xlink:href="#DejaVuSans-72" transform="translate(261.621094 0)"/>
      <use xlink:href="#DejaVuSans-65" transform="translate(300.484375 0)"/>
      <use xlink:href="#DejaVuSans-61" transform="translate(362.007812 0)"/>
      <use xlink:href="#DejaVuSans-64" transform="translate(423.287109 0)"/>
      <use xlink:href="#DejaVuSans-73" transform="translate(486.763672 0)"/>
     </g>
    </g>
    <g id="line2d_28">
     <path d="M 57.741112 83.292812 
L 67.741112 83.292812 
L 77.741112 83.292812 
" style="fill: none; stroke: #61409b; stroke-width: 1.5; stroke-linecap: square"/>
     <g>
      <use xlink:href="#m6e18b7a7f1" x="67.741112" y="83.292812" style="fill: #61409b; stroke: #61409b"/>
     </g>
    </g>
    <g id="text_17">
     <!-- 32 threads -->
     <g transform="translate(85.741112 86.792812) scale(0.1 -0.1)">
      <use xlink:href="#DejaVuSans-33"/>
      <use xlink:href="#DejaVuSans-32" transform="translate(63.623047 0)"/>
      <use xlink:href="#DejaVuSans-20" transform="translate(127.246094 0)"/>
      <use xlink:href="#DejaVuSans-74" transform="translate(159.033203 0)"/>
      <use xlink:href="#DejaVuSans-68" transform="translate(198.242188 0)"/>
      <use xlink:href="#DejaVuSans-72" transform="translate(261.621094 0)"/>
      <use xlink:href="#DejaVuSans-65" transform="translate(300.484375 0)"/>
      <use xlink:href="#DejaVuSans-61" transform="translate(362.007812 0)"/>
      <use xlink:href="#DejaVuSans-64" transform="translate(423.287109 0)"/>
      <use xlink:href="#DejaVuSans-73" transform="translate(486.763672 0)"/>
     </g>
    </g>
   </g>
  </g>
  <g id="axes_2">
   <g id="patch_8">
    <path d="M 386.120556 246.04 
L 709.2 246.04 
L 709.2 26.16 
L 386.120556 26.16 
z
" style="fill: #ffffff"/>
   </g>
   <g id="matplotlib.axis_3">
    <g id="xtick_5">
     <g id="line2d_29">
      <path d="M 400.805985 246.04 
L 400.805985 26.16 
" clip-path="url(#p322e98a4db)" style="fill: none; stroke: #b0b0b0; stroke-width: 0.8; stroke-linecap: square"/>
     </g>
     <g id="line2d_30">
      <g>
       <use xlink:href="#m3b10a00006" x="400.805985" y="246.04" style="stroke: #000000; stroke-width: 0.8"/>
      </g>
     </g>
     <g id="text_18">
      <!-- 1 -->
      <g transform="translate(397.624735 260.638438) scale(0.1 -0.1)">
       <use xlink:href="#DejaVuSans-31"/>
      </g>
     </g>
    </g>
    <g id="xtick_6">
     <g id="line2d_31">
      <path d="M 498.708847 246.04 
L 498.708847 26.16 
" clip-path="url(#p322e98a4db)" style="fill: none; stroke: #b0b0b0; stroke-width: 0.8; stroke-linecap: square"/>
     </g>
     <g id="line2d_32">
      <g>
       <use xlink:href="#m3b10a00006" x="498.708847" y="246.04" style="stroke: #000000; stroke-width: 0.8"/>
      </g>
     </g>
     <g id="text_19">
      <!-- 2 -->
      <g transform="translate(495.527597 260.638438) scale(0.1 -0.1)">
       <use xlink:href="#DejaVuSans-32"/>
      </g>
     </g>
    </g>
    <g id="xtick_7">
     <g id="line2d_33">
      <path d="M 596.611709 246.04 
L 596.611709 26.16 
" clip-path="url(#p322e98a4db)" style="fill: none; stroke: #b0b0b0; stroke-width: 0.8; stroke-linecap: square"/>
     </g>
     <g id="line2d_34">
      <g>
       <use xlink:href="#m3b10a00006" x="596.611709" y="246.04" style="stroke: #000000; stroke-width: 0.8"/>
      </g>
     </g>
     <g id="text_20">
      <!-- 4 -->
      <g transform="translate(593.430459 260.638438) scale(0.1 -0.1)">
       <use xlink:href="#DejaVuSans-34"/>
      </g>
     </g>
    </g>
    <g id="xtick_8">
     <g id="line2d_35">
      <path d="M 694.514571 246.04 
L 694.514571 26.16 
" clip-path="url(#p322e98a4db)" style="fill: none; stroke: #b0b0b0; stroke-width: 0.8; stroke-linecap: square"/>
     </g>
     <g id="line2d_36">
      <g>
       <use xlink:href="#m3b10a00006" x="694.514571" y="246.04" style="stroke: #000000; stroke-width: 0.8"/>
      </g>
     </g>
     <g id="text_21">
      <!-- 8 -->
      <g transform="translate(691.333321 260.638438) scale(0.1 -0.1)">
       <use xlink:href="#DejaVuSans-38"/>
      </g>
     </g>
    </g>
    <g id="text_22">
     <!-- Nodes -->
     <g transform="translate(532.004809 274.316562) scale(0.1 -0.1)">
      <use xlink:href="#DejaVuSans-4e"/>
      <use xlink:href="#DejaVuSans-6f" transform="translate(74.804688 0)"/>
      <use xlink:href="#DejaVuSans-64" transform="translate(135.986328 0)"/>
      <use xlink:href="#DejaVuSans-65" transform="translate(199.462891 0)"/>
      <use xlink:href="#DejaVuSans-73" transform="translate(260.986328 0)"/>
     </g>
    </g>
   </g>
   <g id="matplotlib.axis_4">
    <g id="ytick_7">
     <g id="line2d_37">
      <path d="M 386.120556 243.698837 
L 709.2 243.698837 
" clip-path="url(#p322e98a4db)" style="fill: none; stroke: #b0b0b0; stroke-width: 0.8; stroke-linecap: square"/>
     </g>
     <g id="line2d_38">
      <g>
       <use xlink:href="#mcea6622c55" x="386.120556" y="243.698837" style="stroke: #000000; stroke-width: 0.8"/>
      </g>
     </g>
    </g>
    <g id="ytick_8">
     <g id="line2d_39">
      <path d="M 386.120556 202.189978 
L 709.2 202.189978 
" clip-path="url(#p322e98a4db)" style="fill: none; stroke: #b0b0b0; stroke-width: 0.8; stroke-linecap: square"/>
     </g>
     <g id="line2d_40">
      <g>
       <use xlink:href="#mcea6622c55" x="386.120556" y="202.189978" style="stroke: #000000; stroke-width: 0.8"/>
      </g>
     </g>
    </g>
    <g id="ytick_9">
     <g id="line2d_41">
      <path d="M 386.120556 160.68112 
L 709.2 160.68112 
" clip-path="url(#p322e98a4db)" style="fill: none; stroke: #b0b0b0; stroke-width: 0.8; stroke-linecap: square"/>
     </g>
     <g id="line2d_42">
      <g>
       <use xlink:href="#mcea6622c55" x="386.120556" y="160.68112" style="stroke: #000000; stroke-width: 0.8"/>
      </g>
     </g>
    </g>
    <g id="ytick_10">
     <g id="line2d_43">
      <path d="M 386.120556 119.172262 
L 709.2 119.172262 
" clip-path="url(#p322e98a4db)" style="fill: none; stroke: #b0b0b0; stroke-width: 0.8; stroke-linecap: square"/>
     </g>
     <g id="line2d_44">
      <g>
       <use xlink:href="#mcea6622c55" x="386.120556" y="119.172262" style="stroke: #000000; stroke-width: 0.8"/>
      </g>
     </g>
    </g>
    <g id="ytick_11">
     <g id="line2d_45">
      <path d="M 386.120556 77.663404 
L 709.2 77.663404 
" clip-path="url(#p322e98a4db)" style="fill: none; stroke: #b0b0b0; stroke-width: 0.8; stroke-linecap: square"/>
     </g>
     <g id="line2d_46">
      <g>
       <use xlink:href="#mcea6622c55" x="386.120556" y="77.663404" style="stroke: #000000; stroke-width: 0.8"/>
      </g>
     </g>
    </g>
    <g id="ytick_12">
     <g id="line2d_47">
      <path d="M 386.120556 36.154545 
L 709.2 36.154545 
" clip-path="url(#p322e98a4db)" style="fill: none; stroke: #b0b0b0; stroke-width: 0.8; stroke-linecap: square"/>
     </g>
     <g id="line2d_48">
      <g>
       <use xlink:href="#mcea6622c55" x="386.120556" y="36.154545" style="stroke: #000000; stroke-width: 0.8"/>
      </g>
     </g>
    </g>
   </g>
   <g id="line2d_49">
    <path d="M 400.805985 160.68112 
L 498.708847 119.172262 
L 596.611709 77.663404 
L 694.514571 36.154545 
" clip-path="url(#p322e98a4db)" style="fill: none; stroke-dasharray: 5.55,2.4; stroke-dashoffset: 0; stroke: #008000; stroke-width: 1.5"/>
   </g>
   <g id="line2d_50">
    <path d="M 400.805985 160.68112 
L 498.708847 183.655147 
L 596.611709 177.71761 
L 694.514571 134.242899 
" clip-path="url(#p322e98a4db)" style="fill: none; stroke: #b6b6d8; stroke-width: 1.5; stroke-linecap: square"/>
    <g clip-path="url(#p322e98a4db)">
     <use xlink:href="#mac5f216b2f" x="400.805985" y="160.68112" style="fill: #b6b6d8; stroke: #b6b6d8"/>
     <use xlink:href="#mac5f216b2f" x="498.708847" y="183.655147" style="fill: #b6b6d8; stroke: #b6b6d8"/>
     <use xlink:href="#mac5f216b2f" x="596.611709" y="177.71761" style="fill: #b6b6d8; stroke: #b6b6d8"/>
     <use xlink:href="#mac5f216b2f" x="694.514571" y="134.242899" style="fill: #b6b6d8; stroke: #b6b6d8"/>
    </g>
   </g>
   <g id="line2d_51">
    <path d="M 400.805985 160.68112 
L 498.708847 152.600585 
L 596.611709 160.192508 
L 694.514571 160.235704 
" clip-path="url(#p322e98a4db)" style="fill: none; stroke: #8683bd; stroke-width: 1.5; stroke-linecap: square"/>
    <g clip-path="url(#p322e98a4db)">
     <use xlink:href="#md13e2a328a" x="400.805985" y="160.68112" style="fill: #8683bd; stroke: #8683bd"/>
     <use xlink:href="#md13e2a328a" x="498.708847" y="152.600585" style="fill: #8683bd; stroke: #8683bd"/>
     <use xlink:href="#md13e2a328a" x="596.611709" y="160.192508" style="fill: #8683bd; stroke: #8683bd"/>
     <use xlink:href="#md13e2a328a" x="694.514571" y="160.235704" style="fill: #8683bd; stroke: #8683bd"/>
    </g>
   </g>
   <g id="line2d_52">
    <path d="M 400.805985 160.68112 
L 498.708847 215.991535 
L 596.611709 164.156766 
L 694.514571 156.086234 
" clip-path="url(#p322e98a4db)" style="fill: none; stroke: #61409b; stroke-width: 1.5; stroke-linecap: square"/>
    <g clip-path="url(#p322e98a4db)">
     <use xlink:href="#m6e18b7a7f1" x="400.805985" y="160.68112" style="fill: #61409b; stroke: #61409b"/>
     <use xlink:href="#m6e18b7a7f1" x="498.708847" y="215.991535" style="fill: #61409b; stroke: #61409b"/>
     <use xlink:href="#m6e18b7a7f1" x="596.611709" y="164.156766" style="fill: #61409b; stroke: #61409b"/>
     <use xlink:href="#m6e18b7a7f1" x="694.514571" y="156.086234" style="fill: #61409b; stroke: #61409b"/>
    </g>
   </g>
   <g id="patch_9">
    <path d="M 386.120556 246.04 
L 386.120556 26.16 
" style="fill: none; stroke: #000000; stroke-width: 0.8; stroke-linejoin: miter; stroke-linecap: square"/>
   </g>
   <g id="patch_10">
    <path d="M 709.2 246.04 
L 709.2 26.16 
" style="fill: none; stroke: #000000; stroke-width: 0.8; stroke-linejoin: miter; stroke-linecap: square"/>
   </g>
   <g id="patch_11">
    <path d="M 386.120556 246.04 
L 709.2 246.04 
" style="fill: none; stroke: #000000; stroke-width: 0.8; stroke-linejoin: miter; stroke-linecap: square"/>
   </g>
   <g id="patch_12">
    <path d="M 386.120556 26.16 
L 709.2 26.16 
" style="fill: none; stroke: #000000; stroke-width: 0.8; stroke-linejoin: miter; stroke-linecap: square"/>
   </g>
   <g id="text_23">
    <!-- SUSY 100k Prediction Speedup -->
    <g transform="translate(455.112153 20.16) scale(0.12 -0.12)">
     <use xlink:href="#DejaVuSans-53"/>
     <use xlink:href="#DejaVuSans-55" transform="translate(63.476562 0)"/>
     <use xlink:href="#DejaVuSans-53" transform="translate(136.669922 0)"/>
     <use xlink:href="#DejaVuSans-59" transform="translate(200.146484 0)"/>
     <use xlink:href="#DejaVuSans-20" transform="translate(261.230469 0)"/>
     <use xlink:href="#DejaVuSans-31" transform="translate(293.017578 0)"/>
     <use xlink:href="#DejaVuSans-30" transform="translate(356.640625 0)"/>
     <use xlink:href="#DejaVuSans-30" transform="translate(420.263672 0)"/>
     <use xlink:href="#DejaVuSans-6b" transform="translate(483.886719 0)"/>
     <use xlink:href="#DejaVuSans-20" transform="translate(541.796875 0)"/>
     <use xlink:href="#DejaVuSans-50" transform="translate(573.583984 0)"/>
     <use xlink:href="#DejaVuSans-72" transform="translate(632.136719 0)"/>
     <use xlink:href="#DejaVuSans-65" transform="translate(671 0)"/>
     <use xlink:href="#DejaVuSans-64" transform="translate(732.523438 0)"/>
     <use xlink:href="#DejaVuSans-69" transform="translate(796 0)"/>
     <use xlink:href="#DejaVuSans-63" transform="translate(823.783203 0)"/>
     <use xlink:href="#DejaVuSans-74" transform="translate(878.763672 0)"/>
     <use xlink:href="#DejaVuSans-69" transform="translate(917.972656 0)"/>
     <use xlink:href="#DejaVuSans-6f" transform="translate(945.755859 0)"/>
     <use xlink:href="#DejaVuSans-6e" transform="translate(1006.9375 0)"/>
     <use xlink:href="#DejaVuSans-20" transform="translate(1070.316406 0)"/>
     <use xlink:href="#DejaVuSans-53" transform="translate(1102.103516 0)"/>
     <use xlink:href="#DejaVuSans-70" transform="translate(1165.580078 0)"/>
     <use xlink:href="#DejaVuSans-65" transform="translate(1229.056641 0)"/>
     <use xlink:href="#DejaVuSans-65" transform="translate(1290.580078 0)"/>
     <use xlink:href="#DejaVuSans-64" transform="translate(1352.103516 0)"/>
     <use xlink:href="#DejaVuSans-75" transform="translate(1415.580078 0)"/>
     <use xlink:href="#DejaVuSans-70" transform="translate(1478.958984 0)"/>
    </g>
   </g>
   <g id="legend_2">
    <g id="patch_13">
     <path d="M 393.120556 92.8725 
L 479.006493 92.8725 
Q 481.006493 92.8725 481.006493 90.8725 
L 481.006493 33.16 
Q 481.006493 31.16 479.006493 31.16 
L 393.120556 31.16 
Q 391.120556 31.16 391.120556 33.16 
L 391.120556 90.8725 
Q 391.120556 92.8725 393.120556 92.8725 
z
" style="fill: #ffffff; opacity: 0.8; stroke: #cccccc; stroke-linejoin: miter"/>
    </g>
    <g id="line2d_53">
     <path d="M 395.120556 39.258437 
L 405.120556 39.258437 
L 415.120556 39.258437 
" style="fill: none; stroke-dasharray: 5.55,2.4; stroke-dashoffset: 0; stroke: #008000; stroke-width: 1.5"/>
    </g>
    <g id="text_24">
     <!-- Ideal -->
     <g transform="translate(423.120556 42.758437) scale(0.1 -0.1)">
      <use xlink:href="#DejaVuSans-49"/>
      <use xlink:href="#DejaVuSans-64" transform="translate(29.492188 0)"/>
      <use xlink:href="#DejaVuSans-65" transform="translate(92.96875 0)"/>
      <use xlink:href="#DejaVuSans-61" transform="translate(154.492188 0)"/>
      <use xlink:href="#DejaVuSans-6c" transform="translate(215.771484 0)"/>
     </g>
    </g>
    <g id="line2d_54">
     <path d="M 395.120556 53.936562 
L 405.120556 53.936562 
L 415.120556 53.936562 
" style="fill: none; stroke: #b6b6d8; stroke-width: 1.5; stroke-linecap: square"/>
     <g>
      <use xlink:href="#mac5f216b2f" x="405.120556" y="53.936562" style="fill: #b6b6d8; stroke: #b6b6d8"/>
     </g>
    </g>
    <g id="text_25">
     <!-- 8 threads -->
     <g transform="translate(423.120556 57.436562) scale(0.1 -0.1)">
      <use xlink:href="#DejaVuSans-38"/>
      <use xlink:href="#DejaVuSans-20" transform="translate(63.623047 0)"/>
      <use xlink:href="#DejaVuSans-74" transform="translate(95.410156 0)"/>
      <use xlink:href="#DejaVuSans-68" transform="translate(134.619141 0)"/>
      <use xlink:href="#DejaVuSans-72" transform="translate(197.998047 0)"/>
      <use xlink:href="#DejaVuSans-65" transform="translate(236.861328 0)"/>
      <use xlink:href="#DejaVuSans-61" transform="translate(298.384766 0)"/>
      <use xlink:href="#DejaVuSans-64" transform="translate(359.664062 0)"/>
      <use xlink:href="#DejaVuSans-73" transform="translate(423.140625 0)"/>
     </g>
    </g>
    <g id="line2d_55">
     <path d="M 395.120556 68.614687 
L 405.120556 68.614687 
L 415.120556 68.614687 
" style="fill: none; stroke: #8683bd; stroke-width: 1.5; stroke-linecap: square"/>
     <g>
      <use xlink:href="#md13e2a328a" x="405.120556" y="68.614687" style="fill: #8683bd; stroke: #8683bd"/>
     </g>
    </g>
    <g id="text_26">
     <!-- 16 threads -->
     <g transform="translate(423.120556 72.114687) scale(0.1 -0.1)">
      <use xlink:href="#DejaVuSans-31"/>
      <use xlink:href="#DejaVuSans-36" transform="translate(63.623047 0)"/>
      <use xlink:href="#DejaVuSans-20" transform="translate(127.246094 0)"/>
      <use xlink:href="#DejaVuSans-74" transform="translate(159.033203 0)"/>
      <use xlink:href="#DejaVuSans-68" transform="translate(198.242188 0)"/>
      <use xlink:href="#DejaVuSans-72" transform="translate(261.621094 0)"/>
      <use xlink:href="#DejaVuSans-65" transform="translate(300.484375 0)"/>
      <use xlink:href="#DejaVuSans-61" transform="translate(362.007812 0)"/>
      <use xlink:href="#DejaVuSans-64" transform="translate(423.287109 0)"/>
      <use xlink:href="#DejaVuSans-73" transform="translate(486.763672 0)"/>
     </g>
    </g>
    <g id="line2d_56">
     <path d="M 395.120556 83.292812 
L 405.120556 83.292812 
L 415.120556 83.292812 
" style="fill: none; stroke: #61409b; stroke-width: 1.5; stroke-linecap: square"/>
     <g>
      <use xlink:href="#m6e18b7a7f1" x="405.120556" y="83.292812" style="fill: #61409b; stroke: #61409b"/>
     </g>
    </g>
    <g id="text_27">
     <!-- 32 threads -->
     <g transform="translate(423.120556 86.792812) scale(0.1 -0.1)">
      <use xlink:href="#DejaVuSans-33"/>
      <use xlink:href="#DejaVuSans-32" transform="translate(63.623047 0)"/>
      <use xlink:href="#DejaVuSans-20" transform="translate(127.246094 0)"/>
      <use xlink:href="#DejaVuSans-74" transform="translate(159.033203 0)"/>
      <use xlink:href="#DejaVuSans-68" transform="translate(198.242188 0)"/>
      <use xlink:href="#DejaVuSans-72" transform="translate(261.621094 0)"/>
      <use xlink:href="#DejaVuSans-65" transform="translate(300.484375 0)"/>
      <use xlink:href="#DejaVuSans-61" transform="translate(362.007812 0)"/>
      <use xlink:href="#DejaVuSans-64" transform="translate(423.287109 0)"/>
      <use xlink:href="#DejaVuSans-73" transform="translate(486.763672 0)"/>
     </g>
    </g>
   </g>
  </g>
 </g>
 <defs>
  <clipPath id="pf8f0250d19">
   <rect x="48.741112" y="26.16" width="323.079444" height="219.88"/>
  </clipPath>
  <clipPath id="p322e98a4db">
   <rect x="386.120556" y="26.16" width="323.079444" height="219.88"/>
  </clipPath>
 </defs>
</svg>
