<?xml version="1.0" encoding="utf-8" standalone="no"?>
<!DOCTYPE svg PUBLIC "-//W3C//DTD SVG 1.1//EN"
  "http://www.w3.org/Graphics/SVG/1.1/DTD/svg11.dtd">
<svg xmlns:xlink="http://www.w3.org/1999/xlink" width="576pt" height="252pt" viewBox="0 0 576 252" xmlns="http://www.w3.org/2000/svg" version="1.1">
 <metadata>
  <rdf:RDF xmlns:dc="http://purl.org/dc/elements/1.1/" xmlns:cc="http://creativecommons.org/ns#" xmlns:rdf="http://www.w3.org/1999/02/22-rdf-syntax-ns#">
   <cc:Work>
    <dc:type rdf:resource="http://purl.org/dc/dcmitype/StillImage"/>
    <dc:date>2026-01-30T14:15:05.944994</dc:date>
    <dc:format>image/svg+xml</dc:format>
    <dc:creator>
     <cc:Agent>
      <dc:title>Matplotlib v3.10.8, https://matplotlib.org/</dc:title>
     </cc:Agent>
    </dc:creator>
   </cc:Work>
  </rdf:RDF>
 </metadata>
 <defs>
  <style type="text/css">*{stroke-linejoin: round; stroke-linecap: butt}</style>
 </defs>
 <g id="figure_1">
  <g id="patch_1">
   <path d="M 0 252 
L 576 252 
L 576 0 
L 0 0 
z
" style="fill: #ffffff"/>
  </g>
  <g id="axes_1">
   <g id="patch_2">
    <path d="M 51.005 210.04 
L 300.9525 210.04 
L 300.9525 26.16 
L 51.005 26.16 
z
" style="fill: #ffffff"/>
   </g>
   <g id="matplotlib.axis_1">
    <g id="xtick_1">
     <g id="line2d_1">
      <path d="M 62.36625 210.04 
L 62.36625 26.16 
" clip-path="url(#pe205061a47)" style="fill: none; stroke: #b0b0b0; stroke-width: 0.8; stroke-linecap: square"/>
     </g>
     <g id="line2d_2">
      <defs>
       <path id="m3704f7e98c" d="M 0 0 
L 0 3.5 
" style="stroke: #000000; stroke-width: 0.8"/>
      </defs>
      <g>
       <use xlink:href="#m3704f7e98c" x="62.36625" y="210.04" style="stroke: #000000; stroke-width: 0.8"/>
      </g>
     </g>
     <g id="text_1">
      <!-- 1 -->
      <g transform="translate(59.185 224.638438) scale(0.1 -0.1)">
       <defs>
        <path id="DejaVuSans-31" d="M 794 531 
L 1825 531 
L 1825 4091 
L 703 3866 
L 703 4441 
L 1819 4666 
L 2450 4666 
L 2450 531 
L 3481 531 
L 3481 0 
L 794 0 
L 794 531 
z
" transform="scale(0.015625)"/>
       </defs>
       <use xlink:href="#DejaVuSans-31"/>
      </g>
     </g>
    </g>
    <g id="xtick_2">
     <g id="line2d_3">
      <path d="M 107.81125 210.04 
L 107.81125 26.16 
" clip-path="url(#pe205061a47)" style="fill: none; stroke: #b0b0b0; stroke-width: 0.8; stroke-linecap: square"/>
     </g>
     <g id="line2d_4">
      <g>
       <use xlink:href="#m3704f7e98c" x="107.81125" y="210.04" style="stroke: #000000; stroke-width: 0.8"/>
      </g>
     </g>
     <g id="text_2">
      <!-- 2 -->
      <g transform="translate(104.63 224.638438) scale(0.1 -0.1)">
       <defs>
        <path id="DejaVuSans-32" d="M 1228 531 
L 3431 531 
L 3431 0 
L 469 0 
L 469 531 
Q 828 903 1448 1529 
Q 2069 2156 2228 2338 
Q 2531 2678 2651 2914 
Q 2772 3150 2772 3378 
Q 2772 3750 2511 3984 
Q 2250 4219 1831 4219 
Q 1534 4219 1204 4116 
Q 875 4013 500 3803 
L 500 4441 
Q 881 4594 1212 4672 
Q 1544 4750 1819 4750 
Q 2544 4750 2975 4387 
Q 3406 4025 3406 3419 
Q 3406 3131 3298 2873 
Q 3191 2616 2906 2266 
Q 2828 2175 2409 1742 
Q 1991 1309 1228 531 
z
" transform="scale(0.015625)"/>
       </defs>
       <use xlink:href="#DejaVuSans-32"/>
      </g>
     </g>
    </g>
    <g id="xtick_3">
     <g id="line2d_5">
      <path d="M 153.25625 210.04 
L 153.25625 26.16 
" clip-path="url(#pe205061a47)" style="fill: none; stroke: #b0b0b0; stroke-width: 0.8; stroke-linecap: square"/>
     </g>
     <g id="line2d_6">
      <g>
       <use xlink:href="#m3704f7e98c" x="153.25625" y="210.04" style="stroke: #000000; stroke-width: 0.8"/>
      </g>
     </g>
     <g id="text_3">
      <!-- 4 -->
      <g transform="translate(150.075 224.638438) scale(0.1 -0.1)">
       <defs>
        <path id="DejaVuSans-34" d="M 2419 4116 
L 825 1625 
L 2419 1625 
L 2419 4116 
z
M 2253 4666 
L 3047 4666 
L 3047 1625 
L 3713 1625 
L 3713 1100 
L 3047 1100 
L 3047 0 
L 2419 0 
L 2419 1100 
L 313 1100 
L 313 1709 
L 2253 4666 
z
" transform="scale(0.015625)"/>
       </defs>
       <use xlink:href="#DejaVuSans-34"/>
      </g>
     </g>
    </g>
    <g id="xtick_4">
     <g id="line2d_7">
      <path d="M 198.70125 210.04 
L 198.70125 26.16 
" clip-path="url(#pe205061a47)" style="fill: none; stroke: #b0b0b0; stroke-width: 0.8; stroke-linecap: square"/>
     </g>
     <g id="line2d_8">
      <g>
       <use xlink:href="#m3704f7e98c" x="198.70125" y="210.04" style="stroke: #000000; stroke-width: 0.8"/>
      </g>
     </g>
     <g id="text_4">
      <!-- 8 -->
      <g transform="translate(195.52 224.638438) scale(0.1 -0.1)">
       <defs>
        <path id="DejaVuSans-38" d="M 2034 2216 
Q 1584 2216 1326 1975 
Q 1069 1734 1069 1313 
Q 1069 891 1326 650 
Q 1584 409 2034 409 
Q 2484 409 2743 651 
Q 3003 894 3003 1313 
Q 3003 1734 2745 1975 
Q 2488 2216 2034 2216 
z
M 1403 2484 
Q 997 2584 770 2862 
Q 544 3141 544 3541 
Q 544 4100 942 4425 
Q 1341 4750 2034 4750 
Q 2731 4750 3128 4425 
Q 3525 4100 3525 3541 
Q 3525 3141 3298 2862 
Q 3072 2584 2669 2484 
Q 3125 2378 3379 2068 
Q 3634 1759 3634 1313 
Q 3634 634 3220 271 
Q 2806 -91 2034 -91 
Q 1263 -91 848 271 
Q 434 634 434 1313 
Q 434 1759 690 2068 
Q 947 2378 1403 2484 
z
M 1172 3481 
Q 1172 3119 1398 2916 
Q 1625 2713 2034 2713 
Q 2441 2713 2670 2916 
Q 2900 3119 2900 3481 
Q 2900 3844 2670 4047 
Q 2441 4250 2034 4250 
Q 1625 4250 1398 4047 
Q 1172 3844 1172 3481 
z
" transform="scale(0.015625)"/>
       </defs>
       <use xlink:href="#DejaVuSans-38"/>
      </g>
     </g>
    </g>
    <g id="xtick_5">
     <g id="line2d_9">
      <path d="M 244.14625 210.04 
L 244.14625 26.16 
" clip-path="url(#pe205061a47)" style="fill: none; stroke: #b0b0b0; stroke-width: 0.8; stroke-linecap: square"/>
     </g>
     <g id="line2d_10">
      <g>
       <use xlink:href="#m3704f7e98c" x="244.14625" y="210.04" style="stroke: #000000; stroke-width: 0.8"/>
      </g>
     </g>
     <g id="text_5">
      <!-- 16 -->
      <g transform="translate(237.78375 224.638438) scale(0.1 -0.1)">
       <defs>
        <path id="DejaVuSans-36" d="M 2113 2584 
Q 1688 2584 1439 2293 
Q 1191 2003 1191 1497 
Q 1191 994 1439 701 
Q 1688 409 2113 409 
Q 2538 409 2786 701 
Q 3034 994 3034 1497 
Q 3034 2003 2786 2293 
Q 2538 2584 2113 2584 
z
M 3366 4563 
L 3366 3988 
Q 3128 4100 2886 4159 
Q 2644 4219 2406 4219 
Q 1781 4219 1451 3797 
Q 1122 3375 1075 2522 
Q 1259 2794 1537 2939 
Q 1816 3084 2150 3084 
Q 2853 3084 3261 2657 
Q 3669 2231 3669 1497 
Q 3669 778 3244 343 
Q 2819 -91 2113 -91 
Q 1303 -91 875 529 
Q 447 1150 447 2328 
Q 447 3434 972 4092 
Q 1497 4750 2381 4750 
Q 2619 4750 2861 4703 
Q 3103 4656 3366 4563 
z
" transform="scale(0.015625)"/>
       </defs>
       <use xlink:href="#DejaVuSans-31"/>
       <use xlink:href="#DejaVuSans-36" transform="translate(63.623047 0)"/>
      </g>
     </g>
    </g>
    <g id="xtick_6">
     <g id="line2d_11">
      <path d="M 289.59125 210.04 
L 289.59125 26.16 
" clip-path="url(#pe205061a47)" style="fill: none; stroke: #b0b0b0; stroke-width: 0.8; stroke-linecap: square"/>
     </g>
     <g id="line2d_12">
      <g>
       <use xlink:href="#m3704f7e98c" x="289.59125" y="210.04" style="stroke: #000000; stroke-width: 0.8"/>
      </g>
     </g>
     <g id="text_6">
      <!-- 32 -->
      <g transform="translate(283.22875 224.638438) scale(0.1 -0.1)">
       <defs>
        <path id="DejaVuSans-33" d="M 2597 2516 
Q 3050 2419 3304 2112 
Q 3559 1806 3559 1356 
Q 3559 666 3084 287 
Q 2609 -91 1734 -91 
Q 1441 -91 1130 -33 
Q 819 25 488 141 
L 488 750 
Q 750 597 1062 519 
Q 1375 441 1716 441 
Q 2309 441 2620 675 
Q 2931 909 2931 1356 
Q 2931 1769 2642 2001 
Q 2353 2234 1838 2234 
L 1294 2234 
L 1294 2753 
L 1863 2753 
Q 2328 2753 2575 2939 
Q 2822 3125 2822 3475 
Q 2822 3834 2567 4026 
Q 2313 4219 1838 4219 
Q 1578 4219 1281 4162 
Q 984 4106 628 3988 
L 628 4550 
Q 988 4650 1302 4700 
Q 1616 4750 1894 4750 
Q 2613 4750 3031 4423 
Q 3450 4097 3450 3541 
Q 3450 3153 3228 2886 
Q 3006 2619 2597 2516 
z
" transform="scale(0.015625)"/>
       </defs>
       <use xlink:href="#DejaVuSans-33"/>
       <use xlink:href="#DejaVuSans-32" transform="translate(63.623047 0)"/>
      </g>
     </g>
    </g>
    <g id="text_7">
     <!-- Threads -->
     <g transform="translate(155.893594 238.316563) scale(0.1 -0.1)">
      <defs>
       <path id="DejaVuSans-54" d="M -19 4666 
L 3928 4666 
L 3928 4134 
L 2272 4134 
L 2272 0 
L 1638 0 
L 1638 4134 
L -19 4134 
L -19 4666 
z
" transform="scale(0.015625)"/>
       <path id="DejaVuSans-68" d="M 3513 2113 
L 3513 0 
L 2938 0 
L 2938 2094 
Q 2938 2591 2744 2837 
Q 2550 3084 2163 3084 
Q 1697 3084 1428 2787 
Q 1159 2491 1159 1978 
L 1159 0 
L 581 0 
L 581 4863 
L 1159 4863 
L 1159 2956 
Q 1366 3272 1645 3428 
Q 1925 3584 2291 3584 
Q 2894 3584 3203 3211 
Q 3513 2838 3513 2113 
z
" transform="scale(0.015625)"/>
       <path id="DejaVuSans-72" d="M 2631 2963 
Q 2534 3019 2420 3045 
Q 2306 3072 2169 3072 
Q 1681 3072 1420 2755 
Q 1159 2438 1159 1844 
L 1159 0 
L 581 0 
L 581 3500 
L 1159 3500 
L 1159 2956 
Q 1341 3275 1631 3429 
Q 1922 3584 2338 3584 
Q 2397 3584 2469 3576 
Q 2541 3569 2628 3553 
L 2631 2963 
z
" transform="scale(0.015625)"/>
       <path id="DejaVuSans-65" d="M 3597 1894 
L 3597 1613 
L 953 1613 
Q 991 1019 1311 708 
Q 1631 397 2203 397 
Q 2534 397 2845 478 
Q 3156 559 3463 722 
L 3463 178 
Q 3153 47 2828 -22 
Q 2503 -91 2169 -91 
Q 1331 -91 842 396 
Q 353 884 353 1716 
Q 353 2575 817 3079 
Q 1281 3584 2069 3584 
Q 2775 3584 3186 3129 
Q 3597 2675 3597 1894 
z
M 3022 2063 
Q 3016 2534 2758 2815 
Q 2500 3097 2075 3097 
Q 1594 3097 1305 2825 
Q 1016 2553 972 2059 
L 3022 2063 
z
" transform="scale(0.015625)"/>
       <path id="DejaVuSans-61" d="M 2194 1759 
Q 1497 1759 1228 1600 
Q 959 1441 959 1056 
Q 959 750 1161 570 
Q 1363 391 1709 391 
Q 2188 391 2477 730 
Q 2766 1069 2766 1631 
L 2766 1759 
L 2194 1759 
z
M 3341 1997 
L 3341 0 
L 2766 0 
L 2766 531 
Q 2569 213 2275 61 
Q 1981 -91 1556 -91 
Q 1019 -91 701 211 
Q 384 513 384 1019 
Q 384 1609 779 1909 
Q 1175 2209 1959 2209 
L 2766 2209 
L 2766 2266 
Q 2766 2663 2505 2880 
Q 2244 3097 1772 3097 
Q 1472 3097 1187 3025 
Q 903 2953 641 2809 
L 641 3341 
Q 956 3463 1253 3523 
Q 1550 3584 1831 3584 
Q 2591 3584 2966 3190 
Q 3341 2797 3341 1997 
z
" transform="scale(0.015625)"/>
       <path id="DejaVuSans-64" d="M 2906 2969 
L 2906 4863 
L 3481 4863 
L 3481 0 
L 2906 0 
L 2906 525 
Q 2725 213 2448 61 
Q 2172 -91 1784 -91 
Q 1150 -91 751 415 
Q 353 922 353 1747 
Q 353 2572 751 3078 
Q 1150 3584 1784 3584 
Q 2172 3584 2448 3432 
Q 2725 3281 2906 2969 
z
M 947 1747 
Q 947 1113 1208 752 
Q 1469 391 1925 391 
Q 2381 391 2643 752 
Q 2906 1113 2906 1747 
Q 2906 2381 2643 2742 
Q 2381 3103 1925 3103 
Q 1469 3103 1208 2742 
Q 947 2381 947 1747 
z
" transform="scale(0.015625)"/>
       <path id="DejaVuSans-73" d="M 2834 3397 
L 2834 2853 
Q 2591 2978 2328 3040 
Q 2066 3103 1784 3103 
Q 1356 3103 1142 2972 
Q 928 2841 928 2578 
Q 928 2378 1081 2264 
Q 1234 2150 1697 2047 
L 1894 2003 
Q 2506 1872 2764 1633 
Q 3022 1394 3022 966 
Q 3022 478 2636 193 
Q 2250 -91 1575 -91 
Q 1294 -91 989 -36 
Q 684 19 347 128 
L 347 722 
Q 666 556 975 473 
Q 1284 391 1588 391 
Q 1994 391 2212 530 
Q 2431 669 2431 922 
Q 2431 1156 2273 1281 
Q 2116 1406 1581 1522 
L 1381 1569 
Q 847 1681 609 1914 
Q 372 2147 372 2553 
Q 372 3047 722 3315 
Q 1072 3584 1716 3584 
Q 2034 3584 2315 3537 
Q 2597 3491 2834 3397 
z
" transform="scale(0.015625)"/>
      </defs>
      <use xlink:href="#DejaVuSans-54"/>
      <use xlink:href="#DejaVuSans-68" transform="translate(61.083984 0)"/>
      <use xlink:href="#DejaVuSans-72" transform="translate(124.462891 0)"/>
      <use xlink:href="#DejaVuSans-65" transform="translate(163.326172 0)"/>
      <use xlink:href="#DejaVuSans-61" transform="translate(224.849609 0)"/>
      <use xlink:href="#DejaVuSans-64" transform="translate(286.128906 0)"/>
      <use xlink:href="#DejaVuSans-73" transform="translate(349.605469 0)"/>
     </g>
    </g>
   </g>
   <g id="matplotlib.axis_2">
    <g id="ytick_1">
     <g id="line2d_13">
      <path d="M 51.005 202.770416 
L 300.9525 202.770416 
" clip-path="url(#pe205061a47)" style="fill: none; stroke: #b0b0b0; stroke-width: 0.8; stroke-linecap: square"/>
     </g>
     <g id="line2d_14">
      <defs>
       <path id="mbd81372173" d="M 0 0 
L -3.5 0 
" style="stroke: #000000; stroke-width: 0.8"/>
      </defs>
      <g>
       <use xlink:href="#mbd81372173" x="51.005" y="202.770416" style="stroke: #000000; stroke-width: 0.8"/>
      </g>
     </g>
     <g id="text_8">
      <!-- 0 -->
      <g transform="translate(37.6425 206.569635) scale(0.1 -0.1)">
       <defs>
        <path id="DejaVuSans-30" d="M 2034 4250 
Q 1547 4250 1301 3770 
Q 1056 3291 1056 2328 
Q 1056 1369 1301 889 
Q 1547 409 2034 409 
Q 2525 409 2770 889 
Q 3016 1369 3016 2328 
Q 3016 3291 2770 3770 
Q 2525 4250 2034 4250 
z
M 2034 4750 
Q 2819 4750 3233 4129 
Q 3647 3509 3647 2328 
Q 3647 1150 3233 529 
Q 2819 -91 2034 -91 
Q 1250 -91 836 529 
Q 422 1150 422 2328 
Q 422 3509 836 4129 
Q 1250 4750 2034 4750 
z
" transform="scale(0.015625)"/>
       </defs>
       <use xlink:href="#DejaVuSans-30"/>
      </g>
     </g>
    </g>
    <g id="ytick_2">
     <g id="line2d_15">
      <path d="M 51.005 170.065406 
L 300.9525 170.065406 
" clip-path="url(#pe205061a47)" style="fill: none; stroke: #b0b0b0; stroke-width: 0.8; stroke-linecap: square"/>
     </g>
     <g id="line2d_16">
      <g>
       <use xlink:href="#mbd81372173" x="51.005" y="170.065406" style="stroke: #000000; stroke-width: 0.8"/>
      </g>
     </g>
     <g id="text_9">
      <!-- 20 -->
      <g transform="translate(31.28 173.864624) scale(0.1 -0.1)">
       <use xlink:href="#DejaVuSans-32"/>
       <use xlink:href="#DejaVuSans-30" transform="translate(63.623047 0)"/>
      </g>
     </g>
    </g>
    <g id="ytick_3">
     <g id="line2d_17">
      <path d="M 51.005 137.360395 
L 300.9525 137.360395 
" clip-path="url(#pe205061a47)" style="fill: none; stroke: #b0b0b0; stroke-width: 0.8; stroke-linecap: square"/>
     </g>
     <g id="line2d_18">
      <g>
       <use xlink:href="#mbd81372173" x="51.005" y="137.360395" style="stroke: #000000; stroke-width: 0.8"/>
      </g>
     </g>
     <g id="text_10">
      <!-- 40 -->
      <g transform="translate(31.28 141.159614) scale(0.1 -0.1)">
       <use xlink:href="#DejaVuSans-34"/>
       <use xlink:href="#DejaVuSans-30" transform="translate(63.623047 0)"/>
      </g>
     </g>
    </g>
    <g id="ytick_4">
     <g id="line2d_19">
      <path d="M 51.005 104.655385 
L 300.9525 104.655385 
" clip-path="url(#pe205061a47)" style="fill: none; stroke: #b0b0b0; stroke-width: 0.8; stroke-linecap: square"/>
     </g>
     <g id="line2d_20">
      <g>
       <use xlink:href="#mbd81372173" x="51.005" y="104.655385" style="stroke: #000000; stroke-width: 0.8"/>
      </g>
     </g>
     <g id="text_11">
      <!-- 60 -->
      <g transform="translate(31.28 108.454604) scale(0.1 -0.1)">
       <use xlink:href="#DejaVuSans-36"/>
       <use xlink:href="#DejaVuSans-30" transform="translate(63.623047 0)"/>
      </g>
     </g>
    </g>
    <g id="ytick_5">
     <g id="line2d_21">
      <path d="M 51.005 71.950374 
L 300.9525 71.950374 
" clip-path="url(#pe205061a47)" style="fill: none; stroke: #b0b0b0; stroke-width: 0.8; stroke-linecap: square"/>
     </g>
     <g id="line2d_22">
      <g>
       <use xlink:href="#mbd81372173" x="51.005" y="71.950374" style="stroke: #000000; stroke-width: 0.8"/>
      </g>
     </g>
     <g id="text_12">
      <!-- 80 -->
      <g transform="translate(31.28 75.749593) scale(0.1 -0.1)">
       <use xlink:href="#DejaVuSans-38"/>
       <use xlink:href="#DejaVuSans-30" transform="translate(63.623047 0)"/>
      </g>
     </g>
    </g>
    <g id="ytick_6">
     <g id="line2d_23">
      <path d="M 51.005 39.245364 
L 300.9525 39.245364 
" clip-path="url(#pe205061a47)" style="fill: none; stroke: #b0b0b0; stroke-width: 0.8; stroke-linecap: square"/>
     </g>
     <g id="line2d_24">
      <g>
       <use xlink:href="#mbd81372173" x="51.005" y="39.245364" style="stroke: #000000; stroke-width: 0.8"/>
      </g>
     </g>
     <g id="text_13">
      <!-- 100 -->
      <g transform="translate(24.9175 43.044583) scale(0.1 -0.1)">
       <use xlink:href="#DejaVuSans-31"/>
       <use xlink:href="#DejaVuSans-30" transform="translate(63.623047 0)"/>
       <use xlink:href="#DejaVuSans-30" transform="translate(127.246094 0)"/>
      </g>
     </g>
    </g>
    <g id="text_14">
     <!-- Time (sec) -->
     <g transform="translate(18.837812 144.254688) rotate(-90) scale(0.1 -0.1)">
      <defs>
       <path id="DejaVuSans-69" d="M 603 3500 
L 1178 3500 
L 1178 0 
L 603 0 
L 603 3500 
z
M 603 4863 
L 1178 4863 
L 1178 4134 
L 603 4134 
L 603 4863 
z
" transform="scale(0.015625)"/>
       <path id="DejaVuSans-6d" d="M 3328 2828 
Q 3544 3216 3844 3400 
Q 4144 3584 4550 3584 
Q 5097 3584 5394 3201 
Q 5691 2819 5691 2113 
L 5691 0 
L 5113 0 
L 5113 2094 
Q 5113 2597 4934 2840 
Q 4756 3084 4391 3084 
Q 3944 3084 3684 2787 
Q 3425 2491 3425 1978 
L 3425 0 
L 2847 0 
L 2847 2094 
Q 2847 2600 2669 2842 
Q 2491 3084 2119 3084 
Q 1678 3084 1418 2786 
Q 1159 2488 1159 1978 
L 1159 0 
L 581 0 
L 581 3500 
L 1159 3500 
L 1159 2956 
Q 1356 3278 1631 3431 
Q 1906 3584 2284 3584 
Q 2666 3584 2933 3390 
Q 3200 3197 3328 2828 
z
" transform="scale(0.015625)"/>
       <path id="DejaVuSans-20" transform="scale(0.015625)"/>
       <path id="DejaVuSans-28" d="M 1984 4856 
Q 1566 4138 1362 3434 
Q 1159 2731 1159 2009 
Q 1159 1288 1364 580 
Q 1569 -128 1984 -844 
L 1484 -844 
Q 1016 -109 783 600 
Q 550 1309 550 2009 
Q 550 2706 781 3412 
Q 1013 4119 1484 4856 
L 1984 4856 
z
" transform="scale(0.015625)"/>
       <path id="DejaVuSans-63" d="M 3122 3366 
L 3122 2828 
Q 2878 2963 2633 3030 
Q 2388 3097 2138 3097 
Q 1578 3097 1268 2742 
Q 959 2388 959 1747 
Q 959 1106 1268 751 
Q 1578 397 2138 397 
Q 2388 397 2633 464 
Q 2878 531 3122 666 
L 3122 134 
Q 2881 22 2623 -34 
Q 2366 -91 2075 -91 
Q 1284 -91 818 406 
Q 353 903 353 1747 
Q 353 2603 823 3093 
Q 1294 3584 2113 3584 
Q 2378 3584 2631 3529 
Q 2884 3475 3122 3366 
z
" transform="scale(0.015625)"/>
       <path id="DejaVuSans-29" d="M 513 4856 
L 1013 4856 
Q 1481 4119 1714 3412 
Q 1947 2706 1947 2009 
Q 1947 1309 1714 600 
Q 1481 -109 1013 -844 
L 513 -844 
Q 928 -128 1133 580 
Q 1338 1288 1338 2009 
Q 1338 2731 1133 3434 
Q 928 4138 513 4856 
z
" transform="scale(0.015625)"/>
      </defs>
      <use xlink:href="#DejaVuSans-54"/>
      <use xlink:href="#DejaVuSans-69" transform="translate(57.958984 0)"/>
      <use xlink:href="#DejaVuSans-6d" transform="translate(85.742188 0)"/>
      <use xlink:href="#DejaVuSans-65" transform="translate(183.154297 0)"/>
      <use xlink:href="#DejaVuSans-20" transform="translate(244.677734 0)"/>
      <use xlink:href="#DejaVuSans-28" transform="translate(276.464844 0)"/>
      <use xlink:href="#DejaVuSans-73" transform="translate(315.478516 0)"/>
      <use xlink:href="#DejaVuSans-65" transform="translate(367.578125 0)"/>
      <use xlink:href="#DejaVuSans-63" transform="translate(429.101562 0)"/>
      <use xlink:href="#DejaVuSans-29" transform="translate(484.082031 0)"/>
     </g>
    </g>
   </g>
   <g id="line2d_25">
    <path d="M 62.36625 181.067371 
L 107.81125 191.421319 
L 153.25625 196.929497 
L 198.70125 199.77516 
L 244.14625 201.239563 
L 289.59125 201.681818 
" clip-path="url(#pe205061a47)" style="fill: none; stroke: #94c4df; stroke-width: 1.5; stroke-linecap: square"/>
    <defs>
     <path id="mb8f044a5ff" d="M 0 1.5 
C 0.397805 1.5 0.77937 1.341951 1.06066 1.06066 
C 1.341951 0.77937 1.5 0.397805 1.5 0 
C 1.5 -0.397805 1.341951 -0.77937 1.06066 -1.06066 
C 0.77937 -1.341951 0.397805 -1.5 0 -1.5 
C -0.397805 -1.5 -0.77937 -1.341951 -1.06066 -1.06066 
C -1.341951 -0.77937 -1.5 -0.397805 -1.5 0 
C -1.5 0.397805 -1.341951 0.77937 -1.06066 1.06066 
C -0.77937 1.341951 -0.397805 1.5 0 1.5 
z
" style="stroke: #94c4df"/>
    </defs>
    <g clip-path="url(#pe205061a47)">
     <use xlink:href="#mb8f044a5ff" x="62.36625" y="181.067371" style="fill: #94c4df; stroke: #94c4df"/>
     <use xlink:href="#mb8f044a5ff" x="107.81125" y="191.421319" style="fill: #94c4df; stroke: #94c4df"/>
     <use xlink:href="#mb8f044a5ff" x="153.25625" y="196.929497" style="fill: #94c4df; stroke: #94c4df"/>
     <use xlink:href="#mb8f044a5ff" x="198.70125" y="199.77516" style="fill: #94c4df; stroke: #94c4df"/>
     <use xlink:href="#mb8f044a5ff" x="244.14625" y="201.239563" style="fill: #94c4df; stroke: #94c4df"/>
     <use xlink:href="#mb8f044a5ff" x="289.59125" y="201.681818" style="fill: #94c4df; stroke: #94c4df"/>
    </g>
   </g>
   <g id="line2d_26">
    <path d="M 62.36625 181.067371 
L 107.81125 190.464539 
L 153.25625 195.688045 
L 198.70125 197.909321 
L 244.14625 199.592423 
L 289.59125 201.43988 
" clip-path="url(#pe205061a47)" style="fill: none; stroke: #fc8a6a; stroke-width: 1.5; stroke-linecap: square"/>
    <defs>
     <path id="md2a0f2cc64" d="M 0 1.5 
C 0.397805 1.5 0.77937 1.341951 1.06066 1.06066 
C 1.341951 0.77937 1.5 0.397805 1.5 0 
C 1.5 -0.397805 1.341951 -0.77937 1.06066 -1.06066 
C 0.77937 -1.341951 0.397805 -1.5 0 -1.5 
C -0.397805 -1.5 -0.77937 -1.341951 -1.06066 -1.06066 
C -1.341951 -0.77937 -1.5 -0.397805 -1.5 0 
C -1.5 0.397805 -1.341951 0.77937 -1.06066 1.06066 
C -0.77937 1.341951 -0.397805 1.5 0 1.5 
z
" style="stroke: #fc8a6a"/>
    </defs>
    <g clip-path="url(#pe205061a47)">
     <use xlink:href="#md2a0f2cc64" x="62.36625" y="181.067371" style="fill: #fc8a6a; stroke: #fc8a6a"/>
     <use xlink:href="#md2a0f2cc64" x="107.81125" y="190.464539" style="fill: #fc8a6a; stroke: #fc8a6a"/>
     <use xlink:href="#md2a0f2cc64" x="153.25625" y="195.688045" style="fill: #fc8a6a; stroke: #fc8a6a"/>
     <use xlink:href="#md2a0f2cc64" x="198.70125" y="197.909321" style="fill: #fc8a6a; stroke: #fc8a6a"/>
     <use xlink:href="#md2a0f2cc64" x="244.14625" y="199.592423" style="fill: #fc8a6a; stroke: #fc8a6a"/>
     <use xlink:href="#md2a0f2cc64" x="289.59125" y="201.43988" style="fill: #fc8a6a; stroke: #fc8a6a"/>
    </g>
   </g>
   <g id="line2d_27">
    <path d="M 62.36625 159.171857 
L 107.81125 179.977477 
L 153.25625 191.177242 
L 198.70125 196.792332 
L 244.14625 199.750419 
L 289.59125 200.608304 
" clip-path="url(#pe205061a47)" style="fill: none; stroke: #4a98c9; stroke-width: 1.5; stroke-linecap: square"/>
    <defs>
     <path id="m70dd34e876" d="M 0 1.5 
C 0.397805 1.5 0.77937 1.341951 1.06066 1.06066 
C 1.341951 0.77937 1.5 0.397805 1.5 0 
C 1.5 -0.397805 1.341951 -0.77937 1.06066 -1.06066 
C 0.77937 -1.341951 0.397805 -1.5 0 -1.5 
C -0.397805 -1.5 -0.77937 -1.341951 -1.06066 -1.06066 
C -1.341951 -0.77937 -1.5 -0.397805 -1.5 0 
C -1.5 0.397805 -1.341951 0.77937 -1.06066 1.06066 
C -0.77937 1.341951 -0.397805 1.5 0 1.5 
z
" style="stroke: #4a98c9"/>
    </defs>
    <g clip-path="url(#pe205061a47)">
     <use xlink:href="#m70dd34e876" x="62.36625" y="159.171857" style="fill: #4a98c9; stroke: #4a98c9"/>
     <use xlink:href="#m70dd34e876" x="107.81125" y="179.977477" style="fill: #4a98c9; stroke: #4a98c9"/>
     <use xlink:href="#m70dd34e876" x="153.25625" y="191.177242" style="fill: #4a98c9; stroke: #4a98c9"/>
     <use xlink:href="#m70dd34e876" x="198.70125" y="196.792332" style="fill: #4a98c9; stroke: #4a98c9"/>
     <use xlink:href="#m70dd34e876" x="244.14625" y="199.750419" style="fill: #4a98c9; stroke: #4a98c9"/>
     <use xlink:href="#m70dd34e876" x="289.59125" y="200.608304" style="fill: #4a98c9; stroke: #4a98c9"/>
    </g>
   </g>
   <g id="line2d_28">
    <path d="M 62.36625 159.171857 
L 107.81125 179.180357 
L 153.25625 189.187891 
L 198.70125 193.094294 
L 244.14625 195.064973 
L 289.59125 198.897582 
" clip-path="url(#pe205061a47)" style="fill: none; stroke: #f14432; stroke-width: 1.5; stroke-linecap: square"/>
    <defs>
     <path id="m1d38dd1e75" d="M 0 1.5 
C 0.397805 1.5 0.77937 1.341951 1.06066 1.06066 
C 1.341951 0.77937 1.5 0.397805 1.5 0 
C 1.5 -0.397805 1.341951 -0.77937 1.06066 -1.06066 
C 0.77937 -1.341951 0.397805 -1.5 0 -1.5 
C -0.397805 -1.5 -0.77937 -1.341951 -1.06066 -1.06066 
C -1.341951 -0.77937 -1.5 -0.397805 -1.5 0 
C -1.5 0.397805 -1.341951 0.77937 -1.06066 1.06066 
C -0.77937 1.341951 -0.397805 1.5 0 1.5 
z
" style="stroke: #f14432"/>
    </defs>
    <g clip-path="url(#pe205061a47)">
     <use xlink:href="#m1d38dd1e75" x="62.36625" y="159.171857" style="fill: #f14432; stroke: #f14432"/>
     <use xlink:href="#m1d38dd1e75" x="107.81125" y="179.180357" style="fill: #f14432; stroke: #f14432"/>
     <use xlink:href="#m1d38dd1e75" x="153.25625" y="189.187891" style="fill: #f14432; stroke: #f14432"/>
     <use xlink:href="#m1d38dd1e75" x="198.70125" y="193.094294" style="fill: #f14432; stroke: #f14432"/>
     <use xlink:href="#m1d38dd1e75" x="244.14625" y="195.064973" style="fill: #f14432; stroke: #f14432"/>
     <use xlink:href="#m1d38dd1e75" x="289.59125" y="198.897582" style="fill: #f14432; stroke: #f14432"/>
    </g>
   </g>
   <g id="line2d_29">
    <path d="M 62.36625 115.712393 
L 107.81125 157.320427 
L 153.25625 179.65615 
L 198.70125 190.869995 
L 244.14625 196.775228 
L 289.59125 198.520629 
" clip-path="url(#pe205061a47)" style="fill: none; stroke: #1764ab; stroke-width: 1.5; stroke-linecap: square"/>
    <defs>
     <path id="m11b06ba782" d="M 0 1.5 
C 0.397805 1.5 0.77937 1.341951 1.06066 1.06066 
C 1.341951 0.77937 1.5 0.397805 1.5 0 
C 1.5 -0.397805 1.341951 -0.77937 1.06066 -1.06066 
C 0.77937 -1.341951 0.397805 -1.5 0 -1.5 
C -0.397805 -1.5 -0.77937 -1.341951 -1.06066 -1.06066 
C -1.341951 -0.77937 -1.5 -0.397805 -1.5 0 
C -1.5 0.397805 -1.341951 0.77937 -1.06066 1.06066 
C -0.77937 1.341951 -0.397805 1.5 0 1.5 
z
" style="stroke: #1764ab"/>
    </defs>
    <g clip-path="url(#pe205061a47)">
     <use xlink:href="#m11b06ba782" x="62.36625" y="115.712393" style="fill: #1764ab; stroke: #1764ab"/>
     <use xlink:href="#m11b06ba782" x="107.81125" y="157.320427" style="fill: #1764ab; stroke: #1764ab"/>
     <use xlink:href="#m11b06ba782" x="153.25625" y="179.65615" style="fill: #1764ab; stroke: #1764ab"/>
     <use xlink:href="#m11b06ba782" x="198.70125" y="190.869995" style="fill: #1764ab; stroke: #1764ab"/>
     <use xlink:href="#m11b06ba782" x="244.14625" y="196.775228" style="fill: #1764ab; stroke: #1764ab"/>
     <use xlink:href="#m11b06ba782" x="289.59125" y="198.520629" style="fill: #1764ab; stroke: #1764ab"/>
    </g>
   </g>
   <g id="line2d_30">
    <path d="M 62.36625 115.712393 
L 107.81125 153.368876 
L 153.25625 175.971145 
L 198.70125 182.763927 
L 244.14625 186.162632 
L 289.59125 193.809765 
" clip-path="url(#pe205061a47)" style="fill: none; stroke: #bc141a; stroke-width: 1.5; stroke-linecap: square"/>
    <defs>
     <path id="md68adf2d25" d="M 0 1.5 
C 0.397805 1.5 0.77937 1.341951 1.06066 1.06066 
C 1.341951 0.77937 1.5 0.397805 1.5 0 
C 1.5 -0.397805 1.341951 -0.77937 1.06066 -1.06066 
C 0.77937 -1.341951 0.397805 -1.5 0 -1.5 
C -0.397805 -1.5 -0.77937 -1.341951 -1.06066 -1.06066 
C -1.341951 -0.77937 -1.5 -0.397805 -1.5 0 
C -1.5 0.397805 -1.341951 0.77937 -1.06066 1.06066 
C -0.77937 1.341951 -0.397805 1.5 0 1.5 
z
" style="stroke: #bc141a"/>
    </defs>
    <g clip-path="url(#pe205061a47)">
     <use xlink:href="#md68adf2d25" x="62.36625" y="115.712393" style="fill: #bc141a; stroke: #bc141a"/>
     <use xlink:href="#md68adf2d25" x="107.81125" y="153.368876" style="fill: #bc141a; stroke: #bc141a"/>
     <use xlink:href="#md68adf2d25" x="153.25625" y="175.971145" style="fill: #bc141a; stroke: #bc141a"/>
     <use xlink:href="#md68adf2d25" x="198.70125" y="182.763927" style="fill: #bc141a; stroke: #bc141a"/>
     <use xlink:href="#md68adf2d25" x="244.14625" y="186.162632" style="fill: #bc141a; stroke: #bc141a"/>
     <use xlink:href="#md68adf2d25" x="289.59125" y="193.809765" style="fill: #bc141a; stroke: #bc141a"/>
    </g>
   </g>
   <g id="patch_3">
    <path d="M 51.005 210.04 
L 51.005 26.16 
" style="fill: none; stroke: #000000; stroke-width: 0.8; stroke-linejoin: miter; stroke-linecap: square"/>
   </g>
   <g id="patch_4">
    <path d="M 300.9525 210.04 
L 300.9525 26.16 
" style="fill: none; stroke: #000000; stroke-width: 0.8; stroke-linejoin: miter; stroke-linecap: square"/>
   </g>
   <g id="patch_5">
    <path d="M 51.005 210.04 
L 300.9525 210.04 
" style="fill: none; stroke: #000000; stroke-width: 0.8; stroke-linejoin: miter; stroke-linecap: square"/>
   </g>
   <g id="patch_6">
    <path d="M 51.005 26.16 
L 300.9525 26.16 
" style="fill: none; stroke: #000000; stroke-width: 0.8; stroke-linejoin: miter; stroke-linecap: square"/>
   </g>
   <g id="text_15">
    <!-- Magic Training Time -->
    <g transform="translate(116.185 20.16) scale(0.12 -0.12)">
     <defs>
      <path id="DejaVuSans-4d" d="M 628 4666 
L 1569 4666 
L 2759 1491 
L 3956 4666 
L 4897 4666 
L 4897 0 
L 4281 0 
L 4281 4097 
L 3078 897 
L 2444 897 
L 1241 4097 
L 1241 0 
L 628 0 
L 628 4666 
z
" transform="scale(0.015625)"/>
      <path id="DejaVuSans-67" d="M 2906 1791 
Q 2906 2416 2648 2759 
Q 2391 3103 1925 3103 
Q 1463 3103 1205 2759 
Q 947 2416 947 1791 
Q 947 1169 1205 825 
Q 1463 481 1925 481 
Q 2391 481 2648 825 
Q 2906 1169 2906 1791 
z
M 3481 434 
Q 3481 -459 3084 -895 
Q 2688 -1331 1869 -1331 
Q 1566 -1331 1297 -1286 
Q 1028 -1241 775 -1147 
L 775 -588 
Q 1028 -725 1275 -790 
Q 1522 -856 1778 -856 
Q 2344 -856 2625 -561 
Q 2906 -266 2906 331 
L 2906 616 
Q 2728 306 2450 153 
Q 2172 0 1784 0 
Q 1141 0 747 490 
Q 353 981 353 1791 
Q 353 2603 747 3093 
Q 1141 3584 1784 3584 
Q 2172 3584 2450 3431 
Q 2728 3278 2906 2969 
L 2906 3500 
L 3481 3500 
L 3481 434 
z
" transform="scale(0.015625)"/>
      <path id="DejaVuSans-6e" d="M 3513 2113 
L 3513 0 
L 2938 0 
L 2938 2094 
Q 2938 2591 2744 2837 
Q 2550 3084 2163 3084 
Q 1697 3084 1428 2787 
Q 1159 2491 1159 1978 
L 1159 0 
L 581 0 
L 581 3500 
L 1159 3500 
L 1159 2956 
Q 1366 3272 1645 3428 
Q 1925 3584 2291 3584 
Q 2894 3584 3203 3211 
Q 3513 2838 3513 2113 
z
" transform="scale(0.015625)"/>
     </defs>
     <use xlink:href="#DejaVuSans-4d"/>
     <use xlink:href="#DejaVuSans-61" transform="translate(86.279297 0)"/>
     <use xlink:href="#DejaVuSans-67" transform="translate(147.558594 0)"/>
     <use xlink:href="#DejaVuSans-69" transform="translate(211.035156 0)"/>
     <use xlink:href="#DejaVuSans-63" transform="translate(238.818359 0)"/>
     <use xlink:href="#DejaVuSans-20" transform="translate(293.798828 0)"/>
     <use xlink:href="#DejaVuSans-54" transform="translate(325.585938 0)"/>
     <use xlink:href="#DejaVuSans-72" transform="translate(371.919922 0)"/>
     <use xlink:href="#DejaVuSans-61" transform="translate(413.033203 0)"/>
     <use xlink:href="#DejaVuSans-69" transform="translate(474.3125 0)"/>
     <use xlink:href="#DejaVuSans-6e" transform="translate(502.095703 0)"/>
     <use xlink:href="#DejaVuSans-69" transform="translate(565.474609 0)"/>
     <use xlink:href="#DejaVuSans-6e" transform="translate(593.257812 0)"/>
     <use xlink:href="#DejaVuSans-67" transform="translate(656.636719 0)"/>
     <use xlink:href="#DejaVuSans-20" transform="translate(720.113281 0)"/>
     <use xlink:href="#DejaVuSans-54" transform="translate(751.900391 0)"/>
     <use xlink:href="#DejaVuSans-69" transform="translate(809.859375 0)"/>
     <use xlink:href="#DejaVuSans-6d" transform="translate(837.642578 0)"/>
     <use xlink:href="#DejaVuSans-65" transform="translate(935.054688 0)"/>
    </g>
   </g>
  </g>
  <g id="axes_2">
   <g id="patch_7">
    <path d="M 315.2525 210.04 
L 565.2 210.04 
L 565.2 26.16 
L 315.2525 26.16 
z
" style="fill: #ffffff"/>
   </g>
   <g id="matplotlib.axis_3">
    <g id="xtick_7">
     <g id="line2d_31">
      <path d="M 326.61375 210.04 
L 326.61375 26.16 
" clip-path="url(#pf8f857131e)" style="fill: none; stroke: #b0b0b0; stroke-width: 0.8; stroke-linecap: square"/>
     </g>
     <g id="line2d_32">
      <g>
       <use xlink:href="#m3704f7e98c" x="326.61375" y="210.04" style="stroke: #000000; stroke-width: 0.8"/>
      </g>
     </g>
     <g id="text_16">
      <!-- 1 -->
      <g transform="translate(323.4325 224.638438) scale(0.1 -0.1)">
       <use xlink:href="#DejaVuSans-31"/>
      </g>
     </g>
    </g>
    <g id="xtick_8">
     <g id="line2d_33">
      <path d="M 372.05875 210.04 
L 372.05875 26.16 
" clip-path="url(#pf8f857131e)" style="fill: none; stroke: #b0b0b0; stroke-width: 0.8; stroke-linecap: square"/>
     </g>
     <g id="line2d_34">
      <g>
       <use xlink:href="#m3704f7e98c" x="372.05875" y="210.04" style="stroke: #000000; stroke-width: 0.8"/>
      </g>
     </g>
     <g id="text_17">
      <!-- 2 -->
      <g transform="translate(368.8775 224.638438) scale(0.1 -0.1)">
       <use xlink:href="#DejaVuSans-32"/>
      </g>
     </g>
    </g>
    <g id="xtick_9">
     <g id="line2d_35">
      <path d="M 417.50375 210.04 
L 417.50375 26.16 
" clip-path="url(#pf8f857131e)" style="fill: none; stroke: #b0b0b0; stroke-width: 0.8; stroke-linecap: square"/>
     </g>
     <g id="line2d_36">
      <g>
       <use xlink:href="#m3704f7e98c" x="417.50375" y="210.04" style="stroke: #000000; stroke-width: 0.8"/>
      </g>
     </g>
     <g id="text_18">
      <!-- 4 -->
      <g transform="translate(414.3225 224.638438) scale(0.1 -0.1)">
       <use xlink:href="#DejaVuSans-34"/>
      </g>
     </g>
    </g>
    <g id="xtick_10">
     <g id="line2d_37">
      <path d="M 462.94875 210.04 
L 462.94875 26.16 
" clip-path="url(#pf8f857131e)" style="fill: none; stroke: #b0b0b0; stroke-width: 0.8; stroke-linecap: square"/>
     </g>
     <g id="line2d_38">
      <g>
       <use xlink:href="#m3704f7e98c" x="462.94875" y="210.04" style="stroke: #000000; stroke-width: 0.8"/>
      </g>
     </g>
     <g id="text_19">
      <!-- 8 -->
      <g transform="translate(459.7675 224.638438) scale(0.1 -0.1)">
       <use xlink:href="#DejaVuSans-38"/>
      </g>
     </g>
    </g>
    <g id="xtick_11">
     <g id="line2d_39">
      <path d="M 508.39375 210.04 
L 508.39375 26.16 
" clip-path="url(#pf8f857131e)" style="fill: none; stroke: #b0b0b0; stroke-width: 0.8; stroke-linecap: square"/>
     </g>
     <g id="line2d_40">
      <g>
       <use xlink:href="#m3704f7e98c" x="508.39375" y="210.04" style="stroke: #000000; stroke-width: 0.8"/>
      </g>
     </g>
     <g id="text_20">
      <!-- 16 -->
      <g transform="translate(502.03125 224.638438) scale(0.1 -0.1)">
       <use xlink:href="#DejaVuSans-31"/>
       <use xlink:href="#DejaVuSans-36" transform="translate(63.623047 0)"/>
      </g>
     </g>
    </g>
    <g id="xtick_12">
     <g id="line2d_41">
      <path d="M 553.83875 210.04 
L 553.83875 26.16 
" clip-path="url(#pf8f857131e)" style="fill: none; stroke: #b0b0b0; stroke-width: 0.8; stroke-linecap: square"/>
     </g>
     <g id="line2d_42">
      <g>
       <use xlink:href="#m3704f7e98c" x="553.83875" y="210.04" style="stroke: #000000; stroke-width: 0.8"/>
      </g>
     </g>
     <g id="text_21">
      <!-- 32 -->
      <g transform="translate(547.47625 224.638438) scale(0.1 -0.1)">
       <use xlink:href="#DejaVuSans-33"/>
       <use xlink:href="#DejaVuSans-32" transform="translate(63.623047 0)"/>
      </g>
     </g>
    </g>
    <g id="text_22">
     <!-- Threads -->
     <g transform="translate(420.141094 238.316563) scale(0.1 -0.1)">
      <use xlink:href="#DejaVuSans-54"/>
      <use xlink:href="#DejaVuSans-68" transform="translate(61.083984 0)"/>
      <use xlink:href="#DejaVuSans-72" transform="translate(124.462891 0)"/>
      <use xlink:href="#DejaVuSans-65" transform="translate(163.326172 0)"/>
      <use xlink:href="#DejaVuSans-61" transform="translate(224.849609 0)"/>
      <use xlink:href="#DejaVuSans-64" transform="translate(286.128906 0)"/>
      <use xlink:href="#DejaVuSans-73" transform="translate(349.605469 0)"/>
     </g>
    </g>
   </g>
   <g id="matplotlib.axis_4">
    <g id="ytick_7">
     <g id="line2d_43">
      <path d="M 315.2525 202.770416 
L 565.2 202.770416 
" clip-path="url(#pf8f857131e)" style="fill: none; stroke: #b0b0b0; stroke-width: 0.8; stroke-linecap: square"/>
     </g>
     <g id="line2d_44">
      <g>
       <use xlink:href="#mbd81372173" x="315.2525" y="202.770416" style="stroke: #000000; stroke-width: 0.8"/>
      </g>
     </g>
    </g>
    <g id="ytick_8">
     <g id="line2d_45">
      <path d="M 315.2525 170.065406 
L 565.2 170.065406 
" clip-path="url(#pf8f857131e)" style="fill: none; stroke: #b0b0b0; stroke-width: 0.8; stroke-linecap: square"/>
     </g>
     <g id="line2d_46">
      <g>
       <use xlink:href="#mbd81372173" x="315.2525" y="170.065406" style="stroke: #000000; stroke-width: 0.8"/>
      </g>
     </g>
    </g>
    <g id="ytick_9">
     <g id="line2d_47">
      <path d="M 315.2525 137.360395 
L 565.2 137.360395 
" clip-path="url(#pf8f857131e)" style="fill: none; stroke: #b0b0b0; stroke-width: 0.8; stroke-linecap: square"/>
     </g>
     <g id="line2d_48">
      <g>
       <use xlink:href="#mbd81372173" x="315.2525" y="137.360395" style="stroke: #000000; stroke-width: 0.8"/>
      </g>
     </g>
    </g>
    <g id="ytick_10">
     <g id="line2d_49">
      <path d="M 315.2525 104.655385 
L 565.2 104.655385 
" clip-path="url(#pf8f857131e)" style="fill: none; stroke: #b0b0b0; stroke-width: 0.8; stroke-linecap: square"/>
     </g>
     <g id="line2d_50">
      <g>
       <use xlink:href="#mbd81372173" x="315.2525" y="104.655385" style="stroke: #000000; stroke-width: 0.8"/>
      </g>
     </g>
    </g>
    <g id="ytick_11">
     <g id="line2d_51">
      <path d="M 315.2525 71.950374 
L 565.2 71.950374 
" clip-path="url(#pf8f857131e)" style="fill: none; stroke: #b0b0b0; stroke-width: 0.8; stroke-linecap: square"/>
     </g>
     <g id="line2d_52">
      <g>
       <use xlink:href="#mbd81372173" x="315.2525" y="71.950374" style="stroke: #000000; stroke-width: 0.8"/>
      </g>
     </g>
    </g>
    <g id="ytick_12">
     <g id="line2d_53">
      <path d="M 315.2525 39.245364 
L 565.2 39.245364 
" clip-path="url(#pf8f857131e)" style="fill: none; stroke: #b0b0b0; stroke-width: 0.8; stroke-linecap: square"/>
     </g>
     <g id="line2d_54">
      <g>
       <use xlink:href="#mbd81372173" x="315.2525" y="39.245364" style="stroke: #000000; stroke-width: 0.8"/>
      </g>
     </g>
    </g>
   </g>
   <g id="line2d_55">
    <path d="M 326.61375 160.72649 
L 372.05875 180.767139 
L 417.50375 191.739997 
L 462.94875 197.00624 
L 508.39375 199.829352 
L 553.83875 200.630609 
" clip-path="url(#pf8f857131e)" style="fill: none; stroke: #94c4df; stroke-width: 1.5; stroke-linecap: square"/>
    <g clip-path="url(#pf8f857131e)">
     <use xlink:href="#mb8f044a5ff" x="326.61375" y="160.72649" style="fill: #94c4df; stroke: #94c4df"/>
     <use xlink:href="#mb8f044a5ff" x="372.05875" y="180.767139" style="fill: #94c4df; stroke: #94c4df"/>
     <use xlink:href="#mb8f044a5ff" x="417.50375" y="191.739997" style="fill: #94c4df; stroke: #94c4df"/>
     <use xlink:href="#mb8f044a5ff" x="462.94875" y="197.00624" style="fill: #94c4df; stroke: #94c4df"/>
     <use xlink:href="#mb8f044a5ff" x="508.39375" y="199.829352" style="fill: #94c4df; stroke: #94c4df"/>
     <use xlink:href="#mb8f044a5ff" x="553.83875" y="200.630609" style="fill: #94c4df; stroke: #94c4df"/>
    </g>
   </g>
   <g id="line2d_56">
    <path d="M 326.61375 160.72649 
L 372.05875 178.49661 
L 417.50375 188.266264 
L 462.94875 191.793457 
L 508.39375 195.490025 
L 553.83875 199.963111 
" clip-path="url(#pf8f857131e)" style="fill: none; stroke: #fc8a6a; stroke-width: 1.5; stroke-linecap: square"/>
    <g clip-path="url(#pf8f857131e)">
     <use xlink:href="#md2a0f2cc64" x="326.61375" y="160.72649" style="fill: #fc8a6a; stroke: #fc8a6a"/>
     <use xlink:href="#md2a0f2cc64" x="372.05875" y="178.49661" style="fill: #fc8a6a; stroke: #fc8a6a"/>
     <use xlink:href="#md2a0f2cc64" x="417.50375" y="188.266264" style="fill: #fc8a6a; stroke: #fc8a6a"/>
     <use xlink:href="#md2a0f2cc64" x="462.94875" y="191.793457" style="fill: #fc8a6a; stroke: #fc8a6a"/>
     <use xlink:href="#md2a0f2cc64" x="508.39375" y="195.490025" style="fill: #fc8a6a; stroke: #fc8a6a"/>
     <use xlink:href="#md2a0f2cc64" x="553.83875" y="199.963111" style="fill: #fc8a6a; stroke: #fc8a6a"/>
    </g>
   </g>
   <g id="line2d_57">
    <path d="M 326.61375 118.56584 
L 372.05875 158.486197 
L 417.50375 180.196273 
L 462.94875 191.171551 
L 508.39375 196.958834 
L 553.83875 198.557438 
" clip-path="url(#pf8f857131e)" style="fill: none; stroke: #4a98c9; stroke-width: 1.5; stroke-linecap: square"/>
    <g clip-path="url(#pf8f857131e)">
     <use xlink:href="#m70dd34e876" x="326.61375" y="118.56584" style="fill: #4a98c9; stroke: #4a98c9"/>
     <use xlink:href="#m70dd34e876" x="372.05875" y="158.486197" style="fill: #4a98c9; stroke: #4a98c9"/>
     <use xlink:href="#m70dd34e876" x="417.50375" y="180.196273" style="fill: #4a98c9; stroke: #4a98c9"/>
     <use xlink:href="#m70dd34e876" x="462.94875" y="191.171551" style="fill: #4a98c9; stroke: #4a98c9"/>
     <use xlink:href="#m70dd34e876" x="508.39375" y="196.958834" style="fill: #4a98c9; stroke: #4a98c9"/>
     <use xlink:href="#m70dd34e876" x="553.83875" y="198.557438" style="fill: #4a98c9; stroke: #4a98c9"/>
    </g>
   </g>
   <g id="line2d_58">
    <path d="M 326.61375 118.56584 
L 372.05875 154.070562 
L 417.50375 173.376297 
L 462.94875 179.222481 
L 508.39375 184.212481 
L 553.83875 193.930747 
" clip-path="url(#pf8f857131e)" style="fill: none; stroke: #f14432; stroke-width: 1.5; stroke-linecap: square"/>
    <g clip-path="url(#pf8f857131e)">
     <use xlink:href="#m1d38dd1e75" x="326.61375" y="118.56584" style="fill: #f14432; stroke: #f14432"/>
     <use xlink:href="#m1d38dd1e75" x="372.05875" y="154.070562" style="fill: #f14432; stroke: #f14432"/>
     <use xlink:href="#m1d38dd1e75" x="417.50375" y="173.376297" style="fill: #f14432; stroke: #f14432"/>
     <use xlink:href="#m1d38dd1e75" x="462.94875" y="179.222481" style="fill: #f14432; stroke: #f14432"/>
     <use xlink:href="#m1d38dd1e75" x="508.39375" y="184.212481" style="fill: #f14432; stroke: #f14432"/>
     <use xlink:href="#m1d38dd1e75" x="553.83875" y="193.930747" style="fill: #f14432; stroke: #f14432"/>
    </g>
   </g>
   <g id="line2d_59">
    <path d="M 326.61375 34.518182 
L 372.05875 114.828932 
L 417.50375 156.926168 
L 462.94875 179.643068 
L 508.39375 191.155428 
L 553.83875 194.467775 
" clip-path="url(#pf8f857131e)" style="fill: none; stroke: #1764ab; stroke-width: 1.5; stroke-linecap: square"/>
    <g clip-path="url(#pf8f857131e)">
     <use xlink:href="#m11b06ba782" x="326.61375" y="34.518182" style="fill: #1764ab; stroke: #1764ab"/>
     <use xlink:href="#m11b06ba782" x="372.05875" y="114.828932" style="fill: #1764ab; stroke: #1764ab"/>
     <use xlink:href="#m11b06ba782" x="417.50375" y="156.926168" style="fill: #1764ab; stroke: #1764ab"/>
     <use xlink:href="#m11b06ba782" x="462.94875" y="179.643068" style="fill: #1764ab; stroke: #1764ab"/>
     <use xlink:href="#m11b06ba782" x="508.39375" y="191.155428" style="fill: #1764ab; stroke: #1764ab"/>
     <use xlink:href="#m11b06ba782" x="553.83875" y="194.467775" style="fill: #1764ab; stroke: #1764ab"/>
    </g>
   </g>
   <g id="line2d_60">
    <path d="M 326.61375 34.518182 
L 372.05875 105.932515 
L 417.50375 143.540448 
L 462.94875 153.965105 
L 508.39375 162.184561 
L 553.83875 182.110007 
" clip-path="url(#pf8f857131e)" style="fill: none; stroke: #bc141a; stroke-width: 1.5; stroke-linecap: square"/>
    <g clip-path="url(#pf8f857131e)">
     <use xlink:href="#md68adf2d25" x="326.61375" y="34.518182" style="fill: #bc141a; stroke: #bc141a"/>
     <use xlink:href="#md68adf2d25" x="372.05875" y="105.932515" style="fill: #bc141a; stroke: #bc141a"/>
     <use xlink:href="#md68adf2d25" x="417.50375" y="143.540448" style="fill: #bc141a; stroke: #bc141a"/>
     <use xlink:href="#md68adf2d25" x="462.94875" y="153.965105" style="fill: #bc141a; stroke: #bc141a"/>
     <use xlink:href="#md68adf2d25" x="508.39375" y="162.184561" style="fill: #bc141a; stroke: #bc141a"/>
     <use xlink:href="#md68adf2d25" x="553.83875" y="182.110007" style="fill: #bc141a; stroke: #bc141a"/>
    </g>
   </g>
   <g id="patch_8">
    <path d="M 315.2525 210.04 
L 315.2525 26.16 
" style="fill: none; stroke: #000000; stroke-width: 0.8; stroke-linejoin: miter; stroke-linecap: square"/>
   </g>
   <g id="patch_9">
    <path d="M 565.2 210.04 
L 565.2 26.16 
" style="fill: none; stroke: #000000; stroke-width: 0.8; stroke-linejoin: miter; stroke-linecap: square"/>
   </g>
   <g id="patch_10">
    <path d="M 315.2525 210.04 
L 565.2 210.04 
" style="fill: none; stroke: #000000; stroke-width: 0.8; stroke-linejoin: miter; stroke-linecap: square"/>
   </g>
   <g id="patch_11">
    <path d="M 315.2525 26.16 
L 565.2 26.16 
" style="fill: none; stroke: #000000; stroke-width: 0.8; stroke-linejoin: miter; stroke-linecap: square"/>
   </g>
   <g id="text_23">
    <!-- SUSY 20k Training Time -->
    <g transform="translate(369.370938 20.16) scale(0.12 -0.12)">
     <defs>
      <path id="DejaVuSans-53" d="M 3425 4513 
L 3425 3897 
Q 3066 4069 2747 4153 
Q 2428 4238 2131 4238 
Q 1616 4238 1336 4038 
Q 1056 3838 1056 3469 
Q 1056 3159 1242 3001 
Q 1428 2844 1947 2747 
L 2328 2669 
Q 3034 2534 3370 2195 
Q 3706 1856 3706 1288 
Q 3706 609 3251 259 
Q 2797 -91 1919 -91 
Q 1588 -91 1214 -16 
Q 841 59 441 206 
L 441 856 
Q 825 641 1194 531 
Q 1563 422 1919 422 
Q 2459 422 2753 634 
Q 3047 847 3047 1241 
Q 3047 1584 2836 1778 
Q 2625 1972 2144 2069 
L 1759 2144 
Q 1053 2284 737 2584 
Q 422 2884 422 3419 
Q 422 4038 858 4394 
Q 1294 4750 2059 4750 
Q 2388 4750 2728 4690 
Q 3069 4631 3425 4513 
z
" transform="scale(0.015625)"/>
      <path id="DejaVuSans-55" d="M 556 4666 
L 1191 4666 
L 1191 1831 
Q 1191 1081 1462 751 
Q 1734 422 2344 422 
Q 2950 422 3222 751 
Q 3494 1081 3494 1831 
L 3494 4666 
L 4128 4666 
L 4128 1753 
Q 4128 841 3676 375 
Q 3225 -91 2344 -91 
Q 1459 -91 1007 375 
Q 556 841 556 1753 
L 556 4666 
z
" transform="scale(0.015625)"/>
      <path id="DejaVuSans-59" d="M -13 4666 
L 666 4666 
L 1959 2747 
L 3244 4666 
L 3922 4666 
L 2272 2222 
L 2272 0 
L 1638 0 
L 1638 2222 
L -13 4666 
z
" transform="scale(0.015625)"/>
      <path id="DejaVuSans-6b" d="M 581 4863 
L 1159 4863 
L 1159 1991 
L 2875 3500 
L 3609 3500 
L 1753 1863 
L 3688 0 
L 2938 0 
L 1159 1709 
L 1159 0 
L 581 0 
L 581 4863 
z
" transform="scale(0.015625)"/>
     </defs>
     <use xlink:href="#DejaVuSans-53"/>
     <use xlink:href="#DejaVuSans-55" transform="translate(63.476562 0)"/>
     <use xlink:href="#DejaVuSans-53" transform="translate(136.669922 0)"/>
     <use xlink:href="#DejaVuSans-59" transform="translate(200.146484 0)"/>
     <use xlink:href="#DejaVuSans-20" transform="translate(261.230469 0)"/>
     <use xlink:href="#DejaVuSans-32" transform="translate(293.017578 0)"/>
     <use xlink:href="#DejaVuSans-30" transform="translate(356.640625 0)"/>
     <use xlink:href="#DejaVuSans-6b" transform="translate(420.263672 0)"/>
     <use xlink:href="#DejaVuSans-20" transform="translate(478.173828 0)"/>
     <use xlink:href="#DejaVuSans-54" transform="translate(509.960938 0)"/>
     <use xlink:href="#DejaVuSans-72" transform="translate(556.294922 0)"/>
     <use xlink:href="#DejaVuSans-61" transform="translate(597.408203 0)"/>
     <use xlink:href="#DejaVuSans-69" transform="translate(658.6875 0)"/>
     <use xlink:href="#DejaVuSans-6e" transform="translate(686.470703 0)"/>
     <use xlink:href="#DejaVuSans-69" transform="translate(749.849609 0)"/>
     <use xlink:href="#DejaVuSans-6e" transform="translate(777.632812 0)"/>
     <use xlink:href="#DejaVuSans-67" transform="translate(841.011719 0)"/>
     <use xlink:href="#DejaVuSans-20" transform="translate(904.488281 0)"/>
     <use xlink:href="#DejaVuSans-54" transform="translate(936.275391 0)"/>
     <use xlink:href="#DejaVuSans-69" transform="translate(994.234375 0)"/>
     <use xlink:href="#DejaVuSans-6d" transform="translate(1022.017578 0)"/>
     <use xlink:href="#DejaVuSans-65" transform="translate(1119.429688 0)"/>
    </g>
   </g>
  </g>
 </g>
 <defs>
  <clipPath id="pe205061a47">
   <rect x="51.005" y="26.16" width="249.9475" height="183.88"/>
  </clipPath>
  <clipPath id="pf8f857131e">
   <rect x="315.2525" y="26.16" width="249.9475" height="183.88"/>
  </clipPath>
 </defs>
</svg>
