<?xml version="1.0" encoding="utf-8" standalone="no"?>
<!DOCTYPE svg PUBLIC "-//W3C//DTD SVG 1.1//EN"
  "http://www.w3.org/Graphics/SVG/1.1/DTD/svg11.dtd">
<svg xmlns:xlink="http://www.w3.org/1999/xlink" width="576pt" height="252pt" viewBox="0 0 576 252" xmlns="http://www.w3.org/2000/svg" version="1.1">
 <metadata>
  <rdf:RDF xmlns:dc="http://purl.org/dc/elements/1.1/" xmlns:cc="http://creativecommons.org/ns#" xmlns:rdf="http://www.w3.org/1999/02/22-rdf-syntax-ns#">
   <cc:Work>
    <dc:type rdf:resource="http://purl.org/dc/dcmitype/StillImage"/>
    <dc:date>2026-01-30T14:15:08.959046</dc:date>
    <dc:format>image/svg+xml</dc:format>
    <dc:creator>
     <cc:Agent>
      <dc:title>Matplotlib v3.10.8, https://matplotlib.org/</dc:title>
     </cc:Agent>
    </dc:creator>
   </cc:Work>
  </rdf:RDF>
 </metadata>
 <defs>
  <style type="text/css">*{stroke-linejoin: round; stroke-linecap: butt}</style>
 </defs>
 <g id="figure_1">
  <g id="patch_1">
   <path d="M 0 252 
L 576 252 
L 576 0 
L 0 0 
z
" style="fill: #ffffff"/>
  </g>
  <g id="axes_1">
   <g id="patch_2">
    <path d="M 47.81 184.84 
L 299.355 184.84 
L 299.355 26.16 
L 47.81 26.16 
z
" style="fill: #ffffff"/>
   </g>
   <g id="matplotlib.axis_1">
    <g id="xtick_1">
     <g id="line2d_1">
      <path d="M 59.243864 184.84 
L 59.243864 26.16 
" clip-path="url(#p056147249f)" style="fill: none; stroke: #b0b0b0; stroke-width: 0.8; stroke-linecap: square"/>
     </g>
     <g id="line2d_2">
      <defs>
       <path id="m3b060684ad" d="M 0 0 
L 0 3.5 
" style="stroke: #000000; stroke-width: 0.8"/>
      </defs>
      <g>
       <use xlink:href="#m3b060684ad" x="59.243864" y="184.84" style="stroke: #000000; stroke-width: 0.8"/>
      </g>
     </g>
     <g id="text_1">
      <!-- 1 -->
      <g transform="translate(56.062614 199.438437) scale(0.1 -0.1)">
       <defs>
        <path id="DejaVuSans-31" d="M 794 531 
L 1825 531 
L 1825 4091 
L 703 3866 
L 703 4441 
L 1819 4666 
L 2450 4666 
L 2450 531 
L 3481 531 
L 3481 0 
L 794 0 
L 794 531 
z
" transform="scale(0.015625)"/>
       </defs>
       <use xlink:href="#DejaVuSans-31"/>
      </g>
     </g>
    </g>
    <g id="xtick_2">
     <g id="line2d_3">
      <path d="M 104.979318 184.84 
L 104.979318 26.16 
" clip-path="url(#p056147249f)" style="fill: none; stroke: #b0b0b0; stroke-width: 0.8; stroke-linecap: square"/>
     </g>
     <g id="line2d_4">
      <g>
       <use xlink:href="#m3b060684ad" x="104.979318" y="184.84" style="stroke: #000000; stroke-width: 0.8"/>
      </g>
     </g>
     <g id="text_2">
      <!-- 2 -->
      <g transform="translate(101.798068 199.438437) scale(0.1 -0.1)">
       <defs>
        <path id="DejaVuSans-32" d="M 1228 531 
L 3431 531 
L 3431 0 
L 469 0 
L 469 531 
Q 828 903 1448 1529 
Q 2069 2156 2228 2338 
Q 2531 2678 2651 2914 
Q 2772 3150 2772 3378 
Q 2772 3750 2511 3984 
Q 2250 4219 1831 4219 
Q 1534 4219 1204 4116 
Q 875 4013 500 3803 
L 500 4441 
Q 881 4594 1212 4672 
Q 1544 4750 1819 4750 
Q 2544 4750 2975 4387 
Q 3406 4025 3406 3419 
Q 3406 3131 3298 2873 
Q 3191 2616 2906 2266 
Q 2828 2175 2409 1742 
Q 1991 1309 1228 531 
z
" transform="scale(0.015625)"/>
       </defs>
       <use xlink:href="#DejaVuSans-32"/>
      </g>
     </g>
    </g>
    <g id="xtick_3">
     <g id="line2d_5">
      <path d="M 150.714773 184.84 
L 150.714773 26.16 
" clip-path="url(#p056147249f)" style="fill: none; stroke: #b0b0b0; stroke-width: 0.8; stroke-linecap: square"/>
     </g>
     <g id="line2d_6">
      <g>
       <use xlink:href="#m3b060684ad" x="150.714773" y="184.84" style="stroke: #000000; stroke-width: 0.8"/>
      </g>
     </g>
     <g id="text_3">
      <!-- 4 -->
      <g transform="translate(147.533523 199.438437) scale(0.1 -0.1)">
       <defs>
        <path id="DejaVuSans-34" d="M 2419 4116 
L 825 1625 
L 2419 1625 
L 2419 4116 
z
M 2253 4666 
L 3047 4666 
L 3047 1625 
L 3713 1625 
L 3713 1100 
L 3047 1100 
L 3047 0 
L 2419 0 
L 2419 1100 
L 313 1100 
L 313 1709 
L 2253 4666 
z
" transform="scale(0.015625)"/>
       </defs>
       <use xlink:href="#DejaVuSans-34"/>
      </g>
     </g>
    </g>
    <g id="xtick_4">
     <g id="line2d_7">
      <path d="M 196.450227 184.84 
L 196.450227 26.16 
" clip-path="url(#p056147249f)" style="fill: none; stroke: #b0b0b0; stroke-width: 0.8; stroke-linecap: square"/>
     </g>
     <g id="line2d_8">
      <g>
       <use xlink:href="#m3b060684ad" x="196.450227" y="184.84" style="stroke: #000000; stroke-width: 0.8"/>
      </g>
     </g>
     <g id="text_4">
      <!-- 8 -->
      <g transform="translate(193.268977 199.438437) scale(0.1 -0.1)">
       <defs>
        <path id="DejaVuSans-38" d="M 2034 2216 
Q 1584 2216 1326 1975 
Q 1069 1734 1069 1313 
Q 1069 891 1326 650 
Q 1584 409 2034 409 
Q 2484 409 2743 651 
Q 3003 894 3003 1313 
Q 3003 1734 2745 1975 
Q 2488 2216 2034 2216 
z
M 1403 2484 
Q 997 2584 770 2862 
Q 544 3141 544 3541 
Q 544 4100 942 4425 
Q 1341 4750 2034 4750 
Q 2731 4750 3128 4425 
Q 3525 4100 3525 3541 
Q 3525 3141 3298 2862 
Q 3072 2584 2669 2484 
Q 3125 2378 3379 2068 
Q 3634 1759 3634 1313 
Q 3634 634 3220 271 
Q 2806 -91 2034 -91 
Q 1263 -91 848 271 
Q 434 634 434 1313 
Q 434 1759 690 2068 
Q 947 2378 1403 2484 
z
M 1172 3481 
Q 1172 3119 1398 2916 
Q 1625 2713 2034 2713 
Q 2441 2713 2670 2916 
Q 2900 3119 2900 3481 
Q 2900 3844 2670 4047 
Q 2441 4250 2034 4250 
Q 1625 4250 1398 4047 
Q 1172 3844 1172 3481 
z
" transform="scale(0.015625)"/>
       </defs>
       <use xlink:href="#DejaVuSans-38"/>
      </g>
     </g>
    </g>
    <g id="xtick_5">
     <g id="line2d_9">
      <path d="M 242.185682 184.84 
L 242.185682 26.16 
" clip-path="url(#p056147249f)" style="fill: none; stroke: #b0b0b0; stroke-width: 0.8; stroke-linecap: square"/>
     </g>
     <g id="line2d_10">
      <g>
       <use xlink:href="#m3b060684ad" x="242.185682" y="184.84" style="stroke: #000000; stroke-width: 0.8"/>
      </g>
     </g>
     <g id="text_5">
      <!-- 16 -->
      <g transform="translate(235.823182 199.438437) scale(0.1 -0.1)">
       <defs>
        <path id="DejaVuSans-36" d="M 2113 2584 
Q 1688 2584 1439 2293 
Q 1191 2003 1191 1497 
Q 1191 994 1439 701 
Q 1688 409 2113 409 
Q 2538 409 2786 701 
Q 3034 994 3034 1497 
Q 3034 2003 2786 2293 
Q 2538 2584 2113 2584 
z
M 3366 4563 
L 3366 3988 
Q 3128 4100 2886 4159 
Q 2644 4219 2406 4219 
Q 1781 4219 1451 3797 
Q 1122 3375 1075 2522 
Q 1259 2794 1537 2939 
Q 1816 3084 2150 3084 
Q 2853 3084 3261 2657 
Q 3669 2231 3669 1497 
Q 3669 778 3244 343 
Q 2819 -91 2113 -91 
Q 1303 -91 875 529 
Q 447 1150 447 2328 
Q 447 3434 972 4092 
Q 1497 4750 2381 4750 
Q 2619 4750 2861 4703 
Q 3103 4656 3366 4563 
z
" transform="scale(0.015625)"/>
       </defs>
       <use xlink:href="#DejaVuSans-31"/>
       <use xlink:href="#DejaVuSans-36" transform="translate(63.623047 0)"/>
      </g>
     </g>
    </g>
    <g id="xtick_6">
     <g id="line2d_11">
      <path d="M 287.921136 184.84 
L 287.921136 26.16 
" clip-path="url(#p056147249f)" style="fill: none; stroke: #b0b0b0; stroke-width: 0.8; stroke-linecap: square"/>
     </g>
     <g id="line2d_12">
      <g>
       <use xlink:href="#m3b060684ad" x="287.921136" y="184.84" style="stroke: #000000; stroke-width: 0.8"/>
      </g>
     </g>
     <g id="text_6">
      <!-- 32 -->
      <g transform="translate(281.558636 199.438437) scale(0.1 -0.1)">
       <defs>
        <path id="DejaVuSans-33" d="M 2597 2516 
Q 3050 2419 3304 2112 
Q 3559 1806 3559 1356 
Q 3559 666 3084 287 
Q 2609 -91 1734 -91 
Q 1441 -91 1130 -33 
Q 819 25 488 141 
L 488 750 
Q 750 597 1062 519 
Q 1375 441 1716 441 
Q 2309 441 2620 675 
Q 2931 909 2931 1356 
Q 2931 1769 2642 2001 
Q 2353 2234 1838 2234 
L 1294 2234 
L 1294 2753 
L 1863 2753 
Q 2328 2753 2575 2939 
Q 2822 3125 2822 3475 
Q 2822 3834 2567 4026 
Q 2313 4219 1838 4219 
Q 1578 4219 1281 4162 
Q 984 4106 628 3988 
L 628 4550 
Q 988 4650 1302 4700 
Q 1616 4750 1894 4750 
Q 2613 4750 3031 4423 
Q 3450 4097 3450 3541 
Q 3450 3153 3228 2886 
Q 3006 2619 2597 2516 
z
" transform="scale(0.015625)"/>
       </defs>
       <use xlink:href="#DejaVuSans-33"/>
       <use xlink:href="#DejaVuSans-32" transform="translate(63.623047 0)"/>
      </g>
     </g>
    </g>
    <g id="text_7">
     <!-- Threads -->
     <g transform="translate(153.497344 213.116562) scale(0.1 -0.1)">
      <defs>
       <path id="DejaVuSans-54" d="M -19 4666 
L 3928 4666 
L 3928 4134 
L 2272 4134 
L 2272 0 
L 1638 0 
L 1638 4134 
L -19 4134 
L -19 4666 
z
" transform="scale(0.015625)"/>
       <path id="DejaVuSans-68" d="M 3513 2113 
L 3513 0 
L 2938 0 
L 2938 2094 
Q 2938 2591 2744 2837 
Q 2550 3084 2163 3084 
Q 1697 3084 1428 2787 
Q 1159 2491 1159 1978 
L 1159 0 
L 581 0 
L 581 4863 
L 1159 4863 
L 1159 2956 
Q 1366 3272 1645 3428 
Q 1925 3584 2291 3584 
Q 2894 3584 3203 3211 
Q 3513 2838 3513 2113 
z
" transform="scale(0.015625)"/>
       <path id="DejaVuSans-72" d="M 2631 2963 
Q 2534 3019 2420 3045 
Q 2306 3072 2169 3072 
Q 1681 3072 1420 2755 
Q 1159 2438 1159 1844 
L 1159 0 
L 581 0 
L 581 3500 
L 1159 3500 
L 1159 2956 
Q 1341 3275 1631 3429 
Q 1922 3584 2338 3584 
Q 2397 3584 2469 3576 
Q 2541 3569 2628 3553 
L 2631 2963 
z
" transform="scale(0.015625)"/>
       <path id="DejaVuSans-65" d="M 3597 1894 
L 3597 1613 
L 953 1613 
Q 991 1019 1311 708 
Q 1631 397 2203 397 
Q 2534 397 2845 478 
Q 3156 559 3463 722 
L 3463 178 
Q 3153 47 2828 -22 
Q 2503 -91 2169 -91 
Q 1331 -91 842 396 
Q 353 884 353 1716 
Q 353 2575 817 3079 
Q 1281 3584 2069 3584 
Q 2775 3584 3186 3129 
Q 3597 2675 3597 1894 
z
M 3022 2063 
Q 3016 2534 2758 2815 
Q 2500 3097 2075 3097 
Q 1594 3097 1305 2825 
Q 1016 2553 972 2059 
L 3022 2063 
z
" transform="scale(0.015625)"/>
       <path id="DejaVuSans-61" d="M 2194 1759 
Q 1497 1759 1228 1600 
Q 959 1441 959 1056 
Q 959 750 1161 570 
Q 1363 391 1709 391 
Q 2188 391 2477 730 
Q 2766 1069 2766 1631 
L 2766 1759 
L 2194 1759 
z
M 3341 1997 
L 3341 0 
L 2766 0 
L 2766 531 
Q 2569 213 2275 61 
Q 1981 -91 1556 -91 
Q 1019 -91 701 211 
Q 384 513 384 1019 
Q 384 1609 779 1909 
Q 1175 2209 1959 2209 
L 2766 2209 
L 2766 2266 
Q 2766 2663 2505 2880 
Q 2244 3097 1772 3097 
Q 1472 3097 1187 3025 
Q 903 2953 641 2809 
L 641 3341 
Q 956 3463 1253 3523 
Q 1550 3584 1831 3584 
Q 2591 3584 2966 3190 
Q 3341 2797 3341 1997 
z
" transform="scale(0.015625)"/>
       <path id="DejaVuSans-64" d="M 2906 2969 
L 2906 4863 
L 3481 4863 
L 3481 0 
L 2906 0 
L 2906 525 
Q 2725 213 2448 61 
Q 2172 -91 1784 -91 
Q 1150 -91 751 415 
Q 353 922 353 1747 
Q 353 2572 751 3078 
Q 1150 3584 1784 3584 
Q 2172 3584 2448 3432 
Q 2725 3281 2906 2969 
z
M 947 1747 
Q 947 1113 1208 752 
Q 1469 391 1925 391 
Q 2381 391 2643 752 
Q 2906 1113 2906 1747 
Q 2906 2381 2643 2742 
Q 2381 3103 1925 3103 
Q 1469 3103 1208 2742 
Q 947 2381 947 1747 
z
" transform="scale(0.015625)"/>
       <path id="DejaVuSans-73" d="M 2834 3397 
L 2834 2853 
Q 2591 2978 2328 3040 
Q 2066 3103 1784 3103 
Q 1356 3103 1142 2972 
Q 928 2841 928 2578 
Q 928 2378 1081 2264 
Q 1234 2150 1697 2047 
L 1894 2003 
Q 2506 1872 2764 1633 
Q 3022 1394 3022 966 
Q 3022 478 2636 193 
Q 2250 -91 1575 -91 
Q 1294 -91 989 -36 
Q 684 19 347 128 
L 347 722 
Q 666 556 975 473 
Q 1284 391 1588 391 
Q 1994 391 2212 530 
Q 2431 669 2431 922 
Q 2431 1156 2273 1281 
Q 2116 1406 1581 1522 
L 1381 1569 
Q 847 1681 609 1914 
Q 372 2147 372 2553 
Q 372 3047 722 3315 
Q 1072 3584 1716 3584 
Q 2034 3584 2315 3537 
Q 2597 3491 2834 3397 
z
" transform="scale(0.015625)"/>
      </defs>
      <use xlink:href="#DejaVuSans-54"/>
      <use xlink:href="#DejaVuSans-68" transform="translate(61.083984 0)"/>
      <use xlink:href="#DejaVuSans-72" transform="translate(124.462891 0)"/>
      <use xlink:href="#DejaVuSans-65" transform="translate(163.326172 0)"/>
      <use xlink:href="#DejaVuSans-61" transform="translate(224.849609 0)"/>
      <use xlink:href="#DejaVuSans-64" transform="translate(286.128906 0)"/>
      <use xlink:href="#DejaVuSans-73" transform="translate(349.605469 0)"/>
     </g>
    </g>
   </g>
   <g id="matplotlib.axis_2">
    <g id="ytick_1">
     <g id="line2d_13">
      <path d="M 47.81 156.438975 
L 299.355 156.438975 
" clip-path="url(#p056147249f)" style="fill: none; stroke: #b0b0b0; stroke-width: 0.8; stroke-linecap: square"/>
     </g>
     <g id="line2d_14">
      <defs>
       <path id="m4bb2bd565f" d="M 0 0 
L -3.5 0 
" style="stroke: #000000; stroke-width: 0.8"/>
      </defs>
      <g>
       <use xlink:href="#m4bb2bd565f" x="47.81" y="156.438975" style="stroke: #000000; stroke-width: 0.8"/>
      </g>
     </g>
     <g id="text_8">
      <!-- 0.2 -->
      <g transform="translate(24.906875 160.238194) scale(0.1 -0.1)">
       <defs>
        <path id="DejaVuSans-30" d="M 2034 4250 
Q 1547 4250 1301 3770 
Q 1056 3291 1056 2328 
Q 1056 1369 1301 889 
Q 1547 409 2034 409 
Q 2525 409 2770 889 
Q 3016 1369 3016 2328 
Q 3016 3291 2770 3770 
Q 2525 4250 2034 4250 
z
M 2034 4750 
Q 2819 4750 3233 4129 
Q 3647 3509 3647 2328 
Q 3647 1150 3233 529 
Q 2819 -91 2034 -91 
Q 1250 -91 836 529 
Q 422 1150 422 2328 
Q 422 3509 836 4129 
Q 1250 4750 2034 4750 
z
" transform="scale(0.015625)"/>
        <path id="DejaVuSans-2e" d="M 684 794 
L 1344 794 
L 1344 0 
L 684 0 
L 684 794 
z
" transform="scale(0.015625)"/>
       </defs>
       <use xlink:href="#DejaVuSans-30"/>
       <use xlink:href="#DejaVuSans-2e" transform="translate(63.623047 0)"/>
       <use xlink:href="#DejaVuSans-32" transform="translate(95.410156 0)"/>
      </g>
     </g>
    </g>
    <g id="ytick_2">
     <g id="line2d_15">
      <path d="M 47.81 125.672413 
L 299.355 125.672413 
" clip-path="url(#p056147249f)" style="fill: none; stroke: #b0b0b0; stroke-width: 0.8; stroke-linecap: square"/>
     </g>
     <g id="line2d_16">
      <g>
       <use xlink:href="#m4bb2bd565f" x="47.81" y="125.672413" style="stroke: #000000; stroke-width: 0.8"/>
      </g>
     </g>
     <g id="text_9">
      <!-- 0.4 -->
      <g transform="translate(24.906875 129.471632) scale(0.1 -0.1)">
       <use xlink:href="#DejaVuSans-30"/>
       <use xlink:href="#DejaVuSans-2e" transform="translate(63.623047 0)"/>
       <use xlink:href="#DejaVuSans-34" transform="translate(95.410156 0)"/>
      </g>
     </g>
    </g>
    <g id="ytick_3">
     <g id="line2d_17">
      <path d="M 47.81 94.905851 
L 299.355 94.905851 
" clip-path="url(#p056147249f)" style="fill: none; stroke: #b0b0b0; stroke-width: 0.8; stroke-linecap: square"/>
     </g>
     <g id="line2d_18">
      <g>
       <use xlink:href="#m4bb2bd565f" x="47.81" y="94.905851" style="stroke: #000000; stroke-width: 0.8"/>
      </g>
     </g>
     <g id="text_10">
      <!-- 0.6 -->
      <g transform="translate(24.906875 98.70507) scale(0.1 -0.1)">
       <use xlink:href="#DejaVuSans-30"/>
       <use xlink:href="#DejaVuSans-2e" transform="translate(63.623047 0)"/>
       <use xlink:href="#DejaVuSans-36" transform="translate(95.410156 0)"/>
      </g>
     </g>
    </g>
    <g id="ytick_4">
     <g id="line2d_19">
      <path d="M 47.81 64.139289 
L 299.355 64.139289 
" clip-path="url(#p056147249f)" style="fill: none; stroke: #b0b0b0; stroke-width: 0.8; stroke-linecap: square"/>
     </g>
     <g id="line2d_20">
      <g>
       <use xlink:href="#m4bb2bd565f" x="47.81" y="64.139289" style="stroke: #000000; stroke-width: 0.8"/>
      </g>
     </g>
     <g id="text_11">
      <!-- 0.8 -->
      <g transform="translate(24.906875 67.938508) scale(0.1 -0.1)">
       <use xlink:href="#DejaVuSans-30"/>
       <use xlink:href="#DejaVuSans-2e" transform="translate(63.623047 0)"/>
       <use xlink:href="#DejaVuSans-38" transform="translate(95.410156 0)"/>
      </g>
     </g>
    </g>
    <g id="ytick_5">
     <g id="line2d_21">
      <path d="M 47.81 33.372727 
L 299.355 33.372727 
" clip-path="url(#p056147249f)" style="fill: none; stroke: #b0b0b0; stroke-width: 0.8; stroke-linecap: square"/>
     </g>
     <g id="line2d_22">
      <g>
       <use xlink:href="#m4bb2bd565f" x="47.81" y="33.372727" style="stroke: #000000; stroke-width: 0.8"/>
      </g>
     </g>
     <g id="text_12">
      <!-- 1.0 -->
      <g transform="translate(24.906875 37.171946) scale(0.1 -0.1)">
       <use xlink:href="#DejaVuSans-31"/>
       <use xlink:href="#DejaVuSans-2e" transform="translate(63.623047 0)"/>
       <use xlink:href="#DejaVuSans-30" transform="translate(95.410156 0)"/>
      </g>
     </g>
    </g>
    <g id="text_13">
     <!-- Efficiency -->
     <g transform="translate(18.827188 129.660937) rotate(-90) scale(0.1 -0.1)">
      <defs>
       <path id="DejaVuSans-45" d="M 628 4666 
L 3578 4666 
L 3578 4134 
L 1259 4134 
L 1259 2753 
L 3481 2753 
L 3481 2222 
L 1259 2222 
L 1259 531 
L 3634 531 
L 3634 0 
L 628 0 
L 628 4666 
z
" transform="scale(0.015625)"/>
       <path id="DejaVuSans-66" d="M 2375 4863 
L 2375 4384 
L 1825 4384 
Q 1516 4384 1395 4259 
Q 1275 4134 1275 3809 
L 1275 3500 
L 2222 3500 
L 2222 3053 
L 1275 3053 
L 1275 0 
L 697 0 
L 697 3053 
L 147 3053 
L 147 3500 
L 697 3500 
L 697 3744 
Q 697 4328 969 4595 
Q 1241 4863 1831 4863 
L 2375 4863 
z
" transform="scale(0.015625)"/>
       <path id="DejaVuSans-69" d="M 603 3500 
L 1178 3500 
L 1178 0 
L 603 0 
L 603 3500 
z
M 603 4863 
L 1178 4863 
L 1178 4134 
L 603 4134 
L 603 4863 
z
" transform="scale(0.015625)"/>
       <path id="DejaVuSans-63" d="M 3122 3366 
L 3122 2828 
Q 2878 2963 2633 3030 
Q 2388 3097 2138 3097 
Q 1578 3097 1268 2742 
Q 959 2388 959 1747 
Q 959 1106 1268 751 
Q 1578 397 2138 397 
Q 2388 397 2633 464 
Q 2878 531 3122 666 
L 3122 134 
Q 2881 22 2623 -34 
Q 2366 -91 2075 -91 
Q 1284 -91 818 406 
Q 353 903 353 1747 
Q 353 2603 823 3093 
Q 1294 3584 2113 3584 
Q 2378 3584 2631 3529 
Q 2884 3475 3122 3366 
z
" transform="scale(0.015625)"/>
       <path id="DejaVuSans-6e" d="M 3513 2113 
L 3513 0 
L 2938 0 
L 2938 2094 
Q 2938 2591 2744 2837 
Q 2550 3084 2163 3084 
Q 1697 3084 1428 2787 
Q 1159 2491 1159 1978 
L 1159 0 
L 581 0 
L 581 3500 
L 1159 3500 
L 1159 2956 
Q 1366 3272 1645 3428 
Q 1925 3584 2291 3584 
Q 2894 3584 3203 3211 
Q 3513 2838 3513 2113 
z
" transform="scale(0.015625)"/>
       <path id="DejaVuSans-79" d="M 2059 -325 
Q 1816 -950 1584 -1140 
Q 1353 -1331 966 -1331 
L 506 -1331 
L 506 -850 
L 844 -850 
Q 1081 -850 1212 -737 
Q 1344 -625 1503 -206 
L 1606 56 
L 191 3500 
L 800 3500 
L 1894 763 
L 2988 3500 
L 3597 3500 
L 2059 -325 
z
" transform="scale(0.015625)"/>
      </defs>
      <use xlink:href="#DejaVuSans-45"/>
      <use xlink:href="#DejaVuSans-66" transform="translate(63.183594 0)"/>
      <use xlink:href="#DejaVuSans-66" transform="translate(98.388672 0)"/>
      <use xlink:href="#DejaVuSans-69" transform="translate(133.59375 0)"/>
      <use xlink:href="#DejaVuSans-63" transform="translate(161.376953 0)"/>
      <use xlink:href="#DejaVuSans-69" transform="translate(216.357422 0)"/>
      <use xlink:href="#DejaVuSans-65" transform="translate(244.140625 0)"/>
      <use xlink:href="#DejaVuSans-6e" transform="translate(305.664062 0)"/>
      <use xlink:href="#DejaVuSans-63" transform="translate(369.042969 0)"/>
      <use xlink:href="#DejaVuSans-79" transform="translate(424.023438 0)"/>
     </g>
    </g>
   </g>
   <g id="line2d_23">
    <path d="M 59.243864 33.372727 
L 104.979318 42.942663 
L 150.714773 59.24493 
L 196.450227 79.961987 
L 242.185682 75.00317 
L 287.921136 122.954081 
" clip-path="url(#p056147249f)" style="fill: none; stroke: #94c4df; stroke-width: 1.5; stroke-linecap: square"/>
    <defs>
     <path id="m5a953dc1ca" d="M 0 1.5 
C 0.397805 1.5 0.77937 1.341951 1.06066 1.06066 
C 1.341951 0.77937 1.5 0.397805 1.5 0 
C 1.5 -0.397805 1.341951 -0.77937 1.06066 -1.06066 
C 0.77937 -1.341951 0.397805 -1.5 0 -1.5 
C -0.397805 -1.5 -0.77937 -1.341951 -1.06066 -1.06066 
C -1.341951 -0.77937 -1.5 -0.397805 -1.5 0 
C -1.5 0.397805 -1.341951 0.77937 -1.06066 1.06066 
C -0.77937 1.341951 -0.397805 1.5 0 1.5 
z
" style="stroke: #94c4df"/>
    </defs>
    <g clip-path="url(#p056147249f)">
     <use xlink:href="#m5a953dc1ca" x="59.243864" y="33.372727" style="fill: #94c4df; stroke: #94c4df"/>
     <use xlink:href="#m5a953dc1ca" x="104.979318" y="42.942663" style="fill: #94c4df; stroke: #94c4df"/>
     <use xlink:href="#m5a953dc1ca" x="150.714773" y="59.24493" style="fill: #94c4df; stroke: #94c4df"/>
     <use xlink:href="#m5a953dc1ca" x="196.450227" y="79.961987" style="fill: #94c4df; stroke: #94c4df"/>
     <use xlink:href="#m5a953dc1ca" x="242.185682" y="75.00317" style="fill: #94c4df; stroke: #94c4df"/>
     <use xlink:href="#m5a953dc1ca" x="287.921136" y="122.954081" style="fill: #94c4df; stroke: #94c4df"/>
    </g>
   </g>
   <g id="line2d_24">
    <path d="M 59.243864 33.372727 
L 104.979318 68.773643 
L 150.714773 87.782075 
L 196.450227 116.007247 
L 242.185682 156.831797 
L 287.921136 177.627273 
" clip-path="url(#p056147249f)" style="fill: none; stroke: #fc8a6a; stroke-width: 1.5; stroke-linecap: square"/>
    <defs>
     <path id="mb9c334b88e" d="M 0 1.5 
C 0.397805 1.5 0.77937 1.341951 1.06066 1.06066 
C 1.341951 0.77937 1.5 0.397805 1.5 0 
C 1.5 -0.397805 1.341951 -0.77937 1.06066 -1.06066 
C 0.77937 -1.341951 0.397805 -1.5 0 -1.5 
C -0.397805 -1.5 -0.77937 -1.341951 -1.06066 -1.06066 
C -1.341951 -0.77937 -1.5 -0.397805 -1.5 0 
C -1.5 0.397805 -1.341951 0.77937 -1.06066 1.06066 
C -0.77937 1.341951 -0.397805 1.5 0 1.5 
z
" style="stroke: #fc8a6a"/>
    </defs>
    <g clip-path="url(#p056147249f)">
     <use xlink:href="#mb9c334b88e" x="59.243864" y="33.372727" style="fill: #fc8a6a; stroke: #fc8a6a"/>
     <use xlink:href="#mb9c334b88e" x="104.979318" y="68.773643" style="fill: #fc8a6a; stroke: #fc8a6a"/>
     <use xlink:href="#mb9c334b88e" x="150.714773" y="87.782075" style="fill: #fc8a6a; stroke: #fc8a6a"/>
     <use xlink:href="#mb9c334b88e" x="196.450227" y="116.007247" style="fill: #fc8a6a; stroke: #fc8a6a"/>
     <use xlink:href="#mb9c334b88e" x="242.185682" y="156.831797" style="fill: #fc8a6a; stroke: #fc8a6a"/>
     <use xlink:href="#mb9c334b88e" x="287.921136" y="177.627273" style="fill: #fc8a6a; stroke: #fc8a6a"/>
    </g>
   </g>
   <g id="line2d_25">
    <path d="M 59.243864 33.372727 
L 104.979318 45.543791 
L 150.714773 51.30621 
L 196.450227 64.523183 
L 242.185682 80.269818 
L 287.921136 122.094944 
" clip-path="url(#p056147249f)" style="fill: none; stroke: #4a98c9; stroke-width: 1.5; stroke-linecap: square"/>
    <defs>
     <path id="m432c33378e" d="M 0 1.5 
C 0.397805 1.5 0.77937 1.341951 1.06066 1.06066 
C 1.341951 0.77937 1.5 0.397805 1.5 0 
C 1.5 -0.397805 1.341951 -0.77937 1.06066 -1.06066 
C 0.77937 -1.341951 0.397805 -1.5 0 -1.5 
C -0.397805 -1.5 -0.77937 -1.341951 -1.06066 -1.06066 
C -1.341951 -0.77937 -1.5 -0.397805 -1.5 0 
C -1.5 0.397805 -1.341951 0.77937 -1.06066 1.06066 
C -0.77937 1.341951 -0.397805 1.5 0 1.5 
z
" style="stroke: #4a98c9"/>
    </defs>
    <g clip-path="url(#p056147249f)">
     <use xlink:href="#m432c33378e" x="59.243864" y="33.372727" style="fill: #4a98c9; stroke: #4a98c9"/>
     <use xlink:href="#m432c33378e" x="104.979318" y="45.543791" style="fill: #4a98c9; stroke: #4a98c9"/>
     <use xlink:href="#m432c33378e" x="150.714773" y="51.30621" style="fill: #4a98c9; stroke: #4a98c9"/>
     <use xlink:href="#m432c33378e" x="196.450227" y="64.523183" style="fill: #4a98c9; stroke: #4a98c9"/>
     <use xlink:href="#m432c33378e" x="242.185682" y="80.269818" style="fill: #4a98c9; stroke: #4a98c9"/>
     <use xlink:href="#m432c33378e" x="287.921136" y="122.094944" style="fill: #4a98c9; stroke: #4a98c9"/>
    </g>
   </g>
   <g id="line2d_26">
    <path d="M 59.243864 33.372727 
L 104.979318 57.82218 
L 150.714773 73.393518 
L 196.450227 98.777621 
L 242.185682 137.341117 
L 287.921136 169.92607 
" clip-path="url(#p056147249f)" style="fill: none; stroke: #f14432; stroke-width: 1.5; stroke-linecap: square"/>
    <defs>
     <path id="mcaaddca398" d="M 0 1.5 
C 0.397805 1.5 0.77937 1.341951 1.06066 1.06066 
C 1.341951 0.77937 1.5 0.397805 1.5 0 
C 1.5 -0.397805 1.341951 -0.77937 1.06066 -1.06066 
C 0.77937 -1.341951 0.397805 -1.5 0 -1.5 
C -0.397805 -1.5 -0.77937 -1.341951 -1.06066 -1.06066 
C -1.341951 -0.77937 -1.5 -0.397805 -1.5 0 
C -1.5 0.397805 -1.341951 0.77937 -1.06066 1.06066 
C -0.77937 1.341951 -0.397805 1.5 0 1.5 
z
" style="stroke: #f14432"/>
    </defs>
    <g clip-path="url(#p056147249f)">
     <use xlink:href="#mcaaddca398" x="59.243864" y="33.372727" style="fill: #f14432; stroke: #f14432"/>
     <use xlink:href="#mcaaddca398" x="104.979318" y="57.82218" style="fill: #f14432; stroke: #f14432"/>
     <use xlink:href="#mcaaddca398" x="150.714773" y="73.393518" style="fill: #f14432; stroke: #f14432"/>
     <use xlink:href="#mcaaddca398" x="196.450227" y="98.777621" style="fill: #f14432; stroke: #f14432"/>
     <use xlink:href="#mcaaddca398" x="242.185682" y="137.341117" style="fill: #f14432; stroke: #f14432"/>
     <use xlink:href="#mcaaddca398" x="287.921136" y="169.92607" style="fill: #f14432; stroke: #f14432"/>
    </g>
   </g>
   <g id="line2d_27">
    <path d="M 59.243864 33.372727 
L 104.979318 44.723981 
L 150.714773 50.032466 
L 196.450227 59.042486 
L 242.185682 66.649397 
L 287.921136 110.558173 
" clip-path="url(#p056147249f)" style="fill: none; stroke: #1764ab; stroke-width: 1.5; stroke-linecap: square"/>
    <defs>
     <path id="mf500e13a20" d="M 0 1.5 
C 0.397805 1.5 0.77937 1.341951 1.06066 1.06066 
C 1.341951 0.77937 1.5 0.397805 1.5 0 
C 1.5 -0.397805 1.341951 -0.77937 1.06066 -1.06066 
C 0.77937 -1.341951 0.397805 -1.5 0 -1.5 
C -0.397805 -1.5 -0.77937 -1.341951 -1.06066 -1.06066 
C -1.341951 -0.77937 -1.5 -0.397805 -1.5 0 
C -1.5 0.397805 -1.341951 0.77937 -1.06066 1.06066 
C -0.77937 1.341951 -0.397805 1.5 0 1.5 
z
" style="stroke: #1764ab"/>
    </defs>
    <g clip-path="url(#p056147249f)">
     <use xlink:href="#mf500e13a20" x="59.243864" y="33.372727" style="fill: #1764ab; stroke: #1764ab"/>
     <use xlink:href="#mf500e13a20" x="104.979318" y="44.723981" style="fill: #1764ab; stroke: #1764ab"/>
     <use xlink:href="#mf500e13a20" x="150.714773" y="50.032466" style="fill: #1764ab; stroke: #1764ab"/>
     <use xlink:href="#mf500e13a20" x="196.450227" y="59.042486" style="fill: #1764ab; stroke: #1764ab"/>
     <use xlink:href="#mf500e13a20" x="242.185682" y="66.649397" style="fill: #1764ab; stroke: #1764ab"/>
     <use xlink:href="#mf500e13a20" x="287.921136" y="110.558173" style="fill: #1764ab; stroke: #1764ab"/>
    </g>
   </g>
   <g id="line2d_28">
    <path d="M 59.243864 33.372727 
L 104.979318 50.97823 
L 150.714773 61.609531 
L 196.450227 83.605853 
L 242.185682 117.809319 
L 287.921136 159.366126 
" clip-path="url(#p056147249f)" style="fill: none; stroke: #bc141a; stroke-width: 1.5; stroke-linecap: square"/>
    <defs>
     <path id="m3eb4da856a" d="M 0 1.5 
C 0.397805 1.5 0.77937 1.341951 1.06066 1.06066 
C 1.341951 0.77937 1.5 0.397805 1.5 0 
C 1.5 -0.397805 1.341951 -0.77937 1.06066 -1.06066 
C 0.77937 -1.341951 0.397805 -1.5 0 -1.5 
C -0.397805 -1.5 -0.77937 -1.341951 -1.06066 -1.06066 
C -1.341951 -0.77937 -1.5 -0.397805 -1.5 0 
C -1.5 0.397805 -1.341951 0.77937 -1.06066 1.06066 
C -0.77937 1.341951 -0.397805 1.5 0 1.5 
z
" style="stroke: #bc141a"/>
    </defs>
    <g clip-path="url(#p056147249f)">
     <use xlink:href="#m3eb4da856a" x="59.243864" y="33.372727" style="fill: #bc141a; stroke: #bc141a"/>
     <use xlink:href="#m3eb4da856a" x="104.979318" y="50.97823" style="fill: #bc141a; stroke: #bc141a"/>
     <use xlink:href="#m3eb4da856a" x="150.714773" y="61.609531" style="fill: #bc141a; stroke: #bc141a"/>
     <use xlink:href="#m3eb4da856a" x="196.450227" y="83.605853" style="fill: #bc141a; stroke: #bc141a"/>
     <use xlink:href="#m3eb4da856a" x="242.185682" y="117.809319" style="fill: #bc141a; stroke: #bc141a"/>
     <use xlink:href="#m3eb4da856a" x="287.921136" y="159.366126" style="fill: #bc141a; stroke: #bc141a"/>
    </g>
   </g>
   <g id="patch_3">
    <path d="M 47.81 184.84 
L 47.81 26.16 
" style="fill: none; stroke: #000000; stroke-width: 0.8; stroke-linejoin: miter; stroke-linecap: square"/>
   </g>
   <g id="patch_4">
    <path d="M 299.355 184.84 
L 299.355 26.16 
" style="fill: none; stroke: #000000; stroke-width: 0.8; stroke-linejoin: miter; stroke-linecap: square"/>
   </g>
   <g id="patch_5">
    <path d="M 47.81 184.84 
L 299.355 184.84 
" style="fill: none; stroke: #000000; stroke-width: 0.8; stroke-linejoin: miter; stroke-linecap: square"/>
   </g>
   <g id="patch_6">
    <path d="M 47.81 26.16 
L 299.355 26.16 
" style="fill: none; stroke: #000000; stroke-width: 0.8; stroke-linejoin: miter; stroke-linecap: square"/>
   </g>
   <g id="text_14">
    <!-- Magic Prediction Efficiency -->
    <g transform="translate(93.342813 20.16) scale(0.12 -0.12)">
     <defs>
      <path id="DejaVuSans-4d" d="M 628 4666 
L 1569 4666 
L 2759 1491 
L 3956 4666 
L 4897 4666 
L 4897 0 
L 4281 0 
L 4281 4097 
L 3078 897 
L 2444 897 
L 1241 4097 
L 1241 0 
L 628 0 
L 628 4666 
z
" transform="scale(0.015625)"/>
      <path id="DejaVuSans-67" d="M 2906 1791 
Q 2906 2416 2648 2759 
Q 2391 3103 1925 3103 
Q 1463 3103 1205 2759 
Q 947 2416 947 1791 
Q 947 1169 1205 825 
Q 1463 481 1925 481 
Q 2391 481 2648 825 
Q 2906 1169 2906 1791 
z
M 3481 434 
Q 3481 -459 3084 -895 
Q 2688 -1331 1869 -1331 
Q 1566 -1331 1297 -1286 
Q 1028 -1241 775 -1147 
L 775 -588 
Q 1028 -725 1275 -790 
Q 1522 -856 1778 -856 
Q 2344 -856 2625 -561 
Q 2906 -266 2906 331 
L 2906 616 
Q 2728 306 2450 153 
Q 2172 0 1784 0 
Q 1141 0 747 490 
Q 353 981 353 1791 
Q 353 2603 747 3093 
Q 1141 3584 1784 3584 
Q 2172 3584 2450 3431 
Q 2728 3278 2906 2969 
L 2906 3500 
L 3481 3500 
L 3481 434 
z
" transform="scale(0.015625)"/>
      <path id="DejaVuSans-20" transform="scale(0.015625)"/>
      <path id="DejaVuSans-50" d="M 1259 4147 
L 1259 2394 
L 2053 2394 
Q 2494 2394 2734 2622 
Q 2975 2850 2975 3272 
Q 2975 3691 2734 3919 
Q 2494 4147 2053 4147 
L 1259 4147 
z
M 628 4666 
L 2053 4666 
Q 2838 4666 3239 4311 
Q 3641 3956 3641 3272 
Q 3641 2581 3239 2228 
Q 2838 1875 2053 1875 
L 1259 1875 
L 1259 0 
L 628 0 
L 628 4666 
z
" transform="scale(0.015625)"/>
      <path id="DejaVuSans-74" d="M 1172 4494 
L 1172 3500 
L 2356 3500 
L 2356 3053 
L 1172 3053 
L 1172 1153 
Q 1172 725 1289 603 
Q 1406 481 1766 481 
L 2356 481 
L 2356 0 
L 1766 0 
Q 1100 0 847 248 
Q 594 497 594 1153 
L 594 3053 
L 172 3053 
L 172 3500 
L 594 3500 
L 594 4494 
L 1172 4494 
z
" transform="scale(0.015625)"/>
      <path id="DejaVuSans-6f" d="M 1959 3097 
Q 1497 3097 1228 2736 
Q 959 2375 959 1747 
Q 959 1119 1226 758 
Q 1494 397 1959 397 
Q 2419 397 2687 759 
Q 2956 1122 2956 1747 
Q 2956 2369 2687 2733 
Q 2419 3097 1959 3097 
z
M 1959 3584 
Q 2709 3584 3137 3096 
Q 3566 2609 3566 1747 
Q 3566 888 3137 398 
Q 2709 -91 1959 -91 
Q 1206 -91 779 398 
Q 353 888 353 1747 
Q 353 2609 779 3096 
Q 1206 3584 1959 3584 
z
" transform="scale(0.015625)"/>
     </defs>
     <use xlink:href="#DejaVuSans-4d"/>
     <use xlink:href="#DejaVuSans-61" transform="translate(86.279297 0)"/>
     <use xlink:href="#DejaVuSans-67" transform="translate(147.558594 0)"/>
     <use xlink:href="#DejaVuSans-69" transform="translate(211.035156 0)"/>
     <use xlink:href="#DejaVuSans-63" transform="translate(238.818359 0)"/>
     <use xlink:href="#DejaVuSans-20" transform="translate(293.798828 0)"/>
     <use xlink:href="#DejaVuSans-50" transform="translate(325.585938 0)"/>
     <use xlink:href="#DejaVuSans-72" transform="translate(384.138672 0)"/>
     <use xlink:href="#DejaVuSans-65" transform="translate(423.001953 0)"/>
     <use xlink:href="#DejaVuSans-64" transform="translate(484.525391 0)"/>
     <use xlink:href="#DejaVuSans-69" transform="translate(548.001953 0)"/>
     <use xlink:href="#DejaVuSans-63" transform="translate(575.785156 0)"/>
     <use xlink:href="#DejaVuSans-74" transform="translate(630.765625 0)"/>
     <use xlink:href="#DejaVuSans-69" transform="translate(669.974609 0)"/>
     <use xlink:href="#DejaVuSans-6f" transform="translate(697.757812 0)"/>
     <use xlink:href="#DejaVuSans-6e" transform="translate(758.939453 0)"/>
     <use xlink:href="#DejaVuSans-20" transform="translate(822.318359 0)"/>
     <use xlink:href="#DejaVuSans-45" transform="translate(854.105469 0)"/>
     <use xlink:href="#DejaVuSans-66" transform="translate(917.289062 0)"/>
     <use xlink:href="#DejaVuSans-66" transform="translate(952.494141 0)"/>
     <use xlink:href="#DejaVuSans-69" transform="translate(987.699219 0)"/>
     <use xlink:href="#DejaVuSans-63" transform="translate(1015.482422 0)"/>
     <use xlink:href="#DejaVuSans-69" transform="translate(1070.462891 0)"/>
     <use xlink:href="#DejaVuSans-65" transform="translate(1098.246094 0)"/>
     <use xlink:href="#DejaVuSans-6e" transform="translate(1159.769531 0)"/>
     <use xlink:href="#DejaVuSans-63" transform="translate(1223.148438 0)"/>
     <use xlink:href="#DejaVuSans-79" transform="translate(1278.128906 0)"/>
    </g>
   </g>
  </g>
  <g id="axes_2">
   <g id="patch_7">
    <path d="M 313.655 184.84 
L 565.2 184.84 
L 565.2 26.16 
L 313.655 26.16 
z
" style="fill: #ffffff"/>
   </g>
   <g id="matplotlib.axis_3">
    <g id="xtick_7">
     <g id="line2d_29">
      <path d="M 325.088864 184.84 
L 325.088864 26.16 
" clip-path="url(#p47dcb04c89)" style="fill: none; stroke: #b0b0b0; stroke-width: 0.8; stroke-linecap: square"/>
     </g>
     <g id="line2d_30">
      <g>
       <use xlink:href="#m3b060684ad" x="325.088864" y="184.84" style="stroke: #000000; stroke-width: 0.8"/>
      </g>
     </g>
     <g id="text_15">
      <!-- 1 -->
      <g transform="translate(321.907614 199.438437) scale(0.1 -0.1)">
       <use xlink:href="#DejaVuSans-31"/>
      </g>
     </g>
    </g>
    <g id="xtick_8">
     <g id="line2d_31">
      <path d="M 370.824318 184.84 
L 370.824318 26.16 
" clip-path="url(#p47dcb04c89)" style="fill: none; stroke: #b0b0b0; stroke-width: 0.8; stroke-linecap: square"/>
     </g>
     <g id="line2d_32">
      <g>
       <use xlink:href="#m3b060684ad" x="370.824318" y="184.84" style="stroke: #000000; stroke-width: 0.8"/>
      </g>
     </g>
     <g id="text_16">
      <!-- 2 -->
      <g transform="translate(367.643068 199.438437) scale(0.1 -0.1)">
       <use xlink:href="#DejaVuSans-32"/>
      </g>
     </g>
    </g>
    <g id="xtick_9">
     <g id="line2d_33">
      <path d="M 416.559773 184.84 
L 416.559773 26.16 
" clip-path="url(#p47dcb04c89)" style="fill: none; stroke: #b0b0b0; stroke-width: 0.8; stroke-linecap: square"/>
     </g>
     <g id="line2d_34">
      <g>
       <use xlink:href="#m3b060684ad" x="416.559773" y="184.84" style="stroke: #000000; stroke-width: 0.8"/>
      </g>
     </g>
     <g id="text_17">
      <!-- 4 -->
      <g transform="translate(413.378523 199.438437) scale(0.1 -0.1)">
       <use xlink:href="#DejaVuSans-34"/>
      </g>
     </g>
    </g>
    <g id="xtick_10">
     <g id="line2d_35">
      <path d="M 462.295227 184.84 
L 462.295227 26.16 
" clip-path="url(#p47dcb04c89)" style="fill: none; stroke: #b0b0b0; stroke-width: 0.8; stroke-linecap: square"/>
     </g>
     <g id="line2d_36">
      <g>
       <use xlink:href="#m3b060684ad" x="462.295227" y="184.84" style="stroke: #000000; stroke-width: 0.8"/>
      </g>
     </g>
     <g id="text_18">
      <!-- 8 -->
      <g transform="translate(459.113977 199.438437) scale(0.1 -0.1)">
       <use xlink:href="#DejaVuSans-38"/>
      </g>
     </g>
    </g>
    <g id="xtick_11">
     <g id="line2d_37">
      <path d="M 508.030682 184.84 
L 508.030682 26.16 
" clip-path="url(#p47dcb04c89)" style="fill: none; stroke: #b0b0b0; stroke-width: 0.8; stroke-linecap: square"/>
     </g>
     <g id="line2d_38">
      <g>
       <use xlink:href="#m3b060684ad" x="508.030682" y="184.84" style="stroke: #000000; stroke-width: 0.8"/>
      </g>
     </g>
     <g id="text_19">
      <!-- 16 -->
      <g transform="translate(501.668182 199.438437) scale(0.1 -0.1)">
       <use xlink:href="#DejaVuSans-31"/>
       <use xlink:href="#DejaVuSans-36" transform="translate(63.623047 0)"/>
      </g>
     </g>
    </g>
    <g id="xtick_12">
     <g id="line2d_39">
      <path d="M 553.766136 184.84 
L 553.766136 26.16 
" clip-path="url(#p47dcb04c89)" style="fill: none; stroke: #b0b0b0; stroke-width: 0.8; stroke-linecap: square"/>
     </g>
     <g id="line2d_40">
      <g>
       <use xlink:href="#m3b060684ad" x="553.766136" y="184.84" style="stroke: #000000; stroke-width: 0.8"/>
      </g>
     </g>
     <g id="text_20">
      <!-- 32 -->
      <g transform="translate(547.403636 199.438437) scale(0.1 -0.1)">
       <use xlink:href="#DejaVuSans-33"/>
       <use xlink:href="#DejaVuSans-32" transform="translate(63.623047 0)"/>
      </g>
     </g>
    </g>
    <g id="text_21">
     <!-- Threads -->
     <g transform="translate(419.342344 213.116562) scale(0.1 -0.1)">
      <use xlink:href="#DejaVuSans-54"/>
      <use xlink:href="#DejaVuSans-68" transform="translate(61.083984 0)"/>
      <use xlink:href="#DejaVuSans-72" transform="translate(124.462891 0)"/>
      <use xlink:href="#DejaVuSans-65" transform="translate(163.326172 0)"/>
      <use xlink:href="#DejaVuSans-61" transform="translate(224.849609 0)"/>
      <use xlink:href="#DejaVuSans-64" transform="translate(286.128906 0)"/>
      <use xlink:href="#DejaVuSans-73" transform="translate(349.605469 0)"/>
     </g>
    </g>
   </g>
   <g id="matplotlib.axis_4">
    <g id="ytick_6">
     <g id="line2d_41">
      <path d="M 313.655 156.438975 
L 565.2 156.438975 
" clip-path="url(#p47dcb04c89)" style="fill: none; stroke: #b0b0b0; stroke-width: 0.8; stroke-linecap: square"/>
     </g>
     <g id="line2d_42">
      <g>
       <use xlink:href="#m4bb2bd565f" x="313.655" y="156.438975" style="stroke: #000000; stroke-width: 0.8"/>
      </g>
     </g>
    </g>
    <g id="ytick_7">
     <g id="line2d_43">
      <path d="M 313.655 125.672413 
L 565.2 125.672413 
" clip-path="url(#p47dcb04c89)" style="fill: none; stroke: #b0b0b0; stroke-width: 0.8; stroke-linecap: square"/>
     </g>
     <g id="line2d_44">
      <g>
       <use xlink:href="#m4bb2bd565f" x="313.655" y="125.672413" style="stroke: #000000; stroke-width: 0.8"/>
      </g>
     </g>
    </g>
    <g id="ytick_8">
     <g id="line2d_45">
      <path d="M 313.655 94.905851 
L 565.2 94.905851 
" clip-path="url(#p47dcb04c89)" style="fill: none; stroke: #b0b0b0; stroke-width: 0.8; stroke-linecap: square"/>
     </g>
     <g id="line2d_46">
      <g>
       <use xlink:href="#m4bb2bd565f" x="313.655" y="94.905851" style="stroke: #000000; stroke-width: 0.8"/>
      </g>
     </g>
    </g>
    <g id="ytick_9">
     <g id="line2d_47">
      <path d="M 313.655 64.139289 
L 565.2 64.139289 
" clip-path="url(#p47dcb04c89)" style="fill: none; stroke: #b0b0b0; stroke-width: 0.8; stroke-linecap: square"/>
     </g>
     <g id="line2d_48">
      <g>
       <use xlink:href="#m4bb2bd565f" x="313.655" y="64.139289" style="stroke: #000000; stroke-width: 0.8"/>
      </g>
     </g>
    </g>
    <g id="ytick_10">
     <g id="line2d_49">
      <path d="M 313.655 33.372727 
L 565.2 33.372727 
" clip-path="url(#p47dcb04c89)" style="fill: none; stroke: #b0b0b0; stroke-width: 0.8; stroke-linecap: square"/>
     </g>
     <g id="line2d_50">
      <g>
       <use xlink:href="#m4bb2bd565f" x="313.655" y="33.372727" style="stroke: #000000; stroke-width: 0.8"/>
      </g>
     </g>
    </g>
   </g>
   <g id="line2d_51">
    <path d="M 325.088864 33.372727 
L 370.824318 45.428587 
L 416.559773 47.712073 
L 462.295227 73.214885 
L 508.030682 87.890712 
L 553.766136 139.668411 
" clip-path="url(#p47dcb04c89)" style="fill: none; stroke: #94c4df; stroke-width: 1.5; stroke-linecap: square"/>
    <g clip-path="url(#p47dcb04c89)">
     <use xlink:href="#m5a953dc1ca" x="325.088864" y="33.372727" style="fill: #94c4df; stroke: #94c4df"/>
     <use xlink:href="#m5a953dc1ca" x="370.824318" y="45.428587" style="fill: #94c4df; stroke: #94c4df"/>
     <use xlink:href="#m5a953dc1ca" x="416.559773" y="47.712073" style="fill: #94c4df; stroke: #94c4df"/>
     <use xlink:href="#m5a953dc1ca" x="462.295227" y="73.214885" style="fill: #94c4df; stroke: #94c4df"/>
     <use xlink:href="#m5a953dc1ca" x="508.030682" y="87.890712" style="fill: #94c4df; stroke: #94c4df"/>
     <use xlink:href="#m5a953dc1ca" x="553.766136" y="139.668411" style="fill: #94c4df; stroke: #94c4df"/>
    </g>
   </g>
   <g id="line2d_52">
    <path d="M 325.088864 33.372727 
L 370.824318 65.630483 
L 416.559773 87.368399 
L 462.295227 114.617645 
L 508.030682 152.726158 
L 553.766136 177.303223 
" clip-path="url(#p47dcb04c89)" style="fill: none; stroke: #fc8a6a; stroke-width: 1.5; stroke-linecap: square"/>
    <g clip-path="url(#p47dcb04c89)">
     <use xlink:href="#mb9c334b88e" x="325.088864" y="33.372727" style="fill: #fc8a6a; stroke: #fc8a6a"/>
     <use xlink:href="#mb9c334b88e" x="370.824318" y="65.630483" style="fill: #fc8a6a; stroke: #fc8a6a"/>
     <use xlink:href="#mb9c334b88e" x="416.559773" y="87.368399" style="fill: #fc8a6a; stroke: #fc8a6a"/>
     <use xlink:href="#mb9c334b88e" x="462.295227" y="114.617645" style="fill: #fc8a6a; stroke: #fc8a6a"/>
     <use xlink:href="#mb9c334b88e" x="508.030682" y="152.726158" style="fill: #fc8a6a; stroke: #fc8a6a"/>
     <use xlink:href="#mb9c334b88e" x="553.766136" y="177.303223" style="fill: #fc8a6a; stroke: #fc8a6a"/>
    </g>
   </g>
   <g id="line2d_53">
    <path d="M 325.088864 33.372727 
L 370.824318 43.177825 
L 416.559773 46.077284 
L 462.295227 66.563931 
L 508.030682 76.898792 
L 553.766136 122.437045 
" clip-path="url(#p47dcb04c89)" style="fill: none; stroke: #4a98c9; stroke-width: 1.5; stroke-linecap: square"/>
    <g clip-path="url(#p47dcb04c89)">
     <use xlink:href="#m432c33378e" x="325.088864" y="33.372727" style="fill: #4a98c9; stroke: #4a98c9"/>
     <use xlink:href="#m432c33378e" x="370.824318" y="43.177825" style="fill: #4a98c9; stroke: #4a98c9"/>
     <use xlink:href="#m432c33378e" x="416.559773" y="46.077284" style="fill: #4a98c9; stroke: #4a98c9"/>
     <use xlink:href="#m432c33378e" x="462.295227" y="66.563931" style="fill: #4a98c9; stroke: #4a98c9"/>
     <use xlink:href="#m432c33378e" x="508.030682" y="76.898792" style="fill: #4a98c9; stroke: #4a98c9"/>
     <use xlink:href="#m432c33378e" x="553.766136" y="122.437045" style="fill: #4a98c9; stroke: #4a98c9"/>
    </g>
   </g>
   <g id="line2d_54">
    <path d="M 325.088864 33.372727 
L 370.824318 55.207644 
L 416.559773 73.733313 
L 462.295227 104.595182 
L 508.030682 136.654202 
L 553.766136 168.189986 
" clip-path="url(#p47dcb04c89)" style="fill: none; stroke: #f14432; stroke-width: 1.5; stroke-linecap: square"/>
    <g clip-path="url(#p47dcb04c89)">
     <use xlink:href="#mcaaddca398" x="325.088864" y="33.372727" style="fill: #f14432; stroke: #f14432"/>
     <use xlink:href="#mcaaddca398" x="370.824318" y="55.207644" style="fill: #f14432; stroke: #f14432"/>
     <use xlink:href="#mcaaddca398" x="416.559773" y="73.733313" style="fill: #f14432; stroke: #f14432"/>
     <use xlink:href="#mcaaddca398" x="462.295227" y="104.595182" style="fill: #f14432; stroke: #f14432"/>
     <use xlink:href="#mcaaddca398" x="508.030682" y="136.654202" style="fill: #f14432; stroke: #f14432"/>
     <use xlink:href="#mcaaddca398" x="553.766136" y="168.189986" style="fill: #f14432; stroke: #f14432"/>
    </g>
   </g>
   <g id="line2d_55">
    <path d="M 325.088864 33.372727 
L 370.824318 40.246422 
L 416.559773 75.343605 
L 462.295227 61.333143 
L 508.030682 68.904199 
L 553.766136 110.44159 
" clip-path="url(#p47dcb04c89)" style="fill: none; stroke: #1764ab; stroke-width: 1.5; stroke-linecap: square"/>
    <g clip-path="url(#p47dcb04c89)">
     <use xlink:href="#mf500e13a20" x="325.088864" y="33.372727" style="fill: #1764ab; stroke: #1764ab"/>
     <use xlink:href="#mf500e13a20" x="370.824318" y="40.246422" style="fill: #1764ab; stroke: #1764ab"/>
     <use xlink:href="#mf500e13a20" x="416.559773" y="75.343605" style="fill: #1764ab; stroke: #1764ab"/>
     <use xlink:href="#mf500e13a20" x="462.295227" y="61.333143" style="fill: #1764ab; stroke: #1764ab"/>
     <use xlink:href="#mf500e13a20" x="508.030682" y="68.904199" style="fill: #1764ab; stroke: #1764ab"/>
     <use xlink:href="#mf500e13a20" x="553.766136" y="110.44159" style="fill: #1764ab; stroke: #1764ab"/>
    </g>
   </g>
   <g id="line2d_56">
    <path d="M 325.088864 33.372727 
L 370.824318 48.596476 
L 416.559773 62.173781 
L 462.295227 89.241638 
L 508.030682 116.538812 
L 553.766136 155.174314 
" clip-path="url(#p47dcb04c89)" style="fill: none; stroke: #bc141a; stroke-width: 1.5; stroke-linecap: square"/>
    <g clip-path="url(#p47dcb04c89)">
     <use xlink:href="#m3eb4da856a" x="325.088864" y="33.372727" style="fill: #bc141a; stroke: #bc141a"/>
     <use xlink:href="#m3eb4da856a" x="370.824318" y="48.596476" style="fill: #bc141a; stroke: #bc141a"/>
     <use xlink:href="#m3eb4da856a" x="416.559773" y="62.173781" style="fill: #bc141a; stroke: #bc141a"/>
     <use xlink:href="#m3eb4da856a" x="462.295227" y="89.241638" style="fill: #bc141a; stroke: #bc141a"/>
     <use xlink:href="#m3eb4da856a" x="508.030682" y="116.538812" style="fill: #bc141a; stroke: #bc141a"/>
     <use xlink:href="#m3eb4da856a" x="553.766136" y="155.174314" style="fill: #bc141a; stroke: #bc141a"/>
    </g>
   </g>
   <g id="patch_8">
    <path d="M 313.655 184.84 
L 313.655 26.16 
" style="fill: none; stroke: #000000; stroke-width: 0.8; stroke-linejoin: miter; stroke-linecap: square"/>
   </g>
   <g id="patch_9">
    <path d="M 565.2 184.84 
L 565.2 26.16 
" style="fill: none; stroke: #000000; stroke-width: 0.8; stroke-linejoin: miter; stroke-linecap: square"/>
   </g>
   <g id="patch_10">
    <path d="M 313.655 184.84 
L 565.2 184.84 
" style="fill: none; stroke: #000000; stroke-width: 0.8; stroke-linejoin: miter; stroke-linecap: square"/>
   </g>
   <g id="patch_11">
    <path d="M 313.655 26.16 
L 565.2 26.16 
" style="fill: none; stroke: #000000; stroke-width: 0.8; stroke-linejoin: miter; stroke-linecap: square"/>
   </g>
   <g id="text_22">
    <!-- SUSY 20k Prediction Efficiency -->
    <g transform="translate(348.12625 20.16) scale(0.12 -0.12)">
     <defs>
      <path id="DejaVuSans-53" d="M 3425 4513 
L 3425 3897 
Q 3066 4069 2747 4153 
Q 2428 4238 2131 4238 
Q 1616 4238 1336 4038 
Q 1056 3838 1056 3469 
Q 1056 3159 1242 3001 
Q 1428 2844 1947 2747 
L 2328 2669 
Q 3034 2534 3370 2195 
Q 3706 1856 3706 1288 
Q 3706 609 3251 259 
Q 2797 -91 1919 -91 
Q 1588 -91 1214 -16 
Q 841 59 441 206 
L 441 856 
Q 825 641 1194 531 
Q 1563 422 1919 422 
Q 2459 422 2753 634 
Q 3047 847 3047 1241 
Q 3047 1584 2836 1778 
Q 2625 1972 2144 2069 
L 1759 2144 
Q 1053 2284 737 2584 
Q 422 2884 422 3419 
Q 422 4038 858 4394 
Q 1294 4750 2059 4750 
Q 2388 4750 2728 4690 
Q 3069 4631 3425 4513 
z
" transform="scale(0.015625)"/>
      <path id="DejaVuSans-55" d="M 556 4666 
L 1191 4666 
L 1191 1831 
Q 1191 1081 1462 751 
Q 1734 422 2344 422 
Q 2950 422 3222 751 
Q 3494 1081 3494 1831 
L 3494 4666 
L 4128 4666 
L 4128 1753 
Q 4128 841 3676 375 
Q 3225 -91 2344 -91 
Q 1459 -91 1007 375 
Q 556 841 556 1753 
L 556 4666 
z
" transform="scale(0.015625)"/>
      <path id="DejaVuSans-59" d="M -13 4666 
L 666 4666 
L 1959 2747 
L 3244 4666 
L 3922 4666 
L 2272 2222 
L 2272 0 
L 1638 0 
L 1638 2222 
L -13 4666 
z
" transform="scale(0.015625)"/>
      <path id="DejaVuSans-6b" d="M 581 4863 
L 1159 4863 
L 1159 1991 
L 2875 3500 
L 3609 3500 
L 1753 1863 
L 3688 0 
L 2938 0 
L 1159 1709 
L 1159 0 
L 581 0 
L 581 4863 
z
" transform="scale(0.015625)"/>
     </defs>
     <use xlink:href="#DejaVuSans-53"/>
     <use xlink:href="#DejaVuSans-55" transform="translate(63.476562 0)"/>
     <use xlink:href="#DejaVuSans-53" transform="translate(136.669922 0)"/>
     <use xlink:href="#DejaVuSans-59" transform="translate(200.146484 0)"/>
     <use xlink:href="#DejaVuSans-20" transform="translate(261.230469 0)"/>
     <use xlink:href="#DejaVuSans-32" transform="translate(293.017578 0)"/>
     <use xlink:href="#DejaVuSans-30" transform="translate(356.640625 0)"/>
     <use xlink:href="#DejaVuSans-6b" transform="translate(420.263672 0)"/>
     <use xlink:href="#DejaVuSans-20" transform="translate(478.173828 0)"/>
     <use xlink:href="#DejaVuSans-50" transform="translate(509.960938 0)"/>
     <use xlink:href="#DejaVuSans-72" transform="translate(568.513672 0)"/>
     <use xlink:href="#DejaVuSans-65" transform="translate(607.376953 0)"/>
     <use xlink:href="#DejaVuSans-64" transform="translate(668.900391 0)"/>
     <use xlink:href="#DejaVuSans-69" transform="translate(732.376953 0)"/>
     <use xlink:href="#DejaVuSans-63" transform="translate(760.160156 0)"/>
     <use xlink:href="#DejaVuSans-74" transform="translate(815.140625 0)"/>
     <use xlink:href="#DejaVuSans-69" transform="translate(854.349609 0)"/>
     <use xlink:href="#DejaVuSans-6f" transform="translate(882.132812 0)"/>
     <use xlink:href="#DejaVuSans-6e" transform="translate(943.314453 0)"/>
     <use xlink:href="#DejaVuSans-20" transform="translate(1006.693359 0)"/>
     <use xlink:href="#DejaVuSans-45" transform="translate(1038.480469 0)"/>
     <use xlink:href="#DejaVuSans-66" transform="translate(1101.664062 0)"/>
     <use xlink:href="#DejaVuSans-66" transform="translate(1136.869141 0)"/>
     <use xlink:href="#DejaVuSans-69" transform="translate(1172.074219 0)"/>
     <use xlink:href="#DejaVuSans-63" transform="translate(1199.857422 0)"/>
     <use xlink:href="#DejaVuSans-69" transform="translate(1254.837891 0)"/>
     <use xlink:href="#DejaVuSans-65" transform="translate(1282.621094 0)"/>
     <use xlink:href="#DejaVuSans-6e" transform="translate(1344.144531 0)"/>
     <use xlink:href="#DejaVuSans-63" transform="translate(1407.523438 0)"/>
     <use xlink:href="#DejaVuSans-79" transform="translate(1462.503906 0)"/>
    </g>
   </g>
  </g>
  <g id="legend_1">
   <g id="line2d_57">
    <path d="M 88.647656 222.742188 
L 98.647656 222.742188 
L 108.647656 222.742188 
" style="fill: none; stroke: #94c4df; stroke-width: 1.5; stroke-linecap: square"/>
    <g>
     <use xlink:href="#m5a953dc1ca" x="98.647656" y="222.742188" style="fill: #94c4df; stroke: #94c4df"/>
    </g>
   </g>
   <g id="text_23">
    <!-- OpenMP 64 trees -->
    <g transform="translate(116.647656 226.242188) scale(0.1 -0.1)">
     <defs>
      <path id="DejaVuSans-4f" d="M 2522 4238 
Q 1834 4238 1429 3725 
Q 1025 3213 1025 2328 
Q 1025 1447 1429 934 
Q 1834 422 2522 422 
Q 3209 422 3611 934 
Q 4013 1447 4013 2328 
Q 4013 3213 3611 3725 
Q 3209 4238 2522 4238 
z
M 2522 4750 
Q 3503 4750 4090 4092 
Q 4678 3434 4678 2328 
Q 4678 1225 4090 567 
Q 3503 -91 2522 -91 
Q 1538 -91 948 565 
Q 359 1222 359 2328 
Q 359 3434 948 4092 
Q 1538 4750 2522 4750 
z
" transform="scale(0.015625)"/>
      <path id="DejaVuSans-70" d="M 1159 525 
L 1159 -1331 
L 581 -1331 
L 581 3500 
L 1159 3500 
L 1159 2969 
Q 1341 3281 1617 3432 
Q 1894 3584 2278 3584 
Q 2916 3584 3314 3078 
Q 3713 2572 3713 1747 
Q 3713 922 3314 415 
Q 2916 -91 2278 -91 
Q 1894 -91 1617 61 
Q 1341 213 1159 525 
z
M 3116 1747 
Q 3116 2381 2855 2742 
Q 2594 3103 2138 3103 
Q 1681 3103 1420 2742 
Q 1159 2381 1159 1747 
Q 1159 1113 1420 752 
Q 1681 391 2138 391 
Q 2594 391 2855 752 
Q 3116 1113 3116 1747 
z
" transform="scale(0.015625)"/>
     </defs>
     <use xlink:href="#DejaVuSans-4f"/>
     <use xlink:href="#DejaVuSans-70" transform="translate(78.710938 0)"/>
     <use xlink:href="#DejaVuSans-65" transform="translate(142.1875 0)"/>
     <use xlink:href="#DejaVuSans-6e" transform="translate(203.710938 0)"/>
     <use xlink:href="#DejaVuSans-4d" transform="translate(267.089844 0)"/>
     <use xlink:href="#DejaVuSans-50" transform="translate(353.369141 0)"/>
     <use xlink:href="#DejaVuSans-20" transform="translate(413.671875 0)"/>
     <use xlink:href="#DejaVuSans-36" transform="translate(445.458984 0)"/>
     <use xlink:href="#DejaVuSans-34" transform="translate(509.082031 0)"/>
     <use xlink:href="#DejaVuSans-20" transform="translate(572.705078 0)"/>
     <use xlink:href="#DejaVuSans-74" transform="translate(604.492188 0)"/>
     <use xlink:href="#DejaVuSans-72" transform="translate(643.701172 0)"/>
     <use xlink:href="#DejaVuSans-65" transform="translate(682.564453 0)"/>
     <use xlink:href="#DejaVuSans-65" transform="translate(744.087891 0)"/>
     <use xlink:href="#DejaVuSans-73" transform="translate(805.611328 0)"/>
    </g>
   </g>
   <g id="line2d_58">
    <path d="M 88.647656 237.420312 
L 98.647656 237.420312 
L 108.647656 237.420312 
" style="fill: none; stroke: #fc8a6a; stroke-width: 1.5; stroke-linecap: square"/>
    <g>
     <use xlink:href="#mb9c334b88e" x="98.647656" y="237.420312" style="fill: #fc8a6a; stroke: #fc8a6a"/>
    </g>
   </g>
   <g id="text_24">
    <!-- FastFlow 64 trees -->
    <g transform="translate(116.647656 240.920312) scale(0.1 -0.1)">
     <defs>
      <path id="DejaVuSans-46" d="M 628 4666 
L 3309 4666 
L 3309 4134 
L 1259 4134 
L 1259 2759 
L 3109 2759 
L 3109 2228 
L 1259 2228 
L 1259 0 
L 628 0 
L 628 4666 
z
" transform="scale(0.015625)"/>
      <path id="DejaVuSans-6c" d="M 603 4863 
L 1178 4863 
L 1178 0 
L 603 0 
L 603 4863 
z
" transform="scale(0.015625)"/>
      <path id="DejaVuSans-77" d="M 269 3500 
L 844 3500 
L 1563 769 
L 2278 3500 
L 2956 3500 
L 3675 769 
L 4391 3500 
L 4966 3500 
L 4050 0 
L 3372 0 
L 2619 2869 
L 1863 0 
L 1184 0 
L 269 3500 
z
" transform="scale(0.015625)"/>
     </defs>
     <use xlink:href="#DejaVuSans-46"/>
     <use xlink:href="#DejaVuSans-61" transform="translate(48.394531 0)"/>
     <use xlink:href="#DejaVuSans-73" transform="translate(109.673828 0)"/>
     <use xlink:href="#DejaVuSans-74" transform="translate(161.773438 0)"/>
     <use xlink:href="#DejaVuSans-46" transform="translate(200.982422 0)"/>
     <use xlink:href="#DejaVuSans-6c" transform="translate(258.501953 0)"/>
     <use xlink:href="#DejaVuSans-6f" transform="translate(286.285156 0)"/>
     <use xlink:href="#DejaVuSans-77" transform="translate(347.466797 0)"/>
     <use xlink:href="#DejaVuSans-20" transform="translate(429.253906 0)"/>
     <use xlink:href="#DejaVuSans-36" transform="translate(461.041016 0)"/>
     <use xlink:href="#DejaVuSans-34" transform="translate(524.664062 0)"/>
     <use xlink:href="#DejaVuSans-20" transform="translate(588.287109 0)"/>
     <use xlink:href="#DejaVuSans-74" transform="translate(620.074219 0)"/>
     <use xlink:href="#DejaVuSans-72" transform="translate(659.283203 0)"/>
     <use xlink:href="#DejaVuSans-65" transform="translate(698.146484 0)"/>
     <use xlink:href="#DejaVuSans-65" transform="translate(759.669922 0)"/>
     <use xlink:href="#DejaVuSans-73" transform="translate(821.193359 0)"/>
    </g>
   </g>
   <g id="line2d_59">
    <path d="M 223.974219 222.742188 
L 233.974219 222.742188 
L 243.974219 222.742188 
" style="fill: none; stroke: #4a98c9; stroke-width: 1.5; stroke-linecap: square"/>
    <g>
     <use xlink:href="#m432c33378e" x="233.974219" y="222.742188" style="fill: #4a98c9; stroke: #4a98c9"/>
    </g>
   </g>
   <g id="text_25">
    <!-- OpenMP 128 trees -->
    <g transform="translate(251.974219 226.242188) scale(0.1 -0.1)">
     <use xlink:href="#DejaVuSans-4f"/>
     <use xlink:href="#DejaVuSans-70" transform="translate(78.710938 0)"/>
     <use xlink:href="#DejaVuSans-65" transform="translate(142.1875 0)"/>
     <use xlink:href="#DejaVuSans-6e" transform="translate(203.710938 0)"/>
     <use xlink:href="#DejaVuSans-4d" transform="translate(267.089844 0)"/>
     <use xlink:href="#DejaVuSans-50" transform="translate(353.369141 0)"/>
     <use xlink:href="#DejaVuSans-20" transform="translate(413.671875 0)"/>
     <use xlink:href="#DejaVuSans-31" transform="translate(445.458984 0)"/>
     <use xlink:href="#DejaVuSans-32" transform="translate(509.082031 0)"/>
     <use xlink:href="#DejaVuSans-38" transform="translate(572.705078 0)"/>
     <use xlink:href="#DejaVuSans-20" transform="translate(636.328125 0)"/>
     <use xlink:href="#DejaVuSans-74" transform="translate(668.115234 0)"/>
     <use xlink:href="#DejaVuSans-72" transform="translate(707.324219 0)"/>
     <use xlink:href="#DejaVuSans-65" transform="translate(746.1875 0)"/>
     <use xlink:href="#DejaVuSans-65" transform="translate(807.710938 0)"/>
     <use xlink:href="#DejaVuSans-73" transform="translate(869.234375 0)"/>
    </g>
   </g>
   <g id="line2d_60">
    <path d="M 223.974219 237.420312 
L 233.974219 237.420312 
L 243.974219 237.420312 
" style="fill: none; stroke: #f14432; stroke-width: 1.5; stroke-linecap: square"/>
    <g>
     <use xlink:href="#mcaaddca398" x="233.974219" y="237.420312" style="fill: #f14432; stroke: #f14432"/>
    </g>
   </g>
   <g id="text_26">
    <!-- FastFlow 128 trees -->
    <g transform="translate(251.974219 240.920312) scale(0.1 -0.1)">
     <use xlink:href="#DejaVuSans-46"/>
     <use xlink:href="#DejaVuSans-61" transform="translate(48.394531 0)"/>
     <use xlink:href="#DejaVuSans-73" transform="translate(109.673828 0)"/>
     <use xlink:href="#DejaVuSans-74" transform="translate(161.773438 0)"/>
     <use xlink:href="#DejaVuSans-46" transform="translate(200.982422 0)"/>
     <use xlink:href="#DejaVuSans-6c" transform="translate(258.501953 0)"/>
     <use xlink:href="#DejaVuSans-6f" transform="translate(286.285156 0)"/>
     <use xlink:href="#DejaVuSans-77" transform="translate(347.466797 0)"/>
     <use xlink:href="#DejaVuSans-20" transform="translate(429.253906 0)"/>
     <use xlink:href="#DejaVuSans-31" transform="translate(461.041016 0)"/>
     <use xlink:href="#DejaVuSans-32" transform="translate(524.664062 0)"/>
     <use xlink:href="#DejaVuSans-38" transform="translate(588.287109 0)"/>
     <use xlink:href="#DejaVuSans-20" transform="translate(651.910156 0)"/>
     <use xlink:href="#DejaVuSans-74" transform="translate(683.697266 0)"/>
     <use xlink:href="#DejaVuSans-72" transform="translate(722.90625 0)"/>
     <use xlink:href="#DejaVuSans-65" transform="translate(761.769531 0)"/>
     <use xlink:href="#DejaVuSans-65" transform="translate(823.292969 0)"/>
     <use xlink:href="#DejaVuSans-73" transform="translate(884.816406 0)"/>
    </g>
   </g>
   <g id="line2d_61">
    <path d="M 365.663281 222.742188 
L 375.663281 222.742188 
L 385.663281 222.742188 
" style="fill: none; stroke: #1764ab; stroke-width: 1.5; stroke-linecap: square"/>
    <g>
     <use xlink:href="#mf500e13a20" x="375.663281" y="222.742188" style="fill: #1764ab; stroke: #1764ab"/>
    </g>
   </g>
   <g id="text_27">
    <!-- OpenMP 256 trees -->
    <g transform="translate(393.663281 226.242188) scale(0.1 -0.1)">
     <defs>
      <path id="DejaVuSans-35" d="M 691 4666 
L 3169 4666 
L 3169 4134 
L 1269 4134 
L 1269 2991 
Q 1406 3038 1543 3061 
Q 1681 3084 1819 3084 
Q 2600 3084 3056 2656 
Q 3513 2228 3513 1497 
Q 3513 744 3044 326 
Q 2575 -91 1722 -91 
Q 1428 -91 1123 -41 
Q 819 9 494 109 
L 494 744 
Q 775 591 1075 516 
Q 1375 441 1709 441 
Q 2250 441 2565 725 
Q 2881 1009 2881 1497 
Q 2881 1984 2565 2268 
Q 2250 2553 1709 2553 
Q 1456 2553 1204 2497 
Q 953 2441 691 2322 
L 691 4666 
z
" transform="scale(0.015625)"/>
     </defs>
     <use xlink:href="#DejaVuSans-4f"/>
     <use xlink:href="#DejaVuSans-70" transform="translate(78.710938 0)"/>
     <use xlink:href="#DejaVuSans-65" transform="translate(142.1875 0)"/>
     <use xlink:href="#DejaVuSans-6e" transform="translate(203.710938 0)"/>
     <use xlink:href="#DejaVuSans-4d" transform="translate(267.089844 0)"/>
     <use xlink:href="#DejaVuSans-50" transform="translate(353.369141 0)"/>
     <use xlink:href="#DejaVuSans-20" transform="translate(413.671875 0)"/>
     <use xlink:href="#DejaVuSans-32" transform="translate(445.458984 0)"/>
     <use xlink:href="#DejaVuSans-35" transform="translate(509.082031 0)"/>
     <use xlink:href="#DejaVuSans-36" transform="translate(572.705078 0)"/>
     <use xlink:href="#DejaVuSans-20" transform="translate(636.328125 0)"/>
     <use xlink:href="#DejaVuSans-74" transform="translate(668.115234 0)"/>
     <use xlink:href="#DejaVuSans-72" transform="translate(707.324219 0)"/>
     <use xlink:href="#DejaVuSans-65" transform="translate(746.1875 0)"/>
     <use xlink:href="#DejaVuSans-65" transform="translate(807.710938 0)"/>
     <use xlink:href="#DejaVuSans-73" transform="translate(869.234375 0)"/>
    </g>
   </g>
   <g id="line2d_62">
    <path d="M 365.663281 237.420312 
L 375.663281 237.420312 
L 385.663281 237.420312 
" style="fill: none; stroke: #bc141a; stroke-width: 1.5; stroke-linecap: square"/>
    <g>
     <use xlink:href="#m3eb4da856a" x="375.663281" y="237.420312" style="fill: #bc141a; stroke: #bc141a"/>
    </g>
   </g>
   <g id="text_28">
    <!-- FastFlow 256 trees -->
    <g transform="translate(393.663281 240.920312) scale(0.1 -0.1)">
     <use xlink:href="#DejaVuSans-46"/>
     <use xlink:href="#DejaVuSans-61" transform="translate(48.394531 0)"/>
     <use xlink:href="#DejaVuSans-73" transform="translate(109.673828 0)"/>
     <use xlink:href="#DejaVuSans-74" transform="translate(161.773438 0)"/>
     <use xlink:href="#DejaVuSans-46" transform="translate(200.982422 0)"/>
     <use xlink:href="#DejaVuSans-6c" transform="translate(258.501953 0)"/>
     <use xlink:href="#DejaVuSans-6f" transform="translate(286.285156 0)"/>
     <use xlink:href="#DejaVuSans-77" transform="translate(347.466797 0)"/>
     <use xlink:href="#DejaVuSans-20" transform="translate(429.253906 0)"/>
     <use xlink:href="#DejaVuSans-32" transform="translate(461.041016 0)"/>
     <use xlink:href="#DejaVuSans-35" transform="translate(524.664062 0)"/>
     <use xlink:href="#DejaVuSans-36" transform="translate(588.287109 0)"/>
     <use xlink:href="#DejaVuSans-20" transform="translate(651.910156 0)"/>
     <use xlink:href="#DejaVuSans-74" transform="translate(683.697266 0)"/>
     <use xlink:href="#DejaVuSans-72" transform="translate(722.90625 0)"/>
     <use xlink:href="#DejaVuSans-65" transform="translate(761.769531 0)"/>
     <use xlink:href="#DejaVuSans-65" transform="translate(823.292969 0)"/>
     <use xlink:href="#DejaVuSans-73" transform="translate(884.816406 0)"/>
    </g>
   </g>
  </g>
 </g>
 <defs>
  <clipPath id="p056147249f">
   <rect x="47.81" y="26.16" width="251.545" height="158.68"/>
  </clipPath>
  <clipPath id="p47dcb04c89">
   <rect x="313.655" y="26.16" width="251.545" height="158.68"/>
  </clipPath>
 </defs>
</svg>
